SplineFontDB: 3.0
FontName: Orbitron-Bold
FullName: Orbitron Bold
FamilyName: Orbitron
Weight: Bold
Copyright: Copyright (c) 2009, Matt McInerney <matt@pixelspread.com>\n
Version: 1.0
ItalicAngle: 0
UnderlinePosition: -51.2
UnderlineWidth: 51.2
Ascent: 768
Descent: 256
sfntRevision: 0x00010000
LayerCount: 2
Layer: 0 1 "Back"  1
Layer: 1 1 "Fore"  0
NeedsXUIDChange: 1
XUID: [1021 496 529952750 1946950]
FSType: 4
OS2Version: 3
OS2_WeightWidthSlopeOnly: 0
OS2_UseTypoMetrics: 1
CreationTime: 1248674940
ModificationTime: 1291111919
PfmFamily: 17
TTFWeight: 700
TTFWidth: 5
LineGap: 0
VLineGap: 0
Panose: 2 0 0 0 0 0 0 0 0 0
OS2TypoAscent: 0
OS2TypoAOffset: 1
OS2TypoDescent: 0
OS2TypoDOffset: 1
OS2TypoLinegap: 0
OS2WinAscent: 0
OS2WinAOffset: 1
OS2WinDescent: 0
OS2WinDOffset: 1
HheadAscent: -224
HheadAOffset: 1
HheadDescent: -20
HheadDOffset: 1
OS2SubXSize: 717
OS2SubYSize: 666
OS2SubXOff: 0
OS2SubYOff: 143
OS2SupXSize: 717
OS2SupYSize: 666
OS2SupXOff: 0
OS2SupYOff: 488
OS2StrikeYSize: 51
OS2StrikeYPos: 256
OS2Vendor: 'pyrs'
OS2CodePages: 00000001.00000000
OS2UnicodeRanges: 80000027.18000042.14000000.00000000
Lookup: 1 0 0 "'aalt' Access All Alternates in Latin lookup 0"  {"'aalt' Access All Alternates in Latin lookup 0 subtable"  } ['aalt' ('latn' <'dflt' > ) ]
Lookup: 3 0 0 "'aalt' Access All Alternates in Latin lookup 1"  {"'aalt' Access All Alternates in Latin lookup 1 subtable"  } ['aalt' ('latn' <'dflt' > ) ]
Lookup: 1 0 0 "'salt' Stylistic Alternatives in Latin lookup 2"  {"'salt' Stylistic Alternatives in Latin lookup 2 subtable"  } ['salt' ('latn' <'dflt' > ) ]
Lookup: 1 0 0 "'smcp' Lowercase to Small Capitals in Latin lookup 3"  {"'smcp' Lowercase to Small Capitals in Latin lookup 3 subtable"  } ['smcp' ('latn' <'dflt' > ) ]
Lookup: 1 0 0 "'ss01' Style Set 1 in Latin lookup 4"  {"'ss01' Style Set 1 in Latin lookup 4 subtable"  } ['ss01' ('latn' <'dflt' > ) ]

StartChar: A.alt3
Encoding: 65539 -1 4
Width: 846
Flags: W
HStem: 0 21G<-29 139 717.605 885> 172 135<303 554> 717 20G<356.254 500.719>
LayerCount: 2
Fore
SplineSet
729 0 m 1,0,-1
 631 172 l 1,1,-1
 227 172 l 1,2,3
 203 130 203 130 177 85.5 c 128,-1,4
 151 41 151 41 127 0 c 1,5,-1
 -29 0 l 1,6,-1
 367 737 l 1,7,-1
 490 737 l 1,8,-1
 885 0 l 1,9,-1
 729 0 l 1,0,-1
303 307 m 1,10,-1
 554 307 l 1,11,-1
 429 566 l 1,12,-1
 303 307 l 1,10,-1
EndSplineSet
EndChar

StartChar: AE
Encoding: 198 198 5
Width: 1408
Flags: W
HStem: 0 135<793 1335> 248 135<191 657> 301 135<793 1229> 602 135<191.491 656.998 793 1335>
VStem: 55 136<0 248 383 601.515> 657 136<135 248 436 602>
LayerCount: 2
Fore
SplineSet
793 436 m 1,0,-1
 1229 436 l 1,1,-1
 1229 301 l 1,2,-1
 793 301 l 1,3,-1
 793 135 l 1,4,-1
 1335 135 l 1,5,-1
 1335 0 l 1,6,-1
 657 0 l 1,7,-1
 657 248 l 1,8,-1
 191 248 l 1,9,-1
 191 0 l 1,10,-1
 55 0 l 1,11,-1
 55 595 l 2,12,13
 55 625 55 625 66.5 651 c 128,-1,14
 78 677 78 677 97.5 696 c 128,-1,15
 117 715 117 715 142.5 726 c 128,-1,16
 168 737 168 737 198 737 c 2,17,-1
 1335 737 l 1,18,-1
 1335 602 l 1,19,-1
 793 602 l 1,20,-1
 793 436 l 1,0,-1
657 595 m 2,21,22
 657 602 657 602 650 602 c 2,23,-1
 198 602 l 2,24,25
 192 602 192 602 191 595 c 2,26,-1
 191 383 l 1,27,-1
 657 383 l 1,28,-1
 657 595 l 2,21,22
EndSplineSet
EndChar

StartChar: B
Encoding: 66 66 12
Width: 851
Flags: W
HStem: 0 135<196 661.438> 307 136<196 632> 602 135<196 631.411>
VStem: 60 136<135 307 443.033 602> 632 136<443.391 601.515> 662 136<135.485 306.228>
LayerCount: 2
Fore
SplineSet
768 451 m 2,0,1
 768 420 768 420 758 398 c 1,2,3
 775 380 775 380 786.5 354.5 c 128,-1,4
 798 329 798 329 798 301 c 2,5,-1
 798 142 l 2,6,7
 798 112 798 112 786.5 86 c 128,-1,8
 775 60 775 60 755.5 41.5 c 128,-1,9
 736 23 736 23 710 11.5 c 128,-1,10
 684 0 684 0 654 0 c 2,11,-1
 60 0 l 1,12,-1
 60 737 l 1,13,-1
 626 737 l 2,14,15
 655 737 655 737 681 726 c 128,-1,16
 707 715 707 715 726 696 c 128,-1,17
 745 677 745 677 756.5 651 c 128,-1,18
 768 625 768 625 768 595 c 2,19,-1
 768 451 l 2,0,1
203 602 m 2,20,21
 196 602 196 602 196 595 c 2,22,-1
 196 451 l 2,23,24
 196 444 196 444 203 443 c 2,25,-1
 626 443 l 2,26,27
 632 443 632 443 632 451 c 2,28,-1
 632 595 l 2,29,30
 632 602 632 602 626 602 c 2,31,-1
 203 602 l 2,20,21
662 301 m 2,32,33
 662 307 662 307 654 307 c 2,34,-1
 203 307 l 2,35,36
 196 307 196 307 196 301 c 2,37,-1
 196 142 l 2,38,39
 196 135 196 135 203 135 c 2,40,-1
 654 135 l 2,41,42
 661 135 661 135 662 142 c 2,43,-1
 662 301 l 2,32,33
EndSplineSet
EndChar

StartChar: C
Encoding: 67 67 13
Width: 841
Flags: W
HStem: 0 135<193.485 793> 602 135<193.485 793>
VStem: 57 136<135.686 601.515>
LayerCount: 2
Fore
SplineSet
200 602 m 2,0,1
 193 602 193 602 193 595 c 2,2,-1
 193 142 l 2,3,4
 193 135 193 135 200 135 c 2,5,-1
 793 135 l 1,6,-1
 793 0 l 1,7,-1
 200 0 l 2,8,9
 170 0 170 0 144 11.5 c 128,-1,10
 118 23 118 23 99 41.5 c 128,-1,11
 80 60 80 60 68.5 86.5 c 128,-1,12
 57 113 57 113 57 142 c 2,13,-1
 57 595 l 2,14,15
 57 625 57 625 68.5 651 c 128,-1,16
 80 677 80 677 99 696 c 128,-1,17
 118 715 118 715 144 726 c 128,-1,18
 170 737 170 737 200 737 c 2,19,-1
 793 737 l 1,20,-1
 793 602 l 1,21,-1
 200 602 l 2,0,1
EndSplineSet
Substitution2: "'salt' Stylistic Alternatives in Latin lookup 2 subtable" C.alt
Substitution2: "'aalt' Access All Alternates in Latin lookup 0 subtable" C.alt
EndChar

StartChar: C.alt
Encoding: 65540 -1 14
Width: 841
Flags: W
HStem: 0 135<188.562 654.461> 602 135<188.562 654.461>
VStem: 53 135<135.686 601.515> 655 133<135 242 496 602>
LayerCount: 2
Fore
SplineSet
792 496 m 1,0,-1
 655 496 l 1,1,-1
 655 602 l 1,2,-1
 196 602 l 2,3,4
 189 602 189 602 188 595 c 2,5,-1
 188 142 l 2,6,7
 188 135 188 135 196 135 c 2,8,-1
 655 135 l 1,9,-1
 655 242 l 1,10,-1
 788 242 l 1,11,-1
 788 118 l 1,12,13
 783 93 783 93 771 71.5 c 128,-1,14
 759 50 759 50 740 34 c 128,-1,15
 721 18 721 18 697.5 9 c 128,-1,16
 674 0 674 0 648 0 c 2,17,-1
 196 0 l 2,18,19
 166 0 166 0 140 11.5 c 128,-1,20
 114 23 114 23 95 41.5 c 128,-1,21
 76 60 76 60 64.5 86.5 c 128,-1,22
 53 113 53 113 53 142 c 2,23,-1
 53 595 l 2,24,25
 53 625 53 625 64.5 651 c 128,-1,26
 76 677 76 677 95 696 c 128,-1,27
 114 715 114 715 140 726 c 128,-1,28
 166 737 166 737 196 737 c 2,29,-1
 648 737 l 2,30,31
 674 737 674 737 697.5 728 c 128,-1,32
 721 719 721 719 740 703 c 128,-1,33
 759 687 759 687 772 665.5 c 128,-1,34
 785 644 785 644 792 620 c 1,35,-1
 792 496 l 1,0,-1
EndSplineSet
EndChar

StartChar: A.alt
Encoding: 57355 57355 15
Width: 792
Flags: W
HStem: 0 21G<0 165.5 595 730> 187 135<416 595> 717 20G<567.385 730>
VStem: 595 135<0 187 322 536>
LayerCount: 2
Fore
SplineSet
0 34 m 1,0,-1
 584 737 l 1,1,-1
 730 737 l 1,2,-1
 730 0 l 1,3,-1
 595 0 l 1,4,-1
 595 187 l 1,5,-1
 303 187 l 1,6,7
 265 141 265 141 225 93.5 c 128,-1,8
 185 46 185 46 146 0 c 1,9,-1
 0 0 l 1,10,-1
 0 34 l 1,0,-1
416 322 m 1,11,-1
 595 322 l 1,12,-1
 595 536 l 1,13,-1
 416 322 l 1,11,-1
EndSplineSet
EndChar

StartChar: Ccedilla
Encoding: 199 199 16
Width: 841
Flags: W
HStem: 0 135<193.485 384 520 793> 602 135<193.485 793>
VStem: 57 136<135.686 601.515>
LayerCount: 2
Fore
SplineSet
200 602 m 2,0,1
 193 602 193 602 193 595 c 2,2,-1
 193 142 l 2,3,4
 193 135 193 135 200 135 c 2,5,-1
 793 135 l 1,6,-1
 793 0 l 1,7,-1
 520 0 l 1,8,-1
 481 -158 l 1,9,-1
 345 -158 l 1,10,-1
 384 0 l 1,11,-1
 200 0 l 2,12,13
 170 0 170 0 144 11.5 c 128,-1,14
 118 23 118 23 99 41.5 c 128,-1,15
 80 60 80 60 68.5 86.5 c 128,-1,16
 57 113 57 113 57 142 c 2,17,-1
 57 595 l 2,18,19
 57 625 57 625 68.5 651 c 128,-1,20
 80 677 80 677 99 696 c 128,-1,21
 118 715 118 715 144 726 c 128,-1,22
 170 737 170 737 200 737 c 2,23,-1
 793 737 l 1,24,-1
 793 602 l 1,25,-1
 200 602 l 2,0,1
EndSplineSet
EndChar

StartChar: D
Encoding: 68 68 17
Width: 854
Flags: W
HStem: 0 135<195 659.515> 602 135<195 659.515>
VStem: 59 136<135 602> 660 137<135.485 601.515>
LayerCount: 2
Fore
SplineSet
653 737 m 2,0,1
 683 737 683 737 709 726 c 128,-1,2
 735 715 735 715 754.5 696 c 128,-1,3
 774 677 774 677 785.5 651 c 128,-1,4
 797 625 797 625 797 595 c 2,5,-1
 797 142 l 2,6,7
 797 112 797 112 785.5 86 c 128,-1,8
 774 60 774 60 754.5 41.5 c 128,-1,9
 735 23 735 23 709 11.5 c 128,-1,10
 683 0 683 0 653 0 c 2,11,-1
 59 0 l 1,12,-1
 59 737 l 1,13,-1
 653 737 l 2,0,1
660 595 m 2,14,15
 660 602 660 602 653 602 c 2,16,-1
 202 602 l 2,17,18
 195 602 195 602 195 595 c 2,19,-1
 195 142 l 2,20,21
 195 135 195 135 202 135 c 2,22,-1
 653 135 l 2,23,24
 660 135 660 135 660 142 c 2,25,-1
 660 595 l 2,14,15
EndSplineSet
EndChar

StartChar: E
Encoding: 69 69 18
Width: 784
Flags: W
HStem: 0 135<196 737> 301 135<196 632> 602 135<196 737>
VStem: 59 137<135 301 436 602>
CounterMasks: 1 e0
LayerCount: 2
Fore
SplineSet
737 602 m 1,0,-1
 196 602 l 1,1,-1
 196 436 l 1,2,-1
 632 436 l 1,3,-1
 632 301 l 1,4,-1
 196 301 l 1,5,-1
 196 135 l 1,6,-1
 737 135 l 1,7,-1
 737 0 l 1,8,-1
 59 0 l 1,9,-1
 59 737 l 1,10,-1
 737 737 l 1,11,-1
 737 602 l 1,0,-1
EndSplineSet
EndChar

StartChar: Euro
Encoding: 8364 8364 23
Width: 818
Flags: W
HStem: 0 134<267.497 764> 202 134<36 133 267 658> 394 134<36 133 267 658> 603 134<267.698 764>
VStem: 133 134<134.692 202 336 394 528 602.308>
LayerCount: 2
Fore
SplineSet
764 134 m 1,0,-1
 764 0 l 1,1,-1
 274 0 l 2,2,3
 244 0 244 0 219 11.5 c 128,-1,4
 194 23 194 23 175 41.5 c 128,-1,5
 156 60 156 60 144.5 86 c 128,-1,6
 133 112 133 112 133 141 c 2,7,-1
 133 202 l 1,8,-1
 36 202 l 1,9,-1
 36 336 l 1,10,-1
 133 336 l 1,11,-1
 133 394 l 1,12,-1
 36 394 l 1,13,-1
 36 528 l 1,14,-1
 133 528 l 1,15,-1
 133 596 l 2,16,17
 133 625 133 625 144.5 651 c 128,-1,18
 156 677 156 677 175 696 c 128,-1,19
 194 715 194 715 219.5 726 c 128,-1,20
 245 737 245 737 274 737 c 2,21,-1
 764 737 l 1,22,-1
 764 603 l 1,23,-1
 274 603 l 2,24,25
 267 603 267 603 267 596 c 2,26,-1
 267 528 l 1,27,-1
 658 528 l 1,28,-1
 658 394 l 1,29,-1
 267 394 l 1,30,-1
 267 336 l 1,31,-1
 658 336 l 1,32,-1
 658 202 l 1,33,-1
 267 202 l 1,34,-1
 267 141 l 2,35,36
 267 134 267 134 274 134 c 2,37,-1
 764 134 l 1,0,-1
EndSplineSet
EndChar

StartChar: F
Encoding: 70 70 24
Width: 740
Flags: W
HStem: 0 21G<59 196> 301 135<196 632> 602 135<196 737>
VStem: 59 137<0 301 436 602>
LayerCount: 2
Fore
SplineSet
737 737 m 1,0,-1
 737 602 l 1,1,-1
 196 602 l 1,2,-1
 196 436 l 1,3,-1
 632 436 l 1,4,-1
 632 301 l 1,5,-1
 196 301 l 1,6,-1
 196 0 l 1,7,-1
 59 0 l 1,8,-1
 59 737 l 1,9,-1
 737 737 l 1,0,-1
EndSplineSet
EndChar

StartChar: G
Encoding: 71 71 25
Width: 849
Flags: W
HStem: 0 135<193.485 657.515> 282 135<492 658> 602 135<193.485 657.515>
VStem: 57 136<135.686 601.515> 658 137<135.485 282 538 601.515>
LayerCount: 2
Fore
SplineSet
795 538 m 1,0,-1
 658 538 l 1,1,-1
 658 595 l 2,2,3
 658 602 658 602 651 602 c 2,4,-1
 200 602 l 2,5,6
 193 602 193 602 193 595 c 2,7,-1
 193 142 l 2,8,9
 193 135 193 135 200 135 c 2,10,-1
 651 135 l 2,11,12
 658 135 658 135 658 142 c 2,13,-1
 658 282 l 1,14,-1
 492 282 l 1,15,-1
 492 417 l 1,16,-1
 795 417 l 1,17,-1
 795 142 l 2,18,19
 795 112 795 112 783.5 86 c 128,-1,20
 772 60 772 60 752.5 41.5 c 128,-1,21
 733 23 733 23 707 11.5 c 128,-1,22
 681 0 681 0 651 0 c 2,23,-1
 200 0 l 2,24,25
 170 0 170 0 144 11.5 c 128,-1,26
 118 23 118 23 99 41.5 c 128,-1,27
 80 60 80 60 68.5 86.5 c 128,-1,28
 57 113 57 113 57 142 c 2,29,-1
 57 595 l 2,30,31
 57 625 57 625 68.5 651 c 128,-1,32
 80 677 80 677 99 696 c 128,-1,33
 118 715 118 715 144 726 c 128,-1,34
 170 737 170 737 200 737 c 2,35,-1
 651 737 l 2,36,37
 681 737 681 737 707 726 c 128,-1,38
 733 715 733 715 752.5 696 c 128,-1,39
 772 677 772 677 783.5 651 c 128,-1,40
 795 625 795 625 795 595 c 2,41,-1
 795 538 l 1,0,-1
EndSplineSet
EndChar

StartChar: H
Encoding: 72 72 26
Width: 871
Flags: W
HStem: 0 21G<58 194 677 812> 301 135<194 677> 717 20G<58 194 677 812>
VStem: 58 136<0 301 436 737> 677 135<0 301 436 737>
LayerCount: 2
Fore
SplineSet
812 737 m 1,0,-1
 812 0 l 1,1,-1
 677 0 l 1,2,-1
 677 301 l 1,3,-1
 194 301 l 1,4,-1
 194 0 l 1,5,-1
 58 0 l 1,6,-1
 58 737 l 1,7,-1
 194 737 l 1,8,-1
 194 436 l 1,9,-1
 677 436 l 1,10,-1
 677 737 l 1,11,-1
 812 737 l 1,0,-1
EndSplineSet
EndChar

StartChar: I
Encoding: 73 73 27
Width: 225
Flags: W
HStem: 0 21G<58 194> 717 20G<58 194>
VStem: 58 136<0 737>
LayerCount: 2
Fore
SplineSet
58 737 m 1,0,-1
 194 737 l 1,1,-1
 194 0 l 1,2,-1
 58 0 l 1,3,-1
 58 737 l 1,0,-1
EndSplineSet
Substitution2: "'salt' Stylistic Alternatives in Latin lookup 2 subtable" I.alt
Substitution2: "'aalt' Access All Alternates in Latin lookup 0 subtable" I.alt
EndChar

StartChar: I.alt
Encoding: 65541 -1 28
Width: 837
Flags: W
HStem: 0 135<50 351 486 787> 602 135<50 351 486 787>
VStem: 351 135<135 602>
LayerCount: 2
Fore
SplineSet
787 602 m 1,0,-1
 486 602 l 1,1,-1
 486 135 l 1,2,-1
 787 135 l 1,3,-1
 787 0 l 1,4,-1
 50 0 l 1,5,-1
 50 135 l 1,6,-1
 351 135 l 1,7,-1
 351 602 l 1,8,-1
 50 602 l 1,9,-1
 50 737 l 1,10,-1
 787 737 l 1,11,-1
 787 602 l 1,0,-1
EndSplineSet
EndChar

StartChar: J
Encoding: 74 74 33
Width: 798
Flags: W
HStem: 0 135<139.491 604.411> 717 20G<605 741>
VStem: 4 135<135.686 226> 605 136<135.485 737>
LayerCount: 2
Fore
SplineSet
605 737 m 1,0,-1
 741 737 l 1,1,-1
 741 142 l 2,2,3
 741 112 741 112 730 86 c 128,-1,4
 719 60 719 60 699.5 41.5 c 128,-1,5
 680 23 680 23 654 11.5 c 128,-1,6
 628 0 628 0 599 0 c 2,7,-1
 146 0 l 2,8,9
 116 0 116 0 90.5 11.5 c 128,-1,10
 65 23 65 23 46 41.5 c 128,-1,11
 27 60 27 60 15.5 86.5 c 128,-1,12
 4 113 4 113 4 142 c 2,13,-1
 4 226 l 1,14,-1
 139 226 l 1,15,-1
 139 142 l 2,16,17
 139 135 139 135 146 135 c 2,18,-1
 599 135 l 2,19,20
 605 135 605 135 605 142 c 2,21,-1
 605 737 l 1,0,-1
EndSplineSet
Substitution2: "'salt' Stylistic Alternatives in Latin lookup 2 subtable" J.alt
Substitution2: "'aalt' Access All Alternates in Latin lookup 0 subtable" J.alt
EndChar

StartChar: J.alt
Encoding: 65542 -1 34
Width: 660
Flags: W
HStem: 0 135<3 476.515> 717 20G<477 613>
VStem: 477 136<135.485 737>
LayerCount: 2
Fore
SplineSet
477 737 m 1,0,-1
 613 737 l 1,1,-1
 613 142 l 2,2,3
 613 112 613 112 602 86 c 128,-1,4
 591 60 591 60 571.5 41.5 c 128,-1,5
 552 23 552 23 526 11.5 c 128,-1,6
 500 0 500 0 470 0 c 2,7,-1
 3 0 l 1,8,-1
 3 135 l 1,9,-1
 470 135 l 2,10,11
 477 135 477 135 477 142 c 2,12,-1
 477 737 l 1,0,-1
EndSplineSet
EndChar

StartChar: K
Encoding: 75 75 35
Width: 816
Flags: W
HStem: 0 21G<58 195 604.256 769> 301 135<195 369> 717 20G<58 195 590 769>
VStem: 58 137<0 301 436 737>
LayerCount: 2
Fore
SplineSet
769 737 m 1,0,-1
 769 701 l 1,1,-1
 490 369 l 1,2,-1
 769 36 l 1,3,-1
 769 0 l 1,4,-1
 621 0 l 1,5,-1
 369 301 l 1,6,-1
 195 301 l 1,7,-1
 195 0 l 1,8,-1
 58 0 l 1,9,-1
 58 737 l 1,10,-1
 195 737 l 1,11,-1
 195 436 l 1,12,-1
 369 436 l 1,13,14
 430 510 430 510 494.5 587 c 128,-1,15
 559 664 559 664 621 737 c 1,16,-1
 769 737 l 1,0,-1
EndSplineSet
Substitution2: "'salt' Stylistic Alternatives in Latin lookup 2 subtable" K.alt
Substitution2: "'aalt' Access All Alternates in Latin lookup 0 subtable" K.alt
EndChar

StartChar: K.alt
Encoding: 65543 -1 36
Width: 848
Flags: W
HStem: 0 21G<55 190 656 793> 298 135<190.033 655.932> 717 20G<55 190 657 794>
VStem: 55 135<0 298 433 737> 657 137<0 297.875 433.344 737>
LayerCount: 2
Fore
SplineSet
657 737 m 1,0,-1
 794 737 l 1,1,-1
 794 460 l 2,2,3
 794 432 794 432 772 406 c 128,-1,4
 750 380 750 380 713 366 c 1,5,6
 750 351 750 351 771.5 324.5 c 128,-1,7
 793 298 793 298 793 271 c 2,8,-1
 793 0 l 1,9,-1
 656 0 l 1,10,-1
 656 291 l 2,11,12
 656 298 656 298 650 298 c 2,13,-1
 198 298 l 2,14,15
 191 298 191 298 190 291 c 2,16,-1
 190 0 l 1,17,-1
 55 0 l 1,18,-1
 55 737 l 1,19,-1
 190 737 l 1,20,-1
 190 440 l 2,21,22
 190 433 190 433 198 433 c 2,23,-1
 650 433 l 2,24,25
 657 433 657 433 657 440 c 2,26,-1
 657 737 l 1,0,-1
EndSplineSet
EndChar

StartChar: L
Encoding: 76 76 37
Width: 797
Flags: W
HStem: 0 135<194 796> 718 20G<58 194>
VStem: 58 136<135 738>
LayerCount: 2
Fore
SplineSet
58 738 m 1,0,-1
 194 738 l 1,1,-1
 194 135 l 1,2,-1
 796 135 l 1,3,-1
 796 0 l 1,4,-1
 58 0 l 1,5,-1
 58 738 l 1,0,-1
EndSplineSet
EndChar

StartChar: M
Encoding: 77 77 38
Width: 950
Flags: W
HStem: 0 21G<57 193 753 889> 717 20G<57 221.803 723.26 889>
VStem: 57 136<0 541> 753 136<0 541>
LayerCount: 2
Fore
SplineSet
740 737 m 1,0,-1
 889 737 l 1,1,-1
 889 0 l 1,2,-1
 753 0 l 1,3,-1
 753 541 l 1,4,-1
 473 208 l 1,5,-1
 193 541 l 1,6,-1
 193 0 l 1,7,-1
 57 0 l 1,8,-1
 57 737 l 1,9,-1
 205 737 l 1,10,-1
 473 418 l 1,11,-1
 740 737 l 1,0,-1
EndSplineSet
Substitution2: "'salt' Stylistic Alternatives in Latin lookup 2 subtable" M.alt
Substitution2: "'aalt' Access All Alternates in Latin lookup 0 subtable" M.alt
EndChar

StartChar: M.alt
Encoding: 65544 -1 39
Width: 1182
Flags: W
HStem: 0 21G<55 190 506 641 979 1115> 602 135<190 505.998 641 978.411>
VStem: 55 135<0 602> 506 135<0 602> 979 136<0 601.515>
LayerCount: 2
Fore
SplineSet
973 737 m 2,0,1
 1002 737 1002 737 1028 726 c 128,-1,2
 1054 715 1054 715 1073.5 696 c 128,-1,3
 1093 677 1093 677 1104 651 c 128,-1,4
 1115 625 1115 625 1115 595 c 2,5,-1
 1115 0 l 1,6,-1
 979 0 l 1,7,-1
 979 595 l 2,8,9
 979 602 979 602 973 602 c 2,10,-1
 641 602 l 1,11,-1
 641 0 l 1,12,-1
 506 0 l 1,13,-1
 506 595 l 2,14,15
 506 602 506 602 499 602 c 2,16,-1
 190 602 l 1,17,-1
 190 0 l 1,18,-1
 55 0 l 1,19,-1
 55 737 l 1,20,-1
 973 737 l 2,0,1
EndSplineSet
EndChar

StartChar: N
Encoding: 78 78 40
Width: 851
Flags: W
HStem: 0 21G<57 193 630.216 795> 717 20G<57 221.778 658 795>
VStem: 57 136<0 541> 658 137<197 737>
LayerCount: 2
Fore
SplineSet
658 737 m 1,0,-1
 795 737 l 1,1,-1
 795 0 l 1,2,-1
 647 0 l 1,3,-1
 193 541 l 1,4,-1
 193 0 l 1,5,-1
 57 0 l 1,6,-1
 57 737 l 1,7,-1
 205 737 l 1,8,-1
 658 197 l 1,9,-1
 658 737 l 1,0,-1
EndSplineSet
Substitution2: "'salt' Stylistic Alternatives in Latin lookup 2 subtable" N.alt
Substitution2: "'aalt' Access All Alternates in Latin lookup 0 subtable" N.alt
EndChar

StartChar: N.alt
Encoding: 65545 -1 41
Width: 846
Flags: W
HStem: 0 21G<55 190 656 793> 602 135<190 655.411>
VStem: 55 135<0 602> 656 137<0 601.515>
LayerCount: 2
Fore
SplineSet
55 0 m 1,0,-1
 55 737 l 1,1,-1
 650 737 l 2,2,3
 679 737 679 737 705 726 c 128,-1,4
 731 715 731 715 750.5 696 c 128,-1,5
 770 677 770 677 781.5 651 c 128,-1,6
 793 625 793 625 793 595 c 2,7,-1
 793 0 l 1,8,-1
 656 0 l 1,9,-1
 656 595 l 2,10,11
 656 602 656 602 650 602 c 2,12,-1
 190 602 l 1,13,-1
 190 0 l 1,14,-1
 55 0 l 1,0,-1
EndSplineSet
EndChar

StartChar: O
Encoding: 79 79 43
Width: 847
Flags: W
HStem: 0 135<190.562 655.411> 602 135<190.562 655.411>
VStem: 55 135<135.686 601.515> 656 137<135.485 601.515>
LayerCount: 2
Fore
SplineSet
650 737 m 2,0,1
 679 737 679 737 705 726 c 128,-1,2
 731 715 731 715 750.5 696 c 128,-1,3
 770 677 770 677 781.5 651 c 128,-1,4
 793 625 793 625 793 595 c 2,5,-1
 793 142 l 2,6,7
 793 112 793 112 781.5 86 c 128,-1,8
 770 60 770 60 750.5 41.5 c 128,-1,9
 731 23 731 23 705 11.5 c 128,-1,10
 679 0 679 0 650 0 c 2,11,-1
 198 0 l 2,12,13
 168 0 168 0 142 11.5 c 128,-1,14
 116 23 116 23 97 41.5 c 128,-1,15
 78 60 78 60 66.5 86.5 c 128,-1,16
 55 113 55 113 55 142 c 2,17,-1
 55 595 l 2,18,19
 55 625 55 625 66.5 651 c 128,-1,20
 78 677 78 677 97 696 c 128,-1,21
 116 715 116 715 142 726 c 128,-1,22
 168 737 168 737 198 737 c 2,23,-1
 650 737 l 2,0,1
650 135 m 2,24,25
 656 135 656 135 656 142 c 2,26,-1
 656 595 l 2,27,28
 656 602 656 602 650 602 c 2,29,-1
 198 602 l 2,30,31
 191 602 191 602 190 595 c 2,32,-1
 190 142 l 2,33,34
 190 135 190 135 198 135 c 2,35,-1
 650 135 l 2,24,25
EndSplineSet
Substitution2: "'salt' Stylistic Alternatives in Latin lookup 2 subtable" O.alt
Substitution2: "'aalt' Access All Alternates in Latin lookup 0 subtable" O.alt
EndChar

StartChar: O.alt
Encoding: 65546 -1 44
Width: 843
Flags: W
HStem: 0 135<188.562 653.411> 301 135<354 489> 602 135<188.562 653.411>
VStem: 53 135<135.686 601.515> 354 135<301 436> 654 137<135.485 601.515>
CounterMasks: 1 e0
LayerCount: 2
Fore
SplineSet
648 737 m 2,0,1
 677 737 677 737 703 726 c 128,-1,2
 729 715 729 715 748.5 696 c 128,-1,3
 768 677 768 677 779.5 651 c 128,-1,4
 791 625 791 625 791 595 c 2,5,-1
 791 142 l 2,6,7
 791 112 791 112 779.5 86 c 128,-1,8
 768 60 768 60 748.5 41.5 c 128,-1,9
 729 23 729 23 703 11.5 c 128,-1,10
 677 0 677 0 648 0 c 2,11,-1
 196 0 l 2,12,13
 166 0 166 0 140 11.5 c 128,-1,14
 114 23 114 23 95 41.5 c 128,-1,15
 76 60 76 60 64.5 86.5 c 128,-1,16
 53 113 53 113 53 142 c 2,17,-1
 53 595 l 2,18,19
 53 625 53 625 64.5 651 c 128,-1,20
 76 677 76 677 95 696 c 128,-1,21
 114 715 114 715 140 726 c 128,-1,22
 166 737 166 737 196 737 c 2,23,-1
 648 737 l 2,0,1
654 595 m 2,24,25
 654 602 654 602 648 602 c 2,26,-1
 196 602 l 2,27,28
 189 602 189 602 188 595 c 2,29,-1
 188 142 l 2,30,31
 188 135 188 135 196 135 c 2,32,-1
 648 135 l 2,33,34
 654 135 654 135 654 142 c 2,35,-1
 654 595 l 2,24,25
354 301 m 1,36,-1
 354 436 l 1,37,-1
 489 436 l 1,38,-1
 489 301 l 1,39,-1
 354 301 l 1,36,-1
EndSplineSet
EndChar

StartChar: OE
Encoding: 338 338 45
Width: 1406
Flags: W
HStem: 0 135<190.491 656 792 1334> 301 135<792 1228> 602 135<190.491 656 792 1334>
VStem: 54 136<135.686 601.515> 656 136<135 301 436 602>
CounterMasks: 1 e0
LayerCount: 2
Fore
SplineSet
792 436 m 1,0,-1
 1228 436 l 1,1,-1
 1228 301 l 1,2,-1
 792 301 l 1,3,-1
 792 135 l 1,4,-1
 1334 135 l 1,5,-1
 1334 0 l 1,6,-1
 197 0 l 2,7,8
 167 0 167 0 141.5 11.5 c 128,-1,9
 116 23 116 23 96.5 41.5 c 128,-1,10
 77 60 77 60 65.5 86.5 c 128,-1,11
 54 113 54 113 54 142 c 2,12,-1
 54 595 l 2,13,14
 54 625 54 625 65.5 651 c 128,-1,15
 77 677 77 677 96.5 696 c 128,-1,16
 116 715 116 715 141.5 726 c 128,-1,17
 167 737 167 737 197 737 c 2,18,-1
 1334 737 l 1,19,-1
 1334 602 l 1,20,-1
 792 602 l 1,21,-1
 792 436 l 1,0,-1
649 135 m 2,22,23
 656 135 656 135 656 142 c 2,24,-1
 656 595 l 2,25,26
 656 602 656 602 649 602 c 2,27,-1
 197 602 l 2,28,29
 191 602 191 602 190 595 c 2,30,-1
 190 142 l 2,31,32
 190 135 190 135 197 135 c 2,33,-1
 649 135 l 2,22,23
EndSplineSet
EndChar

StartChar: P
Encoding: 80 80 51
Width: 809
Flags: W
HStem: 0 21G<57 193> 252 136<196 657.515> 601 135<193.002 657.515>
VStem: 57 136<0 253 388 601> 658 137<388.491 600.308>
LayerCount: 2
Fore
SplineSet
651 736 m 2,0,1
 681 736 681 736 707 725 c 128,-1,2
 733 714 733 714 752.5 694.5 c 128,-1,3
 772 675 772 675 783.5 649 c 128,-1,4
 795 623 795 623 795 594 c 2,5,-1
 795 395 l 2,6,7
 795 365 795 365 783.5 339.5 c 128,-1,8
 772 314 772 314 752.5 294.5 c 128,-1,9
 733 275 733 275 707 264 c 128,-1,10
 681 253 681 253 651 253 c 2,11,-1
 196 252 l 1,12,-1
 193 253 l 1,13,-1
 193 0 l 1,14,-1
 57 0 l 1,15,-1
 57 736 l 1,16,-1
 651 736 l 2,0,1
658 594 m 2,17,18
 658 601 658 601 651 601 c 2,19,-1
 200 601 l 2,20,21
 193 601 193 601 193 594 c 2,22,-1
 193 395 l 2,23,24
 193 388 193 388 200 388 c 2,25,-1
 651 388 l 2,26,27
 658 388 658 388 658 395 c 2,28,-1
 658 594 l 2,17,18
EndSplineSet
EndChar

StartChar: Q
Encoding: 81 81 52
Width: 905
Flags: W
HStem: 0 135<190.562 656 793 881> 602 135<190.562 655.515>
VStem: 55 135<135.686 601.515> 656 137<135 601.515>
LayerCount: 2
Fore
SplineSet
881 135 m 1,0,-1
 881 0 l 1,1,-1
 198 0 l 2,2,3
 168 0 168 0 142 11.5 c 128,-1,4
 116 23 116 23 97 41.5 c 128,-1,5
 78 60 78 60 66.5 86.5 c 128,-1,6
 55 113 55 113 55 142 c 2,7,-1
 55 595 l 2,8,9
 55 625 55 625 66.5 651 c 128,-1,10
 78 677 78 677 97 696 c 128,-1,11
 116 715 116 715 142 726 c 128,-1,12
 168 737 168 737 198 737 c 2,13,-1
 649 737 l 2,14,15
 679 737 679 737 705 726 c 128,-1,16
 731 715 731 715 750.5 696 c 128,-1,17
 770 677 770 677 781.5 651 c 128,-1,18
 793 625 793 625 793 595 c 2,19,-1
 793 135 l 1,20,-1
 881 135 l 1,0,-1
649 135 m 2,21,22
 656 135 656 135 656 142 c 2,23,-1
 656 595 l 2,24,25
 656 602 656 602 649 602 c 2,26,-1
 198 602 l 2,27,28
 191 602 191 602 190 595 c 2,29,-1
 190 142 l 2,30,31
 190 135 190 135 198 135 c 2,32,-1
 649 135 l 2,21,22
EndSplineSet
Substitution2: "'salt' Stylistic Alternatives in Latin lookup 2 subtable" Q.alt
Substitution2: "'aalt' Access All Alternates in Latin lookup 0 subtable" Q.alt
EndChar

StartChar: Q.alt
Encoding: 65547 -1 53
Width: 888
Flags: W
HStem: 0 135<190.562 355 492 655.411> 602 135<190.562 655.411>
VStem: 55 135<135.686 601.515> 355 137<-106 0> 656 137<135.485 601.515>
LayerCount: 2
Fore
SplineSet
650 737 m 2,0,1
 679 737 679 737 705 726 c 128,-1,2
 731 715 731 715 750.5 696 c 128,-1,3
 770 677 770 677 781.5 651 c 128,-1,4
 793 625 793 625 793 595 c 2,5,-1
 793 142 l 2,6,7
 793 112 793 112 781.5 86 c 128,-1,8
 770 60 770 60 750.5 41.5 c 128,-1,9
 731 23 731 23 705 11.5 c 128,-1,10
 679 0 679 0 650 0 c 2,11,-1
 492 0 l 1,12,-1
 492 -106 l 1,13,-1
 355 -106 l 1,14,-1
 355 0 l 1,15,-1
 198 0 l 2,16,17
 168 0 168 0 142 11.5 c 128,-1,18
 116 23 116 23 97 41.5 c 128,-1,19
 78 60 78 60 66.5 86.5 c 128,-1,20
 55 113 55 113 55 142 c 2,21,-1
 55 595 l 2,22,23
 55 625 55 625 66.5 651 c 128,-1,24
 78 677 78 677 97 696 c 128,-1,25
 116 715 116 715 142 726 c 128,-1,26
 168 737 168 737 198 737 c 2,27,-1
 650 737 l 2,0,1
656 595 m 2,28,29
 656 602 656 602 650 602 c 2,30,-1
 198 602 l 2,31,32
 191 602 191 602 190 595 c 2,33,-1
 190 142 l 2,34,35
 190 135 190 135 198 135 c 2,36,-1
 650 135 l 2,37,38
 656 135 656 135 656 142 c 2,39,-1
 656 595 l 2,28,29
EndSplineSet
EndChar

StartChar: R
Encoding: 82 82 54
Width: 844
Flags: W
HStem: 0 21G<56 191 629.162 794> 253 135<191.002 433 610 656.515> 601 135<191.033 656.515>
VStem: 56 135<0 253 388 601> 657 137<388.491 600.308>
LayerCount: 2
Fore
SplineSet
794 395 m 2,0,1
 794 365 794 365 782.5 339.5 c 128,-1,2
 771 314 771 314 751.5 294.5 c 128,-1,3
 732 275 732 275 706 264 c 128,-1,4
 680 253 680 253 650 253 c 2,5,-1
 610 253 l 1,6,-1
 794 35 l 1,7,-1
 794 0 l 1,8,-1
 646 0 l 1,9,-1
 433 253 l 1,10,-1
 195 253 l 1,11,-1
 191 253 l 1,12,-1
 191 0 l 1,13,-1
 56 0 l 1,14,-1
 56 736 l 1,15,-1
 650 736 l 2,16,17
 680 736 680 736 706 725 c 128,-1,18
 732 714 732 714 751.5 694.5 c 128,-1,19
 771 675 771 675 782.5 649 c 128,-1,20
 794 623 794 623 794 594 c 2,21,-1
 794 395 l 2,0,1
650 388 m 2,22,23
 657 388 657 388 657 395 c 2,24,-1
 657 594 l 2,25,26
 657 601 657 601 650 601 c 2,27,-1
 199 601 l 2,28,29
 192 601 192 601 191 594 c 2,30,-1
 191 395 l 2,31,32
 191 388 191 388 199 388 c 2,33,-1
 650 388 l 2,22,23
EndSplineSet
Substitution2: "'salt' Stylistic Alternatives in Latin lookup 2 subtable" R.alt
Substitution2: "'aalt' Access All Alternates in Latin lookup 0 subtable" R.alt
EndChar

StartChar: R.alt
Encoding: 65548 -1 55
Width: 845
Flags: W
HStem: 0 21G<55 190 656 793> 253 135<190.033 655.999> 601 136<190.033 655.411>
VStem: 55 135<0 253 388 601> 656 137<0 252.218 388.587 600.308>
LayerCount: 2
Fore
SplineSet
793 395 m 2,0,1
 793 365 793 365 777.5 347.5 c 128,-1,2
 762 330 762 330 740 321 c 1,3,4
 762 312 762 312 777.5 293.5 c 128,-1,5
 793 275 793 275 793 246 c 2,6,-1
 793 0 l 1,7,-1
 656 0 l 1,8,-1
 656 246 l 2,9,10
 656 253 656 253 650 253 c 2,11,-1
 198 253 l 2,12,13
 191 253 191 253 190 246 c 2,14,-1
 190 0 l 1,15,-1
 55 0 l 1,16,-1
 55 737 l 1,17,-1
 650 736 l 2,18,19
 679 736 679 736 705 725 c 128,-1,20
 731 714 731 714 750.5 694.5 c 128,-1,21
 770 675 770 675 781.5 649 c 128,-1,22
 793 623 793 623 793 594 c 2,23,-1
 793 395 l 2,0,1
198 601 m 2,24,25
 191 601 191 601 190 594 c 2,26,-1
 190 395 l 2,27,28
 190 388 190 388 198 388 c 2,29,-1
 650 388 l 2,30,31
 656 388 656 388 656 395 c 2,32,-1
 656 594 l 2,33,34
 656 601 656 601 650 601 c 2,35,-1
 198 601 l 2,24,25
EndSplineSet
EndChar

StartChar: S
Encoding: 83 83 56
Width: 841
Flags: W
HStem: 0 135<187.562 652.411> 301 135<187.562 652.411> 602 135<187.562 652.411>
VStem: 52 135<135.686 199 436.686 601.515> 653 137<135.485 300.515 539 601.515>
CounterMasks: 1 e0
LayerCount: 2
Fore
SplineSet
790 539 m 1,0,-1
 653 539 l 1,1,-1
 653 595 l 2,2,3
 653 602 653 602 647 602 c 2,4,-1
 195 602 l 2,5,6
 188 602 188 602 187 595 c 2,7,-1
 187 443 l 2,8,9
 187 436 187 436 195 436 c 2,10,-1
 647 436 l 2,11,12
 676 436 676 436 702 425 c 128,-1,13
 728 414 728 414 747.5 395 c 128,-1,14
 767 376 767 376 778.5 350 c 128,-1,15
 790 324 790 324 790 294 c 2,16,-1
 790 142 l 2,17,18
 790 112 790 112 778.5 86 c 128,-1,19
 767 60 767 60 747.5 41.5 c 128,-1,20
 728 23 728 23 702 11.5 c 128,-1,21
 676 0 676 0 647 0 c 2,22,-1
 195 0 l 2,23,24
 165 0 165 0 139 11.5 c 128,-1,25
 113 23 113 23 94 41.5 c 128,-1,26
 75 60 75 60 63.5 86.5 c 128,-1,27
 52 113 52 113 52 142 c 2,28,-1
 52 199 l 1,29,-1
 187 199 l 1,30,-1
 187 142 l 2,31,32
 187 135 187 135 195 135 c 2,33,-1
 647 135 l 2,34,35
 653 135 653 135 653 142 c 2,36,-1
 653 294 l 2,37,38
 653 301 653 301 647 301 c 2,39,-1
 195 301 l 2,40,41
 165 301 165 301 139 312.5 c 128,-1,42
 113 324 113 324 94 342.5 c 128,-1,43
 75 361 75 361 63.5 387.5 c 128,-1,44
 52 414 52 414 52 443 c 2,45,-1
 52 595 l 2,46,47
 52 625 52 625 63.5 651 c 128,-1,48
 75 677 75 677 94 696 c 128,-1,49
 113 715 113 715 139 726 c 128,-1,50
 165 737 165 737 195 737 c 2,51,-1
 647 737 l 2,52,53
 676 737 676 737 702 726 c 128,-1,54
 728 715 728 715 747.5 696 c 128,-1,55
 767 677 767 677 778.5 651 c 128,-1,56
 790 625 790 625 790 595 c 2,57,-1
 790 539 l 1,0,-1
EndSplineSet
Substitution2: "'salt' Stylistic Alternatives in Latin lookup 2 subtable" S.alt
Substitution2: "'aalt' Access All Alternates in Latin lookup 0 subtable" S.alt
EndChar

StartChar: S.alt
Encoding: 65549 -1 57
Width: 831
Flags: W
HStem: 0 135<47 647.411> 301 135<182.491 647.411> 602 135<182.692 784>
VStem: 47 135<436.686 601.515> 648 136<135.485 300.515>
CounterMasks: 1 e0
LayerCount: 2
Fore
SplineSet
642 436 m 2,0,1
 671 436 671 436 697 425 c 128,-1,2
 723 414 723 414 742.5 395 c 128,-1,3
 762 376 762 376 773 350 c 128,-1,4
 784 324 784 324 784 294 c 2,5,-1
 784 142 l 2,6,7
 784 112 784 112 773 86 c 128,-1,8
 762 60 762 60 742.5 41.5 c 128,-1,9
 723 23 723 23 697 11.5 c 128,-1,10
 671 0 671 0 642 0 c 2,11,-1
 47 0 l 1,12,-1
 47 135 l 1,13,-1
 642 135 l 2,14,15
 648 135 648 135 648 142 c 2,16,-1
 648 294 l 2,17,18
 648 301 648 301 642 301 c 2,19,-1
 189 301 l 2,20,21
 159 301 159 301 133.5 312.5 c 128,-1,22
 108 324 108 324 89 342.5 c 128,-1,23
 70 361 70 361 58.5 387.5 c 128,-1,24
 47 414 47 414 47 443 c 2,25,-1
 47 595 l 2,26,27
 47 625 47 625 58.5 651 c 128,-1,28
 70 677 70 677 89 696 c 128,-1,29
 108 715 108 715 134 726 c 128,-1,30
 160 737 160 737 189 737 c 2,31,-1
 784 737 l 1,32,-1
 784 602 l 1,33,-1
 189 602 l 2,34,35
 182 602 182 602 182 595 c 2,36,-1
 182 443 l 2,37,38
 182 436 182 436 189 436 c 2,39,-1
 642 436 l 2,0,1
EndSplineSet
EndChar

StartChar: T
Encoding: 84 84 59
Width: 777
Flags: W
HStem: 0 21G<322 458> 602 135<20 322 458 758>
VStem: 322 136<0 602>
LayerCount: 2
Fore
SplineSet
758 737 m 1,0,-1
 758 602 l 1,1,-1
 458 602 l 1,2,-1
 458 0 l 1,3,-1
 322 0 l 1,4,-1
 322 602 l 1,5,-1
 20 602 l 1,6,-1
 20 737 l 1,7,-1
 758 737 l 1,0,-1
EndSplineSet
EndChar

StartChar: U
Encoding: 85 85 60
Width: 847
Flags: W
HStem: 0 135<190.562 655.411> 717 20G<55 190 656 793>
VStem: 55 135<135.686 737> 656 137<135.485 737>
LayerCount: 2
Fore
SplineSet
656 737 m 1,0,-1
 793 737 l 1,1,-1
 793 142 l 2,2,3
 793 112 793 112 781.5 86 c 128,-1,4
 770 60 770 60 750.5 41.5 c 128,-1,5
 731 23 731 23 705 11.5 c 128,-1,6
 679 0 679 0 650 0 c 2,7,-1
 198 0 l 2,8,9
 168 0 168 0 142 11.5 c 128,-1,10
 116 23 116 23 97 41.5 c 128,-1,11
 78 60 78 60 66.5 86.5 c 128,-1,12
 55 113 55 113 55 142 c 2,13,-1
 55 737 l 1,14,-1
 190 737 l 1,15,-1
 190 142 l 2,16,17
 190 135 190 135 198 135 c 2,18,-1
 650 135 l 2,19,20
 656 135 656 135 656 142 c 2,21,-1
 656 737 l 1,0,-1
EndSplineSet
EndChar

StartChar: V
Encoding: 86 86 65
Width: 1027
Flags: W
HStem: 0 21G<450.44 595.56> 717 20G<36 204.518 841.482 1010>
LayerCount: 2
Fore
SplineSet
853 737 m 1,0,-1
 1010 737 l 1,1,-1
 584 0 l 1,2,-1
 462 0 l 1,3,-1
 36 737 l 1,4,-1
 193 737 l 1,5,-1
 523 164 l 1,6,-1
 853 737 l 1,0,-1
EndSplineSet
Substitution2: "'ss02' Style Set 2 in Latin lookup 5 subtable" V.alt2
Substitution2: "'ss01' Style Set 1 in Latin lookup 4 subtable" V.alt
Substitution2: "'salt' Stylistic Alternatives in Latin lookup 2 subtable" V.alt3
AlternateSubs2: "'aalt' Access All Alternates in Latin lookup 1 subtable" V.alt3 V.alt V.alt2
EndChar

StartChar: V.alt
Encoding: 57354 57354 66
Width: 792
Flags: W
HStem: 0 21G<55 218.753> 717 20G<55 189 584 785>
VStem: 55 134<195 737>
LayerCount: 2
Fore
SplineSet
189 737 m 1,0,-1
 189 195 l 1,1,2
 302 329 302 329 415 466 c 128,-1,3
 528 603 528 603 640 737 c 1,4,-1
 785 737 l 1,5,-1
 785 696 l 1,6,-1
 202 0 l 1,7,-1
 55 0 l 1,8,-1
 55 737 l 1,9,-1
 189 737 l 1,0,-1
EndSplineSet
EndChar

StartChar: V.alt2
Encoding: 65550 -1 67
Width: 792
Flags: W
HStem: 0 21G<573.191 737> 717 20G<0 163.815 601 737>
VStem: 601 136<197 737>
LayerCount: 2
Fore
SplineSet
601 737 m 1,0,-1
 737 737 l 1,1,-1
 737 0 l 1,2,-1
 590 0 l 1,3,-1
 0 702 l 1,4,-1
 0 737 l 1,5,-1
 147 737 l 1,6,-1
 601 197 l 1,7,-1
 601 737 l 1,0,-1
EndSplineSet
EndChar

StartChar: V.alt3
Encoding: 65551 -1 68
Width: 846
Flags: W
HStem: 0 135<189.562 655> 717 20G<54 189 655 792>
VStem: 54 135<135.686 737> 655 137<135 737>
LayerCount: 2
Fore
SplineSet
792 737 m 1,0,-1
 792 0 l 1,1,-1
 197 0 l 2,2,3
 167 0 167 0 141 11.5 c 128,-1,4
 115 23 115 23 96 41.5 c 128,-1,5
 77 60 77 60 65.5 86.5 c 128,-1,6
 54 113 54 113 54 142 c 2,7,-1
 54 737 l 1,8,-1
 189 737 l 1,9,-1
 189 142 l 2,10,11
 189 135 189 135 197 135 c 2,12,-1
 655 135 l 1,13,-1
 655 737 l 1,14,-1
 792 737 l 1,0,-1
EndSplineSet
EndChar

StartChar: W
Encoding: 87 87 69
Width: 1207
Flags: W
HStem: 0 21G<296.727 433 785.658 906.273> 717 20G<36 186.325 528.634 675.325 1016.67 1167>
LayerCount: 2
Fore
SplineSet
1167 737 m 1,0,-1
 899 0 l 1,1,-1
 793 0 l 1,2,-1
 601 523 l 1,3,4
 554 393 554 393 505 261 c 128,-1,5
 456 129 456 129 410 0 c 1,6,-1
 304 0 l 1,7,-1
 36 737 l 1,8,-1
 179 737 l 1,9,-1
 357 251 l 1,10,-1
 536 737 l 1,11,-1
 668 737 l 1,12,-1
 846 251 l 1,13,-1
 1024 737 l 1,14,-1
 1167 737 l 1,0,-1
EndSplineSet
Substitution2: "'ss02' Style Set 2 in Latin lookup 5 subtable" W.alt2
Substitution2: "'ss01' Style Set 1 in Latin lookup 4 subtable" W.alt
Substitution2: "'salt' Stylistic Alternatives in Latin lookup 2 subtable" W.alt4
AlternateSubs2: "'aalt' Access All Alternates in Latin lookup 1 subtable" W.alt4 W.alt W.alt2
EndChar

StartChar: W.alt
Encoding: 65552 -1 70
Width: 1176
Flags: W
HStem: 0 21G<67 240.5 438 602.809> 717 20G<67 202 600 804 972 1176>
VStem: 67 135<197 737> 438 136<197 268>
LayerCount: 2
Fore
SplineSet
1176 737 m 1,0,-1
 1176 702 l 1,1,-1
 586 0 l 1,2,-1
 438 0 l 1,3,-1
 438 268 l 1,4,5
 384 203 384 203 325.5 133 c 128,-1,6
 267 63 267 63 214 0 c 1,7,-1
 67 0 l 1,8,-1
 67 737 l 1,9,-1
 202 737 l 1,10,-1
 202 197 l 1,11,12
 316 332 316 332 430 467 c 128,-1,13
 544 602 544 602 656 737 c 1,14,-1
 804 737 l 1,15,-1
 804 701 l 1,16,-1
 574 430 l 1,17,-1
 574 197 l 1,18,19
 688 332 688 332 802 467 c 128,-1,20
 916 602 916 602 1028 737 c 1,21,-1
 1176 737 l 1,0,-1
EndSplineSet
EndChar

StartChar: W.alt2
Encoding: 65553 -1 71
Width: 1158
Flags: W
HStem: 0 21G<570.191 734 941.221 1106> 717 20G<-3 160.815 369 532.852 971 1106>
VStem: 598 136<197 267> 971 135<197 737>
LayerCount: 2
Fore
SplineSet
598 197 m 1,0,-1
 598 430 l 1,1,-1
 369 701 l 1,2,-1
 369 737 l 1,3,-1
 516 737 l 1,4,-1
 971 197 l 1,5,-1
 971 737 l 1,6,-1
 1106 737 l 1,7,-1
 1106 0 l 1,8,-1
 958 0 l 1,9,-1
 734 267 l 1,10,-1
 734 0 l 1,11,-1
 587 0 l 1,12,-1
 -3 702 l 1,13,-1
 -3 737 l 1,14,-1
 144 737 l 1,15,-1
 598 197 l 1,0,-1
EndSplineSet
EndChar

StartChar: W.alt3
Encoding: 65554 -1 72
Width: 1052
Flags: W
HStem: 0 21G<55 219.745 825.202 989> 571 20G<481 538.802> 717 20G<55 190 853 989>
VStem: 55 135<196 737> 853 136<197 737>
LayerCount: 2
Fore
SplineSet
203 0 m 1,0,-1
 55 0 l 1,1,-1
 55 737 l 1,2,-1
 190 737 l 1,3,-1
 190 196 l 1,4,5
 273 294 273 294 356.5 394.5 c 128,-1,6
 440 495 440 495 522 591 c 1,7,-1
 853 197 l 1,8,-1
 853 737 l 1,9,-1
 989 737 l 1,10,-1
 989 0 l 1,11,-1
 842 0 l 1,12,-1
 522 381 l 1,13,-1
 203 0 l 1,0,-1
EndSplineSet
EndChar

StartChar: W.alt4
Encoding: 65555 -1 73
Width: 1182
Flags: W
HStem: 0 135<189.562 528 664 978> 717 20G<54 189 528 664 978 1114>
VStem: 54 135<135.686 737> 528 136<135 737> 978 136<135 737>
LayerCount: 2
Fore
SplineSet
197 0 m 2,0,1
 167 0 167 0 141 11.5 c 128,-1,2
 115 23 115 23 96 41.5 c 128,-1,3
 77 60 77 60 65.5 86.5 c 128,-1,4
 54 113 54 113 54 142 c 2,5,-1
 54 737 l 1,6,-1
 189 737 l 1,7,-1
 189 142 l 2,8,9
 189 135 189 135 197 135 c 2,10,-1
 528 135 l 1,11,-1
 528 737 l 1,12,-1
 664 737 l 1,13,-1
 664 142 l 2,14,15
 664 135 664 135 671 135 c 2,16,-1
 978 135 l 1,17,-1
 978 737 l 1,18,-1
 1114 737 l 1,19,-1
 1114 0 l 1,20,-1
 197 0 l 2,0,1
EndSplineSet
EndChar

StartChar: X
Encoding: 88 88 74
Width: 831
Flags: W
HStem: 0 21G<47 223 619.142 784> 717 20G<47 212.858 609 784>
LayerCount: 2
Fore
SplineSet
784 737 m 1,0,-1
 784 701 l 1,1,-1
 504 369 l 1,2,-1
 784 36 l 1,3,-1
 784 0 l 1,4,-1
 636 0 l 1,5,-1
 416 261 l 1,6,7
 361 196 361 196 305.5 130.5 c 128,-1,8
 250 65 250 65 196 0 c 1,9,-1
 47 0 l 1,10,-1
 47 36 l 1,11,-1
 327 369 l 1,12,-1
 47 701 l 1,13,-1
 47 737 l 1,14,-1
 196 737 l 1,15,-1
 416 476 l 1,16,17
 471 541 471 541 526.5 607 c 128,-1,18
 582 673 582 673 636 737 c 1,19,-1
 784 737 l 1,0,-1
EndSplineSet
Substitution2: "'salt' Stylistic Alternatives in Latin lookup 2 subtable" X.alt
Substitution2: "'aalt' Access All Alternates in Latin lookup 0 subtable" X.alt
EndChar

StartChar: X.alt
Encoding: 65556 -1 75
Width: 848
Flags: W
HStem: 0 21G<56 191 656 793> 298 135<191.033 655.932> 717 20G<55 190 657 794>
VStem: 55 135<0 297.469 433.758 737> 657 137<0 297.564 433.758 737>
LayerCount: 2
Fore
SplineSet
794 737 m 1,0,-1
 794 460 l 2,1,2
 794 427 794 427 771.5 403 c 128,-1,3
 749 379 749 379 715 366 c 1,4,5
 749 352 749 352 771 327.5 c 128,-1,6
 793 303 793 303 793 271 c 2,7,-1
 793 0 l 1,8,-1
 656 0 l 1,9,-1
 656 291 l 2,10,11
 656 298 656 298 650 298 c 2,12,-1
 199 298 l 2,13,14
 192 298 192 298 191 291 c 2,15,-1
 191 0 l 1,16,-1
 56 0 l 1,17,-1
 56 271 l 2,18,19
 56 303 56 303 77 327 c 128,-1,20
 98 351 98 351 133 366 c 1,21,22
 98 379 98 379 76.5 403 c 128,-1,23
 55 427 55 427 55 460 c 2,24,-1
 55 737 l 1,25,-1
 190 737 l 1,26,-1
 190 440 l 2,27,28
 190 433 190 433 198 433 c 2,29,-1
 650 433 l 2,30,31
 657 433 657 433 657 440 c 2,32,-1
 657 737 l 1,33,-1
 794 737 l 1,0,-1
EndSplineSet
EndChar

StartChar: Y
Encoding: 89 89 76
Width: 825
Flags: W
HStem: 0 21G<358 494> 717 20G<17 193.847 657.217 835>
VStem: 358 136<0 275>
LayerCount: 2
Fore
SplineSet
835 737 m 1,0,-1
 494 275 l 1,1,-1
 494 0 l 1,2,-1
 358 0 l 1,3,-1
 358 275 l 1,4,5
 318 330 318 330 274.5 388.5 c 128,-1,6
 231 447 231 447 187 506 c 128,-1,7
 143 565 143 565 100 623.5 c 128,-1,8
 57 682 57 682 17 737 c 1,9,-1
 178 737 l 1,10,-1
 426 424 l 1,11,-1
 673 737 l 1,12,-1
 835 737 l 1,0,-1
EndSplineSet
Substitution2: "'salt' Stylistic Alternatives in Latin lookup 2 subtable" Y.alt
Substitution2: "'aalt' Access All Alternates in Latin lookup 0 subtable" Y.alt
EndChar

StartChar: Y.alt
Encoding: 65557 -1 77
Width: 843
Flags: W
HStem: 0 135<52 652.411> 301 135<187.562 653> 717 20G<52 187 653 790>
VStem: 52 135<436.686 737> 653 137<135.485 300.998 436 737>
LayerCount: 2
Fore
SplineSet
790 737 m 1,0,-1
 790 142 l 2,1,2
 790 112 790 112 778.5 86 c 128,-1,3
 767 60 767 60 747.5 41.5 c 128,-1,4
 728 23 728 23 702 11.5 c 128,-1,5
 676 0 676 0 647 0 c 2,6,-1
 52 0 l 1,7,-1
 52 135 l 1,8,-1
 647 135 l 2,9,10
 653 135 653 135 653 142 c 2,11,-1
 653 294 l 2,12,13
 653 301 653 301 647 301 c 2,14,-1
 195 301 l 2,15,16
 165 301 165 301 139 312.5 c 128,-1,17
 113 324 113 324 94 342.5 c 128,-1,18
 75 361 75 361 63.5 387.5 c 128,-1,19
 52 414 52 414 52 443 c 2,20,-1
 52 737 l 1,21,-1
 187 737 l 1,22,-1
 187 443 l 2,23,24
 187 436 187 436 195 436 c 2,25,-1
 653 436 l 1,26,-1
 653 737 l 1,27,-1
 790 737 l 1,0,-1
EndSplineSet
EndChar

StartChar: Z
Encoding: 90 90 80
Width: 840
Flags: W
HStem: 0 135<249 790> 602 135<52 593>
LayerCount: 2
Fore
SplineSet
52 737 m 1,0,-1
 790 737 l 1,1,-1
 790 590 l 1,2,-1
 249 135 l 1,3,-1
 790 135 l 1,4,-1
 790 0 l 1,5,-1
 52 0 l 1,6,-1
 52 147 l 1,7,-1
 593 602 l 1,8,-1
 52 602 l 1,9,-1
 52 737 l 1,0,-1
EndSplineSet
Substitution2: "'salt' Stylistic Alternatives in Latin lookup 2 subtable" Z.alt
Substitution2: "'aalt' Access All Alternates in Latin lookup 0 subtable" Z.alt
EndChar

StartChar: Z.alt
Encoding: 65558 -1 81
Width: 837
Flags: W
HStem: 0 135<185.562 787> 301 135<185.562 650.411> 602 135<50 650.411>
VStem: 50 135<135.686 300.515> 651 136<436.485 601.515>
CounterMasks: 1 e0
LayerCount: 2
Fore
SplineSet
645 436 m 2,0,1
 651 436 651 436 651 443 c 2,2,-1
 651 595 l 2,3,4
 651 602 651 602 645 602 c 2,5,-1
 50 602 l 1,6,-1
 50 737 l 1,7,-1
 645 737 l 2,8,9
 674 737 674 737 700 726 c 128,-1,10
 726 715 726 715 745.5 696 c 128,-1,11
 765 677 765 677 776 651 c 128,-1,12
 787 625 787 625 787 595 c 2,13,-1
 787 443 l 2,14,15
 787 413 787 413 776 387 c 128,-1,16
 765 361 765 361 745.5 342.5 c 128,-1,17
 726 324 726 324 700 312.5 c 128,-1,18
 674 301 674 301 645 301 c 2,19,-1
 193 301 l 2,20,21
 186 301 186 301 185 294 c 2,22,-1
 185 142 l 2,23,24
 185 135 185 135 193 135 c 2,25,-1
 787 135 l 1,26,-1
 787 0 l 1,27,-1
 193 0 l 2,28,29
 163 0 163 0 137 11.5 c 128,-1,30
 111 23 111 23 92 41.5 c 128,-1,31
 73 60 73 60 61.5 86.5 c 128,-1,32
 50 113 50 113 50 142 c 2,33,-1
 50 294 l 2,34,35
 50 324 50 324 61.5 350 c 128,-1,36
 73 376 73 376 92 395 c 128,-1,37
 111 414 111 414 137 425 c 128,-1,38
 163 436 163 436 193 436 c 2,39,-1
 645 436 l 2,0,1
EndSplineSet
EndChar

StartChar: a
Encoding: 97 97 83
Width: 710
Flags: W
HStem: 0 134<187.57 522> 229 136<187 522> 460 134<53 521.308>
VStem: 53 134<134.692 229> 522 134<134 229 365 459.977>
CounterMasks: 1 e0
LayerCount: 2
Fore
SplineSet
515 594 m 2,0,1
 544 594 544 594 570 582.5 c 128,-1,2
 596 571 596 571 615 552.5 c 128,-1,3
 634 534 634 534 645 507.5 c 128,-1,4
 656 481 656 481 656 453 c 2,5,-1
 656 0 l 1,6,-1
 195 0 l 2,7,8
 165 0 165 0 139.5 11.5 c 128,-1,9
 114 23 114 23 95 41.5 c 128,-1,10
 76 60 76 60 64.5 86 c 128,-1,11
 53 112 53 112 53 141 c 2,12,-1
 53 365 l 1,13,-1
 522 365 l 1,14,-1
 522 453 l 2,15,16
 522 460 522 460 515 460 c 2,17,-1
 53 460 l 1,18,-1
 53 594 l 1,19,-1
 515 594 l 2,0,1
522 229 m 1,20,-1
 187 229 l 1,21,-1
 187 141 l 2,22,23
 187 134 187 134 195 134 c 2,24,-1
 522 134 l 1,25,-1
 522 229 l 1,20,-1
EndSplineSet
Substitution2: "'smcp' Lowercase to Small Capitals in Latin lookup 3 subtable" a.sc
Substitution2: "'salt' Stylistic Alternatives in Latin lookup 2 subtable" a.alt
AlternateSubs2: "'aalt' Access All Alternates in Latin lookup 1 subtable" a.sc a.alt
EndChar

StartChar: a.alt
Encoding: 65559 -1 84
Width: 709
Flags: W
HStem: 0 134<186.57 521> 460 134<186.57 520.308>
VStem: 52 134<134.692 459.308> 521 134<134 459.977>
LayerCount: 2
Fore
SplineSet
514 594 m 2,0,1
 543 594 543 594 569 582.5 c 128,-1,2
 595 571 595 571 614 552.5 c 128,-1,3
 633 534 633 534 644 507.5 c 128,-1,4
 655 481 655 481 655 453 c 2,5,-1
 655 0 l 1,6,-1
 194 0 l 2,7,8
 164 0 164 0 138.5 11.5 c 128,-1,9
 113 23 113 23 94 41.5 c 128,-1,10
 75 60 75 60 63.5 86 c 128,-1,11
 52 112 52 112 52 141 c 2,12,-1
 52 453 l 2,13,14
 52 482 52 482 63.5 508 c 128,-1,15
 75 534 75 534 94 552.5 c 128,-1,16
 113 571 113 571 138.5 582.5 c 128,-1,17
 164 594 164 594 194 594 c 2,18,-1
 514 594 l 2,0,1
521 134 m 1,19,-1
 521 453 l 2,20,21
 521 460 521 460 514 460 c 2,22,-1
 194 460 l 2,23,24
 187 460 187 460 186 453 c 2,25,-1
 186 141 l 2,26,27
 186 134 186 134 194 134 c 2,28,-1
 521 134 l 1,19,-1
EndSplineSet
EndChar

StartChar: a.sc
Encoding: 65560 -1 85
Width: 742
Flags: W
HStem: 0 21G<54 188 553 687> 148 135<188 553> 460 134<188.57 552.308>
VStem: 54 134<0 148 283 459.308> 553 134<0 148 283 459.977>
LayerCount: 2
Fore
SplineSet
546 594 m 2,0,1
 575 594 575 594 601 582.5 c 128,-1,2
 627 571 627 571 646 552.5 c 128,-1,3
 665 534 665 534 676 507.5 c 128,-1,4
 687 481 687 481 687 453 c 2,5,-1
 687 0 l 1,6,-1
 553 0 l 1,7,-1
 553 148 l 1,8,-1
 188 148 l 1,9,-1
 188 0 l 1,10,-1
 54 0 l 1,11,-1
 54 453 l 2,12,13
 54 482 54 482 65.5 508 c 128,-1,14
 77 534 77 534 96 552.5 c 128,-1,15
 115 571 115 571 140.5 582.5 c 128,-1,16
 166 594 166 594 196 594 c 2,17,-1
 546 594 l 2,0,1
553 283 m 1,18,-1
 553 453 l 2,19,20
 553 460 553 460 546 460 c 2,21,-1
 196 460 l 2,22,23
 189 460 189 460 188 453 c 2,24,-1
 188 283 l 1,25,-1
 553 283 l 1,18,-1
EndSplineSet
EndChar

StartChar: acute
Encoding: 180 180 88
Width: 218
Flags: W
HStem: 805 187<81 170>
VStem: 34 183
LayerCount: 2
Fore
SplineSet
81 992 m 1,0,-1
 217 992 l 1,1,-1
 170 805 l 1,2,-1
 34 805 l 1,3,-1
 81 992 l 1,0,-1
EndSplineSet
EndChar

StartChar: ae
Encoding: 230 230 90
Width: 1206
Flags: W
HStem: 0 134<188.497 523 657 1126> 229 136<188 523 657 992> 460 134<54 523 657.033 991.407>
VStem: 54 134<134.692 229> 523 134<134 229 365 459.998> 992 134<365 459.977>
CounterMasks: 1 fc
LayerCount: 2
Fore
SplineSet
986 594 m 2,0,1
 1015 594 1015 594 1040.5 582.5 c 128,-1,2
 1066 571 1066 571 1085.5 552.5 c 128,-1,3
 1105 534 1105 534 1115.5 507.5 c 128,-1,4
 1126 481 1126 481 1126 453 c 2,5,-1
 1126 229 l 1,6,-1
 657 229 l 1,7,-1
 657 139 l 2,8,9
 657 134 657 134 665 134 c 2,10,-1
 1126 134 l 1,11,-1
 1126 0 l 1,12,-1
 195 0 l 2,13,14
 165 0 165 0 140 11.5 c 128,-1,15
 115 23 115 23 95.5 41.5 c 128,-1,16
 76 60 76 60 65 86 c 128,-1,17
 54 112 54 112 54 141 c 2,18,-1
 54 365 l 1,19,-1
 523 365 l 1,20,-1
 523 453 l 2,21,22
 523 460 523 460 516 460 c 2,23,-1
 54 460 l 1,24,-1
 54 594 l 1,25,-1
 986 594 l 2,0,1
523 229 m 1,26,-1
 188 229 l 1,27,-1
 188 141 l 2,28,29
 188 134 188 134 195 134 c 2,30,-1
 523 134 l 1,31,-1
 523 229 l 1,26,-1
992 365 m 1,32,-1
 992 453 l 2,33,34
 992 460 992 460 986 460 c 2,35,-1
 665 460 l 2,36,37
 658 460 658 460 657 453 c 2,38,-1
 657 365 l 1,39,-1
 992 365 l 1,32,-1
EndSplineSet
EndChar

StartChar: ampersand
Encoding: 38 38 92
Width: 960
Flags: W
HStem: 0 134<188.57 623> 602 135<227.698 620.461>
VStem: 54 134<134.692 345.823> 93 134<468 601.411> 621 134<534 602> 650 134<255 367>
LayerCount: 2
Fore
SplineSet
908 127 m 1,0,-1
 908 -8 l 1,1,-1
 767 72 l 1,2,3
 750 39 750 39 716.5 19.5 c 128,-1,4
 683 0 683 0 643 0 c 2,5,-1
 196 0 l 2,6,7
 166 0 166 0 140.5 11.5 c 128,-1,8
 115 23 115 23 96 41.5 c 128,-1,9
 77 60 77 60 65.5 86 c 128,-1,10
 54 112 54 112 54 141 c 2,11,-1
 54 340 l 2,12,13
 54 350 54 350 57 362.5 c 128,-1,14
 60 375 60 375 67 386.5 c 128,-1,15
 74 398 74 398 83.5 408 c 128,-1,16
 93 418 93 418 105 424 c 1,17,18
 97 438 97 438 95 454 c 128,-1,19
 93 470 93 470 93 487 c 2,20,-1
 93 596 l 2,21,22
 93 625 93 625 104.5 651 c 128,-1,23
 116 677 116 677 135 696 c 128,-1,24
 154 715 154 715 179.5 726 c 128,-1,25
 205 737 205 737 234 737 c 2,26,-1
 614 737 l 2,27,28
 640 737 640 737 663.5 728.5 c 128,-1,29
 687 720 687 720 706 704 c 128,-1,30
 725 688 725 688 738 666.5 c 128,-1,31
 751 645 751 645 755 621 c 1,32,-1
 755 534 l 1,33,-1
 621 534 l 1,34,-1
 621 595 l 2,35,36
 621 602 621 602 614 602 c 2,37,-1
 234 602 l 2,38,39
 227 602 227 602 227 595 c 2,40,-1
 227 468 l 1,41,-1
 650 255 l 1,42,-1
 650 367 l 1,43,-1
 784 367 l 1,44,-1
 784 200 l 1,45,-1
 908 127 l 1,0,-1
623 134 m 1,46,47
 518 187 518 187 413.5 240 c 128,-1,48
 309 293 309 293 203 346 c 1,49,-1
 196 346 l 2,50,51
 189 346 189 346 188 340 c 2,52,-1
 188 141 l 2,53,54
 188 134 188 134 196 134 c 2,55,-1
 623 134 l 1,46,47
EndSplineSet
EndChar

StartChar: asciitilde
Encoding: 126 126 94
Width: 413
Flags: W
HStem: 226 93<241.164 390.035> 292 94<35.9248 183.946>
LayerCount: 2
Fore
SplineSet
308 319 m 1,0,1
 327 319 327 319 349.5 324 c 128,-1,2
 372 329 372 329 397 346 c 1,3,-1
 397 248 l 1,4,5
 377 240 377 240 354.5 233 c 128,-1,6
 332 226 332 226 306 226 c 0,7,8
 278 226 278 226 254 236.5 c 128,-1,9
 230 247 230 247 206 259 c 128,-1,10
 182 271 182 271 157.5 281.5 c 128,-1,11
 133 292 133 292 105 292 c 0,12,13
 91 292 91 292 69.5 287.5 c 128,-1,14
 48 283 48 283 25 260 c 1,15,-1
 25 367 l 1,16,17
 44 375 44 375 66 380.5 c 128,-1,18
 88 386 88 386 112 386 c 0,19,20
 140 386 140 386 163 377 c 128,-1,21
 186 368 186 368 209.5 356.5 c 128,-1,22
 233 345 233 345 256.5 334 c 128,-1,23
 280 323 280 323 308 319 c 1,0,1
EndSplineSet
EndChar

StartChar: asterisk
Encoding: 42 42 95
Width: 502
Flags: W
HStem: 716 20G<190 326>
VStem: 190 136<606 736>
LayerCount: 2
Fore
SplineSet
492 518 m 1,0,-1
 367 478 l 1,1,-1
 444 373 l 1,2,-1
 336 294 l 1,3,-1
 257 399 l 1,4,-1
 181 294 l 1,5,-1
 73 373 l 1,6,-1
 150 478 l 1,7,-1
 26 518 l 1,8,-1
 67 647 l 1,9,-1
 190 605 l 1,10,-1
 190 736 l 1,11,-1
 326 736 l 1,12,-1
 326 606 l 1,13,-1
 450 647 l 1,14,-1
 492 518 l 1,0,-1
EndSplineSet
EndChar

StartChar: at
Encoding: 64 64 96
Width: 850
Flags: W
HStem: 0 134<193.491 788> 203 114<353.409 494 598 654> 437 105<353.409 493.72> 603 134<193.491 653.308>
VStem: 58 135<134.692 602.308> 249 104<317.736 436.72> 494 104<317 436.72> 654 134<317 602.308>
LayerCount: 2
Fore
SplineSet
458 542 m 2,0,1
 487 542 487 542 512.5 531 c 128,-1,2
 538 520 538 520 557.5 500.5 c 128,-1,3
 577 481 577 481 587.5 455.5 c 128,-1,4
 598 430 598 430 598 401 c 2,5,-1
 598 317 l 1,6,-1
 654 317 l 1,7,-1
 654 596 l 2,8,9
 654 603 654 603 647 603 c 2,10,-1
 200 603 l 2,11,12
 193 603 193 603 193 596 c 2,13,-1
 193 141 l 2,14,15
 193 134 193 134 200 134 c 2,16,-1
 788 134 l 1,17,-1
 788 0 l 1,18,-1
 200 0 l 2,19,20
 170 0 170 0 144.5 11.5 c 128,-1,21
 119 23 119 23 100 41.5 c 128,-1,22
 81 60 81 60 69.5 86 c 128,-1,23
 58 112 58 112 58 141 c 2,24,-1
 58 596 l 2,25,26
 58 625 58 625 69.5 651 c 128,-1,27
 81 677 81 677 100 696 c 128,-1,28
 119 715 119 715 144.5 726 c 128,-1,29
 170 737 170 737 200 737 c 2,30,-1
 647 737 l 2,31,32
 676 737 676 737 702 726 c 128,-1,33
 728 715 728 715 747 696 c 128,-1,34
 766 677 766 677 777 651 c 128,-1,35
 788 625 788 625 788 596 c 2,36,-1
 788 203 l 1,37,-1
 390 203 l 2,38,39
 360 203 360 203 334.5 213.5 c 128,-1,40
 309 224 309 224 290 243.5 c 128,-1,41
 271 263 271 263 260 288.5 c 128,-1,42
 249 314 249 314 249 344 c 2,43,-1
 249 401 l 2,44,45
 249 430 249 430 260 455.5 c 128,-1,46
 271 481 271 481 290 500.5 c 128,-1,47
 309 520 309 520 334.5 531 c 128,-1,48
 360 542 360 542 390 542 c 2,49,-1
 458 542 l 2,0,1
494 317 m 1,50,-1
 494 431 l 2,51,52
 494 437 494 437 487 437 c 2,53,-1
 360 437 l 2,54,55
 353 437 353 437 353 431 c 2,56,-1
 353 325 l 2,57,58
 353 318 353 318 360 317 c 2,59,-1
 494 317 l 1,50,-1
EndSplineSet
EndChar

StartChar: b
Encoding: 98 98 98
Width: 683
Flags: W
HStem: 0 134<189 523.308> 460 134<189.033 523.308> 768 20G<55 189>
VStem: 55 134<134 460 594 788> 524 134<134.491 459.977>
LayerCount: 2
Fore
SplineSet
517 594 m 2,0,1
 546 594 546 594 572 582.5 c 128,-1,2
 598 571 598 571 617 552.5 c 128,-1,3
 636 534 636 534 647 507.5 c 128,-1,4
 658 481 658 481 658 453 c 2,5,-1
 658 141 l 2,6,7
 658 111 658 111 647 85.5 c 128,-1,8
 636 60 636 60 617 41.5 c 128,-1,9
 598 23 598 23 572 11.5 c 128,-1,10
 546 0 546 0 517 0 c 2,11,-1
 55 0 l 1,12,-1
 55 788 l 1,13,-1
 189 788 l 1,14,-1
 189 594 l 1,15,-1
 517 594 l 2,0,1
524 453 m 2,16,17
 524 460 524 460 517 460 c 2,18,-1
 197 460 l 2,19,20
 190 460 190 460 189 453 c 2,21,-1
 189 141 l 2,22,23
 189 134 189 134 197 134 c 2,24,-1
 517 134 l 2,25,26
 524 134 524 134 524 141 c 2,27,-1
 524 453 l 2,16,17
EndSplineSet
Substitution2: "'smcp' Lowercase to Small Capitals in Latin lookup 3 subtable" b.sc
Substitution2: "'aalt' Access All Alternates in Latin lookup 0 subtable" b.sc
EndChar

StartChar: b.sc
Encoding: 65561 -1 99
Width: 716
Flags: W
HStem: 0 134<189 534.203> 227 134<189.033 505> 461 134<189.033 504.308>
VStem: 55 134<134 227 361.032 461> 505 134<361.728 460.977> 535 134<134.491 226.953>
LayerCount: 2
Fore
SplineSet
639 368 m 2,0,1
 639 339 639 339 630 316 c 1,2,3
 647 298 647 298 658 273 c 128,-1,4
 669 248 669 248 669 220 c 2,5,-1
 669 141 l 2,6,7
 669 111 669 111 657.5 85.5 c 128,-1,8
 646 60 646 60 627 41.5 c 128,-1,9
 608 23 608 23 582 11.5 c 128,-1,10
 556 0 556 0 527 0 c 2,11,-1
 55 0 l 1,12,-1
 55 595 l 1,13,-1
 498 595 l 2,14,15
 527 595 527 595 553 583.5 c 128,-1,16
 579 572 579 572 597.5 553.5 c 128,-1,17
 616 535 616 535 627.5 508.5 c 128,-1,18
 639 482 639 482 639 454 c 2,19,-1
 639 368 l 2,0,1
197 461 m 2,20,21
 190 461 190 461 189 454 c 2,22,-1
 189 368 l 2,23,24
 189 362 189 362 197 361 c 2,25,-1
 498 361 l 2,26,27
 505 361 505 361 505 368 c 2,28,-1
 505 454 l 2,29,30
 505 461 505 461 498 461 c 2,31,-1
 197 461 l 2,20,21
535 220 m 2,32,33
 535 227 535 227 527 227 c 2,34,-1
 197 227 l 2,35,36
 190 227 190 227 189 220 c 2,37,-1
 189 141 l 2,38,39
 189 134 189 134 197 134 c 2,40,-1
 527 134 l 2,41,42
 534 134 534 134 535 141 c 2,43,-1
 535 220 l 2,32,33
EndSplineSet
EndChar

StartChar: backslash
Encoding: 92 92 100
Width: 532
Flags: W
HStem: 0 21G<478.474 530> 717 20G<5 57.4924>
LayerCount: 2
Fore
SplineSet
41 737 m 1,0,-1
 530 144 l 1,1,-1
 530 0 l 1,2,-1
 495 0 l 1,3,-1
 5 593 l 1,4,-1
 5 737 l 1,5,-1
 41 737 l 1,0,-1
EndSplineSet
EndChar

StartChar: bar
Encoding: 124 124 101
Width: 219
Flags: W
VStem: 55 134<-106 836>
LayerCount: 2
Fore
SplineSet
55 836 m 1,0,-1
 189 836 l 1,1,-1
 189 -106 l 1,2,-1
 55 -106 l 1,3,-1
 55 836 l 1,0,-1
EndSplineSet
EndChar

StartChar: braceleft
Encoding: 123 123 102
Width: 295
Flags: W
HStem: 0 134<201.491 263> 603 134<201.491 263>
VStem: 67 134<134.692 300.503 459 602.308>
LayerCount: 2
Fore
SplineSet
201 141 m 2,0,1
 201 134 201 134 208 134 c 2,2,-1
 263 134 l 1,3,-1
 263 0 l 1,4,-1
 208 0 l 2,5,6
 178 0 178 0 152.5 11.5 c 128,-1,7
 127 23 127 23 107.5 41.5 c 128,-1,8
 88 60 88 60 77.5 86 c 128,-1,9
 67 112 67 112 67 141 c 2,10,-1
 67 288 l 1,11,12
 56 293 56 293 44 301 c 128,-1,13
 32 309 32 309 24 313 c 1,14,-1
 24 435 l 1,15,-1
 67 459 l 1,16,-1
 67 596 l 2,17,18
 67 625 67 625 77.5 651 c 128,-1,19
 88 677 88 677 107.5 696 c 128,-1,20
 127 715 127 715 152.5 726 c 128,-1,21
 178 737 178 737 208 737 c 2,22,-1
 263 737 l 1,23,-1
 263 603 l 1,24,-1
 208 603 l 2,25,26
 201 603 201 603 201 596 c 2,27,-1
 201 421 l 1,28,-1
 142 374 l 1,29,30
 156 363 156 363 171.5 350 c 128,-1,31
 187 337 187 337 201 326 c 1,32,-1
 201 141 l 2,0,1
EndSplineSet
EndChar

StartChar: braceright
Encoding: 125 125 103
Width: 295
Flags: W
HStem: 0 134<52 114.969> 603 134<52 114.302>
VStem: 115 134<134.491 288 448.502 602.308>
LayerCount: 2
Fore
SplineSet
115 326 m 1,0,-1
 173 374 l 1,1,-1
 115 421 l 1,2,-1
 115 596 l 2,3,4
 115 603 115 603 108 603 c 2,5,-1
 52 603 l 1,6,-1
 52 737 l 1,7,-1
 108 737 l 2,8,9
 137 737 137 737 162.5 726 c 128,-1,10
 188 715 188 715 207 696 c 128,-1,11
 226 677 226 677 237.5 651 c 128,-1,12
 249 625 249 625 249 596 c 2,13,-1
 249 464 l 1,14,15
 260 458 260 458 271.5 448.5 c 128,-1,16
 283 439 283 439 292 434 c 1,17,-1
 292 313 l 1,18,-1
 249 288 l 1,19,-1
 249 141 l 2,20,21
 249 111 249 111 237.5 85.5 c 128,-1,22
 226 60 226 60 207 41.5 c 128,-1,23
 188 23 188 23 162 11.5 c 128,-1,24
 136 0 136 0 108 0 c 2,25,-1
 52 0 l 1,26,-1
 52 134 l 1,27,-1
 108 134 l 2,28,29
 115 134 115 134 115 141 c 2,30,-1
 115 326 l 1,0,-1
EndSplineSet
EndChar

StartChar: bracketleft
Encoding: 91 91 104
Width: 281
Flags: W
HStem: 0 134<189 252> 603 134<189 252>
VStem: 55 197<0 134 603 737> 55 134<134 603>
LayerCount: 2
Fore
SplineSet
55 737 m 1,0,-1
 252 737 l 1,1,-1
 252 603 l 1,2,-1
 189 603 l 1,3,-1
 189 134 l 1,4,-1
 252 134 l 1,5,-1
 252 0 l 1,6,-1
 55 0 l 1,7,-1
 55 737 l 1,0,-1
EndSplineSet
EndChar

StartChar: bracketright
Encoding: 93 93 105
Width: 282
Flags: W
HStem: 0 134<52 114> 603 134<52 114>
VStem: 52 197<0 134 603 737> 114 135<134 603>
LayerCount: 2
Fore
SplineSet
52 737 m 1,0,-1
 249 737 l 1,1,-1
 249 0 l 1,2,-1
 52 0 l 1,3,-1
 52 134 l 1,4,-1
 114 134 l 1,5,-1
 114 603 l 1,6,-1
 52 603 l 1,7,-1
 52 737 l 1,0,-1
EndSplineSet
EndChar

StartChar: breve
Encoding: 728 728 106
Width: 293
Flags: W
HStem: 805 80<120.298 192.858>
VStem: 41 79<885.914 916> 194 77<885.914 916>
LayerCount: 2
Fore
SplineSet
271 916 m 1,0,-1
 271 895 l 2,1,2
 271 858 271 858 245.5 831.5 c 128,-1,3
 220 805 220 805 181 805 c 2,4,-1
 131 805 l 2,5,6
 92 805 92 805 66.5 831.5 c 128,-1,7
 41 858 41 858 41 895 c 2,8,-1
 41 916 l 1,9,-1
 120 916 l 1,10,-1
 120 885 l 1,11,-1
 194 885 l 1,12,-1
 194 916 l 1,13,-1
 271 916 l 1,0,-1
EndSplineSet
EndChar

StartChar: bullet
Encoding: 8226 8226 107
Width: 379
Flags: W
HStem: 300 130<128.734 247.125>
VStem: 121 134<307.734 422.266>
LayerCount: 2
Fore
SplineSet
199 430 m 2,0,1
 255 430 255 430 255 375 c 2,2,-1
 255 355 l 2,3,4
 255 300 255 300 199 300 c 2,5,-1
 176 300 l 2,6,7
 121 300 121 300 121 355 c 2,8,-1
 121 375 l 2,9,10
 121 430 121 430 176 430 c 2,11,-1
 199 430 l 2,0,1
EndSplineSet
EndChar

StartChar: c
Encoding: 99 99 108
Width: 711
Flags: W
HStem: 0 134<186.57 655> 460 134<186.57 653>
VStem: 52 134<134.692 459.308>
LayerCount: 2
Fore
SplineSet
655 134 m 1,0,-1
 655 0 l 1,1,-1
 194 0 l 2,2,3
 164 0 164 0 138.5 11.5 c 128,-1,4
 113 23 113 23 94 41.5 c 128,-1,5
 75 60 75 60 63.5 86 c 128,-1,6
 52 112 52 112 52 141 c 2,7,-1
 52 453 l 2,8,9
 52 482 52 482 63.5 508 c 128,-1,10
 75 534 75 534 94 552.5 c 128,-1,11
 113 571 113 571 138.5 582.5 c 128,-1,12
 164 594 164 594 194 594 c 2,13,-1
 653 594 l 1,14,-1
 653 460 l 1,15,-1
 194 460 l 2,16,17
 187 460 187 460 186 453 c 2,18,-1
 186 141 l 2,19,20
 186 134 186 134 194 134 c 2,21,-1
 655 134 l 1,0,-1
EndSplineSet
Substitution2: "'smcp' Lowercase to Small Capitals in Latin lookup 3 subtable" c.sc
Substitution2: "'aalt' Access All Alternates in Latin lookup 0 subtable" c.sc
EndChar

StartChar: c.sc
Encoding: 65562 -1 109
Width: 709
Flags: W
HStem: 0 134<186.57 653> 461 134<186.57 653>
VStem: 52 134<134.692 460.308>
LayerCount: 2
Fore
SplineSet
194 461 m 2,0,1
 187 461 187 461 186 454 c 2,2,-1
 186 141 l 2,3,4
 186 134 186 134 194 134 c 2,5,-1
 653 134 l 1,6,-1
 653 0 l 1,7,-1
 194 0 l 2,8,9
 164 0 164 0 138.5 11.5 c 128,-1,10
 113 23 113 23 94 41.5 c 128,-1,11
 75 60 75 60 63.5 86 c 128,-1,12
 52 112 52 112 52 141 c 2,13,-1
 52 454 l 2,14,15
 52 483 52 483 63.5 509 c 128,-1,16
 75 535 75 535 94 553.5 c 128,-1,17
 113 572 113 572 138.5 583.5 c 128,-1,18
 164 595 164 595 194 595 c 2,19,-1
 653 595 l 1,20,-1
 653 461 l 1,21,-1
 194 461 l 2,0,1
EndSplineSet
EndChar

StartChar: caron
Encoding: 711 711 110
Width: 304
Flags: W
HStem: 804 167<128 133 209 217>
VStem: 28 289
LayerCount: 2
Fore
SplineSet
133 971 m 1,0,-1
 171 910 l 1,1,-1
 209 971 l 1,2,-1
 317 971 l 1,3,-1
 217 804 l 1,4,-1
 128 804 l 1,5,-1
 28 971 l 1,6,-1
 133 971 l 1,0,-1
EndSplineSet
EndChar

StartChar: ccedilla
Encoding: 231 231 111
Width: 709
Flags: W
HStem: 0 134<186.57 307 443 655> 460 134<186.57 653>
VStem: 52 134<134.692 459.308>
LayerCount: 2
Fore
SplineSet
655 134 m 1,0,-1
 655 0 l 1,1,-1
 443 0 l 1,2,-1
 404 -158 l 1,3,-1
 268 -158 l 1,4,-1
 307 0 l 1,5,-1
 194 0 l 2,6,7
 164 0 164 0 138.5 11.5 c 128,-1,8
 113 23 113 23 94 41.5 c 128,-1,9
 75 60 75 60 63.5 86 c 128,-1,10
 52 112 52 112 52 141 c 2,11,-1
 52 453 l 2,12,13
 52 482 52 482 63.5 508 c 128,-1,14
 75 534 75 534 94 552.5 c 128,-1,15
 113 571 113 571 138.5 582.5 c 128,-1,16
 164 594 164 594 194 594 c 2,17,-1
 653 594 l 1,18,-1
 653 460 l 1,19,-1
 194 460 l 2,20,21
 187 460 187 460 186 453 c 2,22,-1
 186 141 l 2,23,24
 186 134 186 134 194 134 c 2,25,-1
 655 134 l 1,0,-1
EndSplineSet
EndChar

StartChar: cedilla
Encoding: 184 184 112
Width: 218
Flags: W
HStem: -158 188<81 170>
VStem: 34 183
LayerCount: 2
Fore
SplineSet
81 30 m 1,0,-1
 217 30 l 1,1,-1
 170 -158 l 1,2,-1
 34 -158 l 1,3,-1
 81 30 l 1,0,-1
EndSplineSet
EndChar

StartChar: cent
Encoding: 162 162 113
Width: 651
Flags: W
HStem: 0 134<168.491 299 434 636> 469 135<168.491 299 434 636>
VStem: 34 134<134.692 468.411> 299 135<-106 0 134 469 604 728>
LayerCount: 2
Fore
SplineSet
434 469 m 1,0,-1
 434 134 l 1,1,-1
 636 134 l 1,2,-1
 636 0 l 1,3,-1
 434 0 l 1,4,-1
 434 -106 l 1,5,-1
 299 -106 l 1,6,-1
 299 0 l 1,7,-1
 175 0 l 2,8,9
 145 0 145 0 119.5 11.5 c 128,-1,10
 94 23 94 23 75 41.5 c 128,-1,11
 56 60 56 60 45 86 c 128,-1,12
 34 112 34 112 34 141 c 2,13,-1
 34 463 l 2,14,15
 34 492 34 492 45 518 c 128,-1,16
 56 544 56 544 75 563 c 128,-1,17
 94 582 94 582 119.5 593 c 128,-1,18
 145 604 145 604 175 604 c 2,19,-1
 299 604 l 1,20,-1
 299 728 l 1,21,-1
 434 728 l 1,22,-1
 434 604 l 1,23,-1
 636 604 l 1,24,-1
 636 469 l 1,25,-1
 434 469 l 1,0,-1
299 469 m 1,26,-1
 175 469 l 2,27,28
 168 469 168 469 168 463 c 2,29,-1
 168 141 l 2,30,31
 168 134 168 134 175 134 c 2,32,-1
 299 134 l 1,33,-1
 299 469 l 1,26,-1
EndSplineSet
EndChar

StartChar: circumflex
Encoding: 710 710 114
Width: 307
Flags: W
HStem: 804 167<129 135 210 218>
VStem: 29 289
LayerCount: 2
Fore
SplineSet
29 804 m 1,0,-1
 129 971 l 1,1,-1
 218 971 l 1,2,-1
 318 804 l 1,3,-1
 210 804 l 1,4,-1
 172 864 l 1,5,6
 163 850 163 850 153 833.5 c 128,-1,7
 143 817 143 817 135 804 c 1,8,-1
 29 804 l 1,0,-1
EndSplineSet
EndChar

StartChar: colon
Encoding: 58 58 115
Width: 219
Flags: W
HStem: 0 134<55 189> 467 135<55 189>
VStem: 55 134<0 134 467 602>
LayerCount: 2
Fore
SplineSet
189 134 m 1,0,-1
 189 0 l 1,1,-1
 55 0 l 1,2,-1
 55 134 l 1,3,-1
 189 134 l 1,0,-1
189 467 m 1,4,-1
 55 467 l 1,5,-1
 55 602 l 1,6,-1
 189 602 l 1,7,-1
 189 467 l 1,4,-1
EndSplineSet
EndChar

StartChar: comma
Encoding: 44 44 116
Width: 225
Flags: W
HStem: -140 262<55 117.459>
VStem: 55 134<-71.538 122> 55 124<-84.3358 120.125>
LayerCount: 2
Fore
SplineSet
189 122 m 1,0,-1
 189 2 l 2,1,2
 189 -25 189 -25 179 -48.5 c 128,-1,3
 169 -72 169 -72 151 -91 c 128,-1,4
 133 -110 133 -110 108.5 -122.5 c 128,-1,5
 84 -135 84 -135 55 -140 c 1,6,-1
 55 122 l 1,7,-1
 189 122 l 1,0,-1
EndSplineSet
EndChar

StartChar: d
Encoding: 100 100 117
Width: 683
Flags: W
HStem: 0 134<159.415 493.967> 460 134<159.415 494> 768 20G<494 628>
VStem: 24 135<134.692 459.308> 494 134<134 460 594 788>
LayerCount: 2
Fore
SplineSet
628 788 m 1,0,-1
 628 0 l 1,1,-1
 165 0 l 2,2,3
 135 0 135 0 109.5 11.5 c 128,-1,4
 84 23 84 23 65 41.5 c 128,-1,5
 46 60 46 60 35 86 c 128,-1,6
 24 112 24 112 24 141 c 2,7,-1
 24 453 l 2,8,9
 24 482 24 482 35 508 c 128,-1,10
 46 534 46 534 65 552.5 c 128,-1,11
 84 571 84 571 109.5 582.5 c 128,-1,12
 135 594 135 594 165 594 c 2,13,-1
 494 594 l 1,14,-1
 494 788 l 1,15,-1
 628 788 l 1,0,-1
486 134 m 2,16,17
 493 134 493 134 494 141 c 2,18,-1
 494 453 l 2,19,20
 494 460 494 460 486 460 c 2,21,-1
 165 460 l 2,22,23
 159 460 159 460 159 453 c 2,24,-1
 159 141 l 2,25,26
 159 134 159 134 165 134 c 2,27,-1
 486 134 l 2,16,17
EndSplineSet
Substitution2: "'smcp' Lowercase to Small Capitals in Latin lookup 3 subtable" d.sc
Substitution2: "'aalt' Access All Alternates in Latin lookup 0 subtable" d.sc
EndChar

StartChar: d.sc
Encoding: 65563 -1 118
Width: 721
Flags: W
HStem: 0 134<189 534.203> 461 134<189.033 534.203>
VStem: 55 134<134 461> 535 134<134.491 460.977>
LayerCount: 2
Fore
SplineSet
527 595 m 2,0,1
 556 595 556 595 582 583.5 c 128,-1,2
 608 572 608 572 627 553.5 c 128,-1,3
 646 535 646 535 657.5 508.5 c 128,-1,4
 669 482 669 482 669 454 c 2,5,-1
 669 141 l 2,6,7
 669 111 669 111 657.5 85.5 c 128,-1,8
 646 60 646 60 627 41.5 c 128,-1,9
 608 23 608 23 582 11.5 c 128,-1,10
 556 0 556 0 527 0 c 2,11,-1
 55 0 l 1,12,-1
 55 595 l 1,13,-1
 527 595 l 2,0,1
535 454 m 2,14,15
 535 461 535 461 527 461 c 2,16,-1
 197 461 l 2,17,18
 190 461 190 461 189 454 c 2,19,-1
 189 141 l 2,20,21
 189 134 189 134 197 134 c 2,22,-1
 527 134 l 2,23,24
 534 134 534 134 535 141 c 2,25,-1
 535 454 l 2,14,15
EndSplineSet
EndChar

StartChar: degree
Encoding: 176 176 119
Width: 449
Flags: W
HStem: 370 115<161.611 300.528> 615 115<161.335 300.528>
VStem: 46 115<485.611 614.665> 301 115<485.611 614.92>
LayerCount: 2
Fore
SplineSet
274 730 m 2,0,1
 303 730 303 730 329 719 c 128,-1,2
 355 708 355 708 374 689 c 128,-1,3
 393 670 393 670 404.5 643.5 c 128,-1,4
 416 617 416 617 416 589 c 2,5,-1
 416 511 l 2,6,7
 416 481 416 481 404.5 455.5 c 128,-1,8
 393 430 393 430 374 411 c 128,-1,9
 355 392 355 392 329 381 c 128,-1,10
 303 370 303 370 274 370 c 2,11,-1
 187 370 l 2,12,13
 157 370 157 370 131.5 381 c 128,-1,14
 106 392 106 392 87.5 411 c 128,-1,15
 69 430 69 430 57.5 455.5 c 128,-1,16
 46 481 46 481 46 511 c 2,17,-1
 46 589 l 2,18,19
 46 618 46 618 57.5 644 c 128,-1,20
 69 670 69 670 87.5 689 c 128,-1,21
 106 708 106 708 132 719 c 128,-1,22
 158 730 158 730 187 730 c 2,23,-1
 274 730 l 2,0,1
294 485 m 2,24,25
 301 485 301 485 301 492 c 2,26,-1
 301 608 l 2,27,28
 301 615 301 615 294 615 c 2,29,-1
 168 615 l 2,30,31
 161 615 161 615 161 608 c 2,32,-1
 161 492 l 2,33,34
 161 486 161 486 168 485 c 2,35,-1
 294 485 l 2,24,25
EndSplineSet
EndChar

StartChar: dieresis
Encoding: 168 168 120
Width: 394
Flags: W
HStem: 805 135<55 189 230 366>
VStem: 55 134<805 940> 230 136<805 940>
LayerCount: 2
Fore
SplineSet
366 805 m 1,0,-1
 230 805 l 1,1,-1
 230 940 l 1,2,-1
 366 940 l 1,3,-1
 366 805 l 1,0,-1
189 805 m 1,4,-1
 55 805 l 1,5,-1
 55 940 l 1,6,-1
 189 940 l 1,7,-1
 189 805 l 1,4,-1
EndSplineSet
EndChar

StartChar: divide
Encoding: 247 247 121
Width: 514
Flags: W
HStem: 1 134<206 340> 236 134<18 515> 468 135<206 340>
VStem: 206 134<1 135 468 603>
LayerCount: 2
Fore
SplineSet
515 236 m 1,0,-1
 18 236 l 1,1,-1
 18 370 l 1,2,-1
 515 370 l 1,3,-1
 515 236 l 1,0,-1
340 135 m 1,4,-1
 340 1 l 1,5,-1
 206 1 l 1,6,-1
 206 135 l 1,7,-1
 340 135 l 1,4,-1
340 468 m 1,8,-1
 206 468 l 1,9,-1
 206 603 l 1,10,-1
 340 603 l 1,11,-1
 340 468 l 1,8,-1
EndSplineSet
EndChar

StartChar: dollar
Encoding: 36 36 122
Width: 806
Flags: W
HStem: 0 134<169.491 333 467 630.977> 302 134<169.491 333 467 630.308> 603 134<169.491 333 467 630.308>
VStem: 35 134<134.692 197 436.692 602.308> 333 134<-105 0 134 302 436 603 737 843> 631 134<134.491 301.308 541 602.308>
CounterMasks: 1 1c
LayerCount: 2
Fore
SplineSet
765 541 m 1,0,-1
 631 541 l 1,1,-1
 631 596 l 2,2,3
 631 603 631 603 624 603 c 2,4,-1
 467 603 l 1,5,-1
 467 436 l 1,6,-1
 624 436 l 2,7,8
 653 436 653 436 679 425 c 128,-1,9
 705 414 705 414 723.5 395 c 128,-1,10
 742 376 742 376 753.5 350 c 128,-1,11
 765 324 765 324 765 295 c 2,12,-1
 765 141 l 2,13,14
 765 111 765 111 753.5 85.5 c 128,-1,15
 742 60 742 60 723.5 41.5 c 128,-1,16
 705 23 705 23 678.5 11.5 c 128,-1,17
 652 0 652 0 624 0 c 2,18,-1
 467 0 l 1,19,-1
 467 -105 l 1,20,-1
 333 -105 l 1,21,-1
 333 0 l 1,22,-1
 176 0 l 2,23,24
 146 0 146 0 120.5 11.5 c 128,-1,25
 95 23 95 23 76 41.5 c 128,-1,26
 57 60 57 60 46 86 c 128,-1,27
 35 112 35 112 35 141 c 2,28,-1
 35 197 l 1,29,-1
 169 197 l 1,30,-1
 169 141 l 2,31,32
 169 134 169 134 176 134 c 2,33,-1
 333 134 l 1,34,-1
 333 302 l 1,35,-1
 176 302 l 2,36,37
 146 302 146 302 120.5 313.5 c 128,-1,38
 95 325 95 325 76 343.5 c 128,-1,39
 57 362 57 362 46 388 c 128,-1,40
 35 414 35 414 35 443 c 2,41,-1
 35 596 l 2,42,43
 35 625 35 625 46 651 c 128,-1,44
 57 677 57 677 76 696 c 128,-1,45
 95 715 95 715 120.5 726 c 128,-1,46
 146 737 146 737 176 737 c 2,47,-1
 333 737 l 1,48,-1
 333 843 l 1,49,-1
 467 843 l 1,50,-1
 467 737 l 1,51,-1
 624 737 l 2,52,53
 653 737 653 737 679 726 c 128,-1,54
 705 715 705 715 723.5 696 c 128,-1,55
 742 677 742 677 753.5 651 c 128,-1,56
 765 625 765 625 765 596 c 2,57,-1
 765 541 l 1,0,-1
467 302 m 1,58,-1
 467 134 l 1,59,-1
 624 134 l 2,60,61
 631 134 631 134 631 141 c 2,62,-1
 631 295 l 2,63,64
 631 302 631 302 624 302 c 2,65,-1
 467 302 l 1,58,-1
333 603 m 1,66,-1
 176 603 l 2,67,68
 169 603 169 603 169 596 c 2,69,-1
 169 443 l 2,70,71
 169 436 169 436 176 436 c 2,72,-1
 333 436 l 1,73,-1
 333 603 l 1,66,-1
EndSplineSet
EndChar

StartChar: dotaccent
Encoding: 729 729 123
Width: 238
Flags: W
HStem: 806 166<63.5781 195.373>
VStem: 46 170<826.111 953.831>
LayerCount: 2
Fore
SplineSet
148 972 m 2,0,1
 176 972 176 972 196 952 c 128,-1,2
 216 932 216 932 216 905 c 2,3,-1
 216 872 l 2,4,5
 216 845 216 845 196 825.5 c 128,-1,6
 176 806 176 806 148 806 c 2,7,-1
 114 806 l 2,8,9
 86 806 86 806 66 826 c 128,-1,10
 46 846 46 846 46 872 c 2,11,-1
 46 905 l 2,12,13
 46 932 46 932 66 952 c 128,-1,14
 86 972 86 972 114 972 c 2,15,-1
 148 972 l 2,0,1
EndSplineSet
EndChar

StartChar: dotlessi
Encoding: 305 305 124
Width: 219
Flags: W
HStem: 0 21G<53 187> 574 20G<53 187>
VStem: 53 134<0 594>
LayerCount: 2
Fore
SplineSet
53 594 m 1,0,-1
 187 594 l 1,1,-1
 187 0 l 1,2,-1
 53 0 l 1,3,-1
 53 594 l 1,0,-1
EndSplineSet
EndChar

StartChar: e
Encoding: 101 101 125
Width: 708
Flags: W
HStem: 0 134<186.57 655> 229 136<186 521> 460 134<186.57 520.308>
VStem: 52 134<134.692 229 365 459.308> 521 134<365 459.977>
CounterMasks: 1 e0
LayerCount: 2
Fore
SplineSet
514 594 m 2,0,1
 543 594 543 594 569 582.5 c 128,-1,2
 595 571 595 571 614 552.5 c 128,-1,3
 633 534 633 534 644 507.5 c 128,-1,4
 655 481 655 481 655 453 c 2,5,-1
 655 229 l 1,6,-1
 186 229 l 1,7,-1
 186 141 l 2,8,9
 186 134 186 134 194 134 c 2,10,-1
 655 134 l 1,11,-1
 655 0 l 1,12,-1
 194 0 l 2,13,14
 164 0 164 0 138.5 11.5 c 128,-1,15
 113 23 113 23 94 41.5 c 128,-1,16
 75 60 75 60 63.5 86 c 128,-1,17
 52 112 52 112 52 141 c 2,18,-1
 52 453 l 2,19,20
 52 482 52 482 63.5 508 c 128,-1,21
 75 534 75 534 94 552.5 c 128,-1,22
 113 571 113 571 138.5 582.5 c 128,-1,23
 164 594 164 594 194 594 c 2,24,-1
 514 594 l 2,0,1
521 365 m 1,25,-1
 521 453 l 2,26,27
 521 460 521 460 514 460 c 2,28,-1
 194 460 l 2,29,30
 187 460 187 460 186 453 c 2,31,-1
 186 365 l 1,32,-1
 521 365 l 1,25,-1
EndSplineSet
Substitution2: "'smcp' Lowercase to Small Capitals in Latin lookup 3 subtable" e.sc
Substitution2: "'aalt' Access All Alternates in Latin lookup 0 subtable" e.sc
EndChar

StartChar: e.sc
Encoding: 65564 -1 126
Width: 653
Flags: W
HStem: 0 134<189 600> 229 136<189 496> 461 134<189 600>
VStem: 55 134<134 229 365 461>
LayerCount: 2
Fore
SplineSet
600 461 m 1,0,-1
 189 461 l 1,1,-1
 189 365 l 1,2,-1
 496 365 l 1,3,-1
 496 229 l 1,4,-1
 189 229 l 1,5,-1
 189 134 l 1,6,-1
 600 134 l 1,7,-1
 600 0 l 1,8,-1
 55 0 l 1,9,-1
 55 595 l 1,10,-1
 600 595 l 1,11,-1
 600 461 l 1,0,-1
EndSplineSet
EndChar

StartChar: eight
Encoding: 56 56 131
Width: 854
Flags: W
HStem: 0 134<193.491 653.308> 310 124<193 654> 602 135<193.491 653.469>
VStem: 58 135<134.692 309.094 434.445 601.411> 654 134<134.491 309.605 434.078 602>
LayerCount: 2
Fore
SplineSet
788 452 m 2,0,1
 788 433 788 433 783.5 413.5 c 128,-1,2
 779 394 779 394 768 378 c 1,3,4
 779 362 779 362 783.5 343 c 128,-1,5
 788 324 788 324 788 304 c 2,6,-1
 788 141 l 2,7,8
 788 111 788 111 777 85.5 c 128,-1,9
 766 60 766 60 747 41.5 c 128,-1,10
 728 23 728 23 702 11.5 c 128,-1,11
 676 0 676 0 647 0 c 2,12,-1
 200 0 l 2,13,14
 170 0 170 0 144.5 11.5 c 128,-1,15
 119 23 119 23 100 41.5 c 128,-1,16
 81 60 81 60 69.5 86 c 128,-1,17
 58 112 58 112 58 141 c 2,18,-1
 58 304 l 2,19,20
 58 345 58 345 79 378 c 1,21,22
 59 411 59 411 58 452 c 2,23,-1
 58 596 l 2,24,25
 58 625 58 625 69.5 651 c 128,-1,26
 81 677 81 677 100 696 c 128,-1,27
 119 715 119 715 144.5 726 c 128,-1,28
 170 737 170 737 200 737 c 2,29,-1
 647 737 l 2,30,31
 673 737 673 737 697 728.5 c 128,-1,32
 721 720 721 720 740 704 c 128,-1,33
 759 688 759 688 771.5 666.5 c 128,-1,34
 784 645 784 645 788 621 c 1,35,-1
 788 452 l 2,0,1
654 304 m 2,36,37
 654 310 654 310 647 310 c 2,38,-1
 200 310 l 2,39,40
 193 310 193 310 193 304 c 2,41,-1
 193 141 l 2,42,43
 193 134 193 134 200 134 c 2,44,-1
 647 134 l 2,45,46
 654 134 654 134 654 141 c 2,47,-1
 654 304 l 2,36,37
654 595 m 2,48,49
 654 602 654 602 647 602 c 2,50,-1
 200 602 l 2,51,52
 193 602 193 602 193 595 c 2,53,-1
 193 441 l 2,54,55
 193 434 193 434 200 434 c 2,56,-1
 647 434 l 2,57,58
 654 434 654 434 654 441 c 2,59,-1
 654 595 l 2,48,49
EndSplineSet
EndChar

StartChar: ellipsis
Encoding: 8230 8230 132
Width: 587
Flags: W
HStem: 0 134<55 189 240 375 425 559>
VStem: 55 134<0 134> 240 135<0 134> 425 134<0 134>
LayerCount: 2
Fore
SplineSet
375 0 m 1,0,-1
 240 0 l 1,1,-1
 240 134 l 1,2,-1
 375 134 l 1,3,-1
 375 0 l 1,0,-1
559 0 m 1,4,-1
 425 0 l 1,5,-1
 425 134 l 1,6,-1
 559 134 l 1,7,-1
 559 0 l 1,4,-1
189 0 m 1,8,-1
 55 0 l 1,9,-1
 55 134 l 1,10,-1
 189 134 l 1,11,-1
 189 0 l 1,8,-1
EndSplineSet
EndChar

StartChar: emdash
Encoding: 8212 8212 133
Width: 841
Flags: W
HStem: 234 135<55 780>
LayerCount: 2
Fore
SplineSet
780 234 m 1,0,-1
 55 234 l 1,1,-1
 55 369 l 1,2,-1
 780 369 l 1,3,-1
 780 234 l 1,0,-1
EndSplineSet
EndChar

StartChar: endash
Encoding: 8211 8211 134
Width: 724
Flags: W
HStem: 234 135<55 669>
LayerCount: 2
Fore
SplineSet
669 234 m 1,0,-1
 55 234 l 1,1,-1
 55 369 l 1,2,-1
 669 369 l 1,3,-1
 669 234 l 1,0,-1
EndSplineSet
EndChar

StartChar: equal
Encoding: 61 61 135
Width: 653
Flags: W
HStem: 139 134<60 596> 325 134<60 596>
LayerCount: 2
Fore
SplineSet
596 139 m 1,0,-1
 60 139 l 1,1,-1
 60 273 l 1,2,-1
 596 273 l 1,3,-1
 596 139 l 1,0,-1
596 325 m 1,4,-1
 60 325 l 1,5,-1
 60 459 l 1,6,-1
 596 459 l 1,7,-1
 596 325 l 1,4,-1
EndSplineSet
EndChar

StartChar: exclam
Encoding: 33 33 136
Width: 225
Flags: W
HStem: 0 134<59 194> 717 20G<59 194>
VStem: 59 135<0 134 202 737>
LayerCount: 2
Fore
SplineSet
59 0 m 1,0,-1
 59 134 l 1,1,-1
 194 134 l 1,2,-1
 194 0 l 1,3,-1
 59 0 l 1,0,-1
59 737 m 1,4,-1
 194 737 l 1,5,-1
 194 202 l 1,6,-1
 59 202 l 1,7,-1
 59 737 l 1,4,-1
EndSplineSet
EndChar

StartChar: exclamdown
Encoding: 161 161 137
Width: 215
Flags: W
HStem: 0 21G<54 188> 603 134<54 188>
VStem: 54 134<0 536 603 737>
LayerCount: 2
Fore
SplineSet
188 603 m 1,0,-1
 54 603 l 1,1,-1
 54 737 l 1,2,-1
 188 737 l 1,3,-1
 188 603 l 1,0,-1
54 0 m 1,4,-1
 54 536 l 1,5,-1
 188 536 l 1,6,-1
 188 0 l 1,7,-1
 54 0 l 1,4,-1
EndSplineSet
EndChar

StartChar: f
Encoding: 102 102 138
Width: 447
Flags: W
HStem: 0 21G<54 188> 460 134<188 420> 653 135<188.57 420>
VStem: 54 134<0 460 594 652.411>
LayerCount: 2
Fore
SplineSet
196 653 m 2,0,1
 189 653 189 653 188 647 c 2,2,-1
 188 594 l 1,3,-1
 420 594 l 1,4,-1
 420 460 l 1,5,-1
 188 460 l 1,6,-1
 188 0 l 1,7,-1
 54 0 l 1,8,-1
 54 647 l 2,9,10
 54 676 54 676 65 702 c 128,-1,11
 76 728 76 728 95.5 747 c 128,-1,12
 115 766 115 766 140.5 777 c 128,-1,13
 166 788 166 788 196 788 c 2,14,-1
 420 788 l 1,15,-1
 420 653 l 1,16,-1
 196 653 l 2,0,1
EndSplineSet
Substitution2: "'smcp' Lowercase to Small Capitals in Latin lookup 3 subtable" f.sc
Substitution2: "'aalt' Access All Alternates in Latin lookup 0 subtable" f.sc
EndChar

StartChar: f.sc
Encoding: 65565 -1 139
Width: 605
Flags: W
HStem: 0 21G<55 189> 229 136<189 496> 461 134<189 600>
VStem: 55 134<0 229 365 461>
LayerCount: 2
Fore
SplineSet
600 595 m 1,0,-1
 600 461 l 1,1,-1
 189 461 l 1,2,-1
 189 365 l 1,3,-1
 496 365 l 1,4,-1
 496 229 l 1,5,-1
 189 229 l 1,6,-1
 189 0 l 1,7,-1
 55 0 l 1,8,-1
 55 595 l 1,9,-1
 600 595 l 1,0,-1
EndSplineSet
EndChar

StartChar: five
Encoding: 53 53 140
Width: 849
Flags: W
HStem: 0 134<193.491 653.308> 310 135<193.002 653.308> 603 134<193.002 788>
VStem: 58 135<134.692 197 445.032 603> 654 134<134.491 309.411>
LayerCount: 2
Fore
SplineSet
193 452 m 2,0,1
 193 446 193 446 200 445 c 2,2,-1
 647 445 l 2,3,4
 676 445 676 445 702 434 c 128,-1,5
 728 423 728 423 747 404 c 128,-1,6
 766 385 766 385 777 359 c 128,-1,7
 788 333 788 333 788 304 c 2,8,-1
 788 141 l 2,9,10
 788 111 788 111 777 85.5 c 128,-1,11
 766 60 766 60 747 41.5 c 128,-1,12
 728 23 728 23 702 11.5 c 128,-1,13
 676 0 676 0 647 0 c 2,14,-1
 200 0 l 2,15,16
 170 0 170 0 144.5 11.5 c 128,-1,17
 119 23 119 23 100 41.5 c 128,-1,18
 81 60 81 60 69.5 86 c 128,-1,19
 58 112 58 112 58 141 c 2,20,-1
 58 197 l 1,21,-1
 193 197 l 1,22,-1
 193 141 l 2,23,24
 193 134 193 134 200 134 c 2,25,-1
 647 134 l 2,26,27
 654 134 654 134 654 141 c 2,28,-1
 654 304 l 2,29,30
 654 310 654 310 647 310 c 2,31,-1
 58 310 l 1,32,-1
 58 737 l 1,33,-1
 788 737 l 1,34,-1
 788 603 l 1,35,-1
 200 603 l 2,36,37
 193 603 193 603 193 596 c 2,38,-1
 193 452 l 2,0,1
EndSplineSet
EndChar

StartChar: four
Encoding: 52 52 141
Width: 747
Flags: W
HStem: 0 21G<470 604> 185 134<215 470 604 708> 717 20G<455.84 604>
VStem: 470 134<0 185 319 526>
LayerCount: 2
Fore
SplineSet
708 319 m 1,0,-1
 708 185 l 1,1,-1
 604 185 l 1,2,-1
 604 0 l 1,3,-1
 470 0 l 1,4,-1
 470 185 l 1,5,-1
 6 185 l 1,6,-1
 6 311 l 1,7,-1
 478 737 l 1,8,-1
 604 737 l 1,9,-1
 604 319 l 1,10,-1
 708 319 l 1,0,-1
215 319 m 1,11,-1
 470 319 l 1,12,-1
 470 526 l 1,13,-1
 215 319 l 1,11,-1
EndSplineSet
Substitution2: "'ss03' Style Set 3 in Latin lookup 6 subtable" four.alt
Substitution2: "'aalt' Access All Alternates in Latin lookup 0 subtable" four.alt
EndChar

StartChar: four.alt
Encoding: 57351 57351 142
Width: 740
Flags: W
HStem: 0 21G<473 607> 185 134<183 473 607 711> 717 20G<356.904 500>
VStem: 473 134<0 185 319 465>
LayerCount: 2
Fore
SplineSet
711 319 m 1,0,-1
 711 185 l 1,1,-1
 607 185 l 1,2,-1
 607 0 l 1,3,-1
 473 0 l 1,4,-1
 473 185 l 1,5,-1
 9 185 l 1,6,-1
 9 310 l 1,7,-1
 374 737 l 1,8,-1
 500 737 l 1,9,-1
 500 669 l 1,10,-1
 183 319 l 1,11,-1
 473 319 l 1,12,-1
 473 465 l 1,13,-1
 607 465 l 1,14,-1
 607 319 l 1,15,-1
 711 319 l 1,0,-1
EndSplineSet
EndChar

StartChar: g
Encoding: 103 103 143
Width: 699
Flags: W
HStem: -236 136<141 510.407> 0 134<176.491 511> 460 134<176.692 510.407>
VStem: 42 134<134.692 459.308> 511 134<-99.5854 0 134 459.977>
LayerCount: 2
Fore
SplineSet
645 -94 m 2,0,1
 645 -124 645 -124 634.5 -149.5 c 128,-1,2
 624 -175 624 -175 604.5 -194 c 128,-1,3
 585 -213 585 -213 559.5 -224.5 c 128,-1,4
 534 -236 534 -236 505 -236 c 2,5,-1
 141 -236 l 1,6,-1
 141 -100 l 1,7,-1
 505 -100 l 2,8,9
 511 -100 511 -100 511 -94 c 2,10,-1
 511 0 l 1,11,-1
 183 0 l 2,12,13
 153 0 153 0 127.5 11.5 c 128,-1,14
 102 23 102 23 83.5 41.5 c 128,-1,15
 65 60 65 60 53.5 86 c 128,-1,16
 42 112 42 112 42 141 c 2,17,-1
 42 453 l 2,18,19
 42 482 42 482 53.5 508 c 128,-1,20
 65 534 65 534 83.5 552.5 c 128,-1,21
 102 571 102 571 128 582.5 c 128,-1,22
 154 594 154 594 183 594 c 2,23,-1
 505 594 l 2,24,25
 534 594 534 594 559.5 582.5 c 128,-1,26
 585 571 585 571 604.5 552.5 c 128,-1,27
 624 534 624 534 634.5 507.5 c 128,-1,28
 645 481 645 481 645 453 c 2,29,-1
 645 -94 l 2,0,1
505 134 m 2,30,31
 511 134 511 134 511 141 c 2,32,-1
 511 453 l 2,33,34
 511 460 511 460 505 460 c 2,35,-1
 183 460 l 2,36,37
 176 460 176 460 176 453 c 2,38,-1
 176 141 l 2,39,40
 176 134 176 134 183 134 c 2,41,-1
 505 134 l 2,30,31
EndSplineSet
Substitution2: "'smcp' Lowercase to Small Capitals in Latin lookup 3 subtable" g.sc
Substitution2: "'aalt' Access All Alternates in Latin lookup 0 subtable" g.sc
EndChar

StartChar: g.sc
Encoding: 65566 -1 144
Width: 706
Flags: W
HStem: 0 134<186.57 520.308> 201 134<355 521> 461 134<186.57 520.308>
VStem: 52 134<134.692 460.308> 521 134<134.491 201 422 460.977>
LayerCount: 2
Fore
SplineSet
655 422 m 1,0,-1
 521 422 l 1,1,-1
 521 454 l 2,2,3
 521 461 521 461 514 461 c 2,4,-1
 194 461 l 2,5,6
 187 461 187 461 186 454 c 2,7,-1
 186 141 l 2,8,9
 186 134 186 134 194 134 c 2,10,-1
 514 134 l 2,11,12
 521 134 521 134 521 141 c 2,13,-1
 521 201 l 1,14,-1
 355 201 l 1,15,-1
 355 335 l 1,16,-1
 655 335 l 1,17,-1
 655 141 l 2,18,19
 655 111 655 111 644 85.5 c 128,-1,20
 633 60 633 60 614 41.5 c 128,-1,21
 595 23 595 23 569 11.5 c 128,-1,22
 543 0 543 0 514 0 c 2,23,-1
 194 0 l 2,24,25
 164 0 164 0 138.5 11.5 c 128,-1,26
 113 23 113 23 94 41.5 c 128,-1,27
 75 60 75 60 63.5 86 c 128,-1,28
 52 112 52 112 52 141 c 2,29,-1
 52 454 l 2,30,31
 52 483 52 483 63.5 509 c 128,-1,32
 75 535 75 535 94 553.5 c 128,-1,33
 113 572 113 572 138.5 583.5 c 128,-1,34
 164 595 164 595 194 595 c 2,35,-1
 514 595 l 2,36,37
 543 595 543 595 569 583.5 c 128,-1,38
 595 572 595 572 614 553.5 c 128,-1,39
 633 535 633 535 644 508.5 c 128,-1,40
 655 482 655 482 655 454 c 2,41,-1
 655 422 l 1,0,-1
EndSplineSet
EndChar

StartChar: germandbls
Encoding: 223 223 145
Width: 852
Flags: W
HStem: 0 134<280 653.308> 307 124<280 654> 595 135<193.491 653.469>
VStem: 58 135<0 594.411> 654 134<134.491 306.605 431.078 595>
LayerCount: 2
Fore
SplineSet
788 449 m 2,0,1
 788 430 788 430 783.5 410.5 c 128,-1,2
 779 391 779 391 768 375 c 1,3,4
 779 359 779 359 783.5 340 c 128,-1,5
 788 321 788 321 788 301 c 2,6,-1
 788 141 l 2,7,8
 788 111 788 111 777 85.5 c 128,-1,9
 766 60 766 60 747 41.5 c 128,-1,10
 728 23 728 23 702 11.5 c 128,-1,11
 676 0 676 0 647 0 c 2,12,-1
 280 0 l 1,13,-1
 280 134 l 1,14,-1
 647 134 l 2,15,16
 654 134 654 134 654 141 c 2,17,-1
 654 301 l 2,18,19
 654 307 654 307 647 307 c 2,20,-1
 280 307 l 1,21,-1
 280 431 l 1,22,-1
 647 431 l 2,23,24
 654 431 654 431 654 438 c 2,25,-1
 654 588 l 2,26,27
 654 595 654 595 647 595 c 2,28,-1
 200 595 l 2,29,30
 193 595 193 595 193 588 c 2,31,-1
 193 0 l 1,32,-1
 58 0 l 1,33,-1
 58 589 l 2,34,35
 58 618 58 618 69.5 644 c 128,-1,36
 81 670 81 670 100 689 c 128,-1,37
 119 708 119 708 144.5 719 c 128,-1,38
 170 730 170 730 200 730 c 2,39,-1
 647 730 l 2,40,41
 673 730 673 730 697 721.5 c 128,-1,42
 721 713 721 713 740 697 c 128,-1,43
 759 681 759 681 771.5 659.5 c 128,-1,44
 784 638 784 638 788 613 c 1,45,-1
 788 449 l 2,0,1
EndSplineSet
EndChar

StartChar: grave
Encoding: 96 96 146
Width: 218
Flags: W
HStem: 805 187<80 169>
VStem: 33 183
LayerCount: 2
Fore
SplineSet
216 805 m 1,0,-1
 80 805 l 1,1,-1
 33 992 l 1,2,-1
 169 992 l 1,3,-1
 216 805 l 1,0,-1
EndSplineSet
EndChar

StartChar: greater
Encoding: 62 62 147
Width: 486
Flags: W
LayerCount: 2
Fore
SplineSet
60 146 m 1,0,-1
 327 301 l 1,1,2
 260 338 260 338 192.5 378 c 128,-1,3
 125 418 125 418 60 455 c 1,4,-1
 60 609 l 1,5,-1
 490 361 l 1,6,-1
 490 241 l 1,7,-1
 60 -9 l 1,8,-1
 60 146 l 1,0,-1
EndSplineSet
EndChar

StartChar: h
Encoding: 104 104 148
Width: 684
Flags: W
HStem: 0 21G<55 189 524 658> 460 134<189.033 523.302> 768 20G<55 189>
VStem: 55 134<0 460 594 788> 524 134<0 459.977>
LayerCount: 2
Fore
SplineSet
517 594 m 2,0,1
 546 594 546 594 571.5 582.5 c 128,-1,2
 597 571 597 571 616.5 552.5 c 128,-1,3
 636 534 636 534 647 507.5 c 128,-1,4
 658 481 658 481 658 453 c 2,5,-1
 658 0 l 1,6,-1
 524 0 l 1,7,-1
 524 453 l 2,8,9
 524 460 524 460 517 460 c 2,10,-1
 197 460 l 2,11,12
 190 460 190 460 189 453 c 2,13,-1
 189 0 l 1,14,-1
 55 0 l 1,15,-1
 55 788 l 1,16,-1
 189 788 l 1,17,-1
 189 594 l 1,18,-1
 517 594 l 2,0,1
EndSplineSet
Substitution2: "'smcp' Lowercase to Small Capitals in Latin lookup 3 subtable" h.sc
Substitution2: "'aalt' Access All Alternates in Latin lookup 0 subtable" h.sc
EndChar

StartChar: h.sc
Encoding: 65567 -1 149
Width: 732
Flags: W
HStem: 0 21G<55 189 541 676> 229 136<189 541> 574 20G<55 189 541 676>
VStem: 55 134<0 229 365 594> 541 135<0 229 365 594>
LayerCount: 2
Fore
SplineSet
676 594 m 1,0,-1
 676 0 l 1,1,-1
 541 0 l 1,2,-1
 541 229 l 1,3,-1
 189 229 l 1,4,-1
 189 0 l 1,5,-1
 55 0 l 1,6,-1
 55 594 l 1,7,-1
 189 594 l 1,8,-1
 189 365 l 1,9,-1
 541 365 l 1,10,-1
 541 594 l 1,11,-1
 676 594 l 1,0,-1
EndSplineSet
EndChar

StartChar: hyphen
Encoding: 45 45 150
Width: 529
Flags: W
HStem: 236 134<60 479>
LayerCount: 2
Fore
SplineSet
479 236 m 1,0,-1
 60 236 l 1,1,-1
 60 370 l 1,2,-1
 479 370 l 1,3,-1
 479 236 l 1,0,-1
EndSplineSet
EndChar

StartChar: i
Encoding: 105 105 151
Width: 238
Flags: W
HStem: 0 21G<53 187> 574 20G<53 187> 653 135<53 187>
VStem: 53 134<0 594 653 788>
LayerCount: 2
Fore
SplineSet
53 594 m 1,0,-1
 187 594 l 1,1,-1
 187 0 l 1,2,-1
 53 0 l 1,3,-1
 53 594 l 1,0,-1
187 788 m 1,4,-1
 187 653 l 1,5,-1
 53 653 l 1,6,-1
 53 788 l 1,7,-1
 187 788 l 1,4,-1
EndSplineSet
Substitution2: "'smcp' Lowercase to Small Capitals in Latin lookup 3 subtable" i.sc
Substitution2: "'aalt' Access All Alternates in Latin lookup 0 subtable" i.sc
EndChar

StartChar: i.sc
Encoding: 65568 -1 152
Width: 219
Flags: W
HStem: 0 21G<55 189> 574 20G<55 189>
VStem: 55 134<0 594>
LayerCount: 2
Fore
SplineSet
55 594 m 1,0,-1
 189 594 l 1,1,-1
 189 0 l 1,2,-1
 55 0 l 1,3,-1
 55 594 l 1,0,-1
EndSplineSet
EndChar

StartChar: j
Encoding: 106 106 157
Width: 244
Flags: W
HStem: -224 135<-191 71.9688> 574 20G<72 206> 653 135<72 206>
VStem: 72 134<-88.5854 594 653 788>
LayerCount: 2
Fore
SplineSet
206 788 m 1,0,-1
 206 653 l 1,1,-1
 72 653 l 1,2,-1
 72 788 l 1,3,-1
 206 788 l 1,0,-1
206 -83 m 2,4,5
 206 -113 206 -113 194.5 -138.5 c 128,-1,6
 183 -164 183 -164 164 -183 c 128,-1,7
 145 -202 145 -202 119 -213 c 128,-1,8
 93 -224 93 -224 65 -224 c 2,9,-1
 -191 -224 l 1,10,-1
 -191 -89 l 1,11,-1
 65 -89 l 2,12,13
 72 -89 72 -89 72 -83 c 2,14,-1
 72 594 l 1,15,-1
 206 594 l 1,16,-1
 206 -83 l 2,4,5
EndSplineSet
Substitution2: "'smcp' Lowercase to Small Capitals in Latin lookup 3 subtable" j.sc
Substitution2: "'aalt' Access All Alternates in Latin lookup 0 subtable" j.sc
EndChar

StartChar: j.sc
Encoding: 65569 -1 158
Width: 672
Flags: W
HStem: 0 134<139.497 483.308> 574 20G<484 618>
VStem: 5 134<134.692 214> 484 134<134.491 594>
LayerCount: 2
Fore
SplineSet
484 594 m 1,0,-1
 618 594 l 1,1,-1
 618 141 l 2,2,3
 618 111 618 111 607 85.5 c 128,-1,4
 596 60 596 60 577 41.5 c 128,-1,5
 558 23 558 23 532 11.5 c 128,-1,6
 506 0 506 0 477 0 c 2,7,-1
 146 0 l 2,8,9
 116 0 116 0 91 11.5 c 128,-1,10
 66 23 66 23 47 41.5 c 128,-1,11
 28 60 28 60 16.5 86 c 128,-1,12
 5 112 5 112 5 141 c 2,13,-1
 5 214 l 1,14,-1
 139 214 l 1,15,-1
 139 141 l 2,16,17
 139 134 139 134 146 134 c 2,18,-1
 477 134 l 2,19,20
 484 134 484 134 484 141 c 2,21,-1
 484 594 l 1,0,-1
EndSplineSet
EndChar

StartChar: k
Encoding: 107 107 159
Width: 661
Flags: W
HStem: 0 21G<55 189 488.485 651> 229 136<189 295> 574 20G<488.485 651> 768 20G<55 189>
VStem: 55 134<0 229 365 788>
LayerCount: 2
Fore
SplineSet
651 594 m 1,0,-1
 651 559 l 1,1,-1
 414 297 l 1,2,-1
 651 35 l 1,3,-1
 651 0 l 1,4,-1
 507 0 l 1,5,-1
 295 229 l 1,6,-1
 189 229 l 1,7,-1
 189 0 l 1,8,-1
 55 0 l 1,9,-1
 55 788 l 1,10,-1
 189 788 l 1,11,-1
 189 365 l 1,12,-1
 295 365 l 1,13,-1
 507 594 l 1,14,-1
 651 594 l 1,0,-1
EndSplineSet
Substitution2: "'smcp' Lowercase to Small Capitals in Latin lookup 3 subtable" k.sc
Substitution2: "'salt' Stylistic Alternatives in Latin lookup 2 subtable" k.alt
AlternateSubs2: "'aalt' Access All Alternates in Latin lookup 1 subtable" k.sc k.alt
EndChar

StartChar: k.alt
Encoding: 65570 -1 160
Width: 685
Flags: W
HStem: 0 21G<55 189 524 658> 229 136<189 523.998> 574 20G<524 658> 767 20G<55 189>
VStem: 55 134<0 229 365 787> 524 134<0 228.094 365.906 594>
LayerCount: 2
Fore
SplineSet
658 371 m 2,0,1
 658 330 658 330 638 297 c 1,2,3
 658 264 658 264 658 223 c 2,4,-1
 658 0 l 1,5,-1
 524 0 l 1,6,-1
 524 223 l 2,7,8
 524 229 524 229 517 229 c 2,9,-1
 189 229 l 1,10,-1
 189 0 l 1,11,-1
 55 0 l 1,12,-1
 55 787 l 1,13,-1
 189 787 l 1,14,-1
 189 365 l 1,15,-1
 517 365 l 2,16,17
 524 365 524 365 524 371 c 2,18,-1
 524 594 l 1,19,-1
 658 594 l 1,20,-1
 658 371 l 2,0,1
EndSplineSet
EndChar

StartChar: k.sc
Encoding: 65571 -1 161
Width: 698
Flags: W
HStem: 0 21G<55 189 488.485 651> 229 136<189 295> 574 20G<55 189 488.485 651>
VStem: 55 134<0 229 365 594>
LayerCount: 2
Fore
SplineSet
651 594 m 1,0,-1
 651 559 l 1,1,-1
 414 297 l 1,2,-1
 651 35 l 1,3,-1
 651 0 l 1,4,-1
 507 0 l 1,5,-1
 295 229 l 1,6,-1
 189 229 l 1,7,-1
 189 0 l 1,8,-1
 55 0 l 1,9,-1
 55 594 l 1,10,-1
 189 594 l 1,11,-1
 189 365 l 1,12,-1
 295 365 l 1,13,-1
 507 594 l 1,14,-1
 651 594 l 1,0,-1
EndSplineSet
EndChar

StartChar: l
Encoding: 108 108 162
Width: 352
Flags: W
HStem: 0 134<188.491 314> 768 20G<53 188>
VStem: 53 135<134.692 788>
LayerCount: 2
Fore
SplineSet
188 788 m 1,0,-1
 188 141 l 2,1,2
 188 134 188 134 195 134 c 2,3,-1
 314 134 l 1,4,-1
 314 0 l 1,5,-1
 195 0 l 2,6,7
 165 0 165 0 139.5 11.5 c 128,-1,8
 114 23 114 23 95 41.5 c 128,-1,9
 76 60 76 60 64.5 86 c 128,-1,10
 53 112 53 112 53 141 c 2,11,-1
 53 788 l 1,12,-1
 188 788 l 1,0,-1
EndSplineSet
Substitution2: "'smcp' Lowercase to Small Capitals in Latin lookup 3 subtable" l.sc
Substitution2: "'aalt' Access All Alternates in Latin lookup 0 subtable" l.sc
EndChar

StartChar: l.sc
Encoding: 65572 -1 163
Width: 674
Flags: W
HStem: 0 134<189 669> 574 20G<55 189>
VStem: 55 134<134 594>
LayerCount: 2
Fore
SplineSet
55 594 m 1,0,-1
 189 594 l 1,1,-1
 189 134 l 1,2,-1
 669 134 l 1,3,-1
 669 0 l 1,4,-1
 55 0 l 1,5,-1
 55 594 l 1,0,-1
EndSplineSet
EndChar

StartChar: less
Encoding: 60 60 164
Width: 484
Flags: W
LayerCount: 2
Fore
SplineSet
434 148 m 1,0,-1
 434 -7 l 1,1,-1
 5 243 l 1,2,-1
 5 364 l 1,3,-1
 434 611 l 1,4,-1
 434 457 l 1,5,-1
 167 303 l 1,6,-1
 434 148 l 1,0,-1
EndSplineSet
EndChar

StartChar: m
Encoding: 109 109 165
Width: 1001
Flags: W
HStem: 0 21G<55 189 427 562 800 933> 460 134<189.033 426.999 562.001 799.195>
VStem: 55 134<0 460> 427 135<0 460> 800 133<0 459.977>
LayerCount: 2
Fore
SplineSet
792 594 m 2,0,1
 821 594 821 594 846.5 582.5 c 128,-1,2
 872 571 872 571 891 552.5 c 128,-1,3
 910 534 910 534 921.5 507.5 c 128,-1,4
 933 481 933 481 933 453 c 2,5,-1
 933 0 l 1,6,-1
 800 0 l 1,7,-1
 800 453 l 2,8,9
 800 460 800 460 792 460 c 2,10,-1
 568 460 l 2,11,12
 562 460 562 460 562 453 c 2,13,-1
 562 0 l 1,14,-1
 427 0 l 1,15,-1
 427 453 l 2,16,17
 427 460 427 460 421 460 c 2,18,-1
 197 460 l 2,19,20
 190 460 190 460 189 453 c 2,21,-1
 189 0 l 1,22,-1
 55 0 l 1,23,-1
 55 594 l 1,24,-1
 792 594 l 2,0,1
EndSplineSet
Substitution2: "'smcp' Lowercase to Small Capitals in Latin lookup 3 subtable" m.sc
Substitution2: "'aalt' Access All Alternates in Latin lookup 0 subtable" m.sc
EndChar

StartChar: m.sc
Encoding: 65573 -1 166
Width: 843
Flags: W
HStem: 0 21G<55 189 647 782> 575 20G<55 216.981 620.084 782>
VStem: 55 134<0 401> 647 135<0 402>
LayerCount: 2
Fore
SplineSet
634 595 m 1,0,-1
 782 595 l 1,1,-1
 782 0 l 1,2,-1
 647 0 l 1,3,-1
 647 402 l 1,4,-1
 419 76 l 1,5,-1
 189 401 l 1,6,-1
 189 0 l 1,7,-1
 55 0 l 1,8,-1
 55 595 l 1,9,-1
 203 595 l 1,10,-1
 419 286 l 1,11,-1
 634 595 l 1,0,-1
EndSplineSet
EndChar

StartChar: minus
Encoding: 8722 8722 167
Width: 529
Flags: W
HStem: 236 134<60 479>
LayerCount: 2
Fore
SplineSet
479 236 m 1,0,-1
 60 236 l 1,1,-1
 60 370 l 1,2,-1
 479 370 l 1,3,-1
 479 236 l 1,0,-1
EndSplineSet
EndChar

StartChar: multiply
Encoding: 215 215 168
Width: 559
Flags: W
LayerCount: 2
Fore
SplineSet
512 492 m 1,0,-1
 370 307 l 1,1,-1
 512 122 l 1,2,-1
 512 88 l 1,3,-1
 365 88 l 1,4,-1
 283 200 l 1,5,6
 263 172 263 172 241.5 143.5 c 128,-1,7
 220 115 220 115 201 88 c 1,8,-1
 54 88 l 1,9,-1
 54 122 l 1,10,-1
 197 307 l 1,11,12
 161 353 161 353 125 399 c 128,-1,13
 89 445 89 445 54 492 c 1,14,-1
 54 525 l 1,15,-1
 201 525 l 1,16,-1
 283 414 l 1,17,18
 303 442 303 442 324 470.5 c 128,-1,19
 345 499 345 499 365 525 c 1,20,-1
 512 525 l 1,21,-1
 512 492 l 1,0,-1
EndSplineSet
EndChar

StartChar: n
Encoding: 110 110 169
Width: 712
Flags: W
HStem: 0 21G<55 189 524 658> 460 134<189.033 523.308>
VStem: 55 134<0 460> 524 134<0 459.977>
LayerCount: 2
Fore
SplineSet
517 594 m 2,0,1
 546 594 546 594 572 582.5 c 128,-1,2
 598 571 598 571 617 552.5 c 128,-1,3
 636 534 636 534 647 507.5 c 128,-1,4
 658 481 658 481 658 453 c 2,5,-1
 658 0 l 1,6,-1
 524 0 l 1,7,-1
 524 453 l 2,8,9
 524 460 524 460 517 460 c 2,10,-1
 197 460 l 2,11,12
 190 460 190 460 189 453 c 2,13,-1
 189 0 l 1,14,-1
 55 0 l 1,15,-1
 55 594 l 1,16,-1
 517 594 l 2,0,1
EndSplineSet
Substitution2: "'smcp' Lowercase to Small Capitals in Latin lookup 3 subtable" n.sc
Substitution2: "'aalt' Access All Alternates in Latin lookup 0 subtable" n.sc
EndChar

StartChar: n.sc
Encoding: 65574 -1 170
Width: 724
Flags: W
HStem: 0 21G<55 189 504.358 669> 574 20G<55 218.776 535 669>
VStem: 55 134<0 399> 535 134<197 594>
LayerCount: 2
Fore
SplineSet
535 594 m 1,0,-1
 669 594 l 1,1,-1
 669 0 l 1,2,-1
 521 0 l 1,3,-1
 189 399 l 1,4,-1
 189 0 l 1,5,-1
 55 0 l 1,6,-1
 55 594 l 1,7,-1
 202 594 l 1,8,-1
 535 197 l 1,9,-1
 535 594 l 1,0,-1
EndSplineSet
EndChar

StartChar: nine
Encoding: 57 57 171
Width: 847
Flags: W
HStem: 0 134<121.462 648.407> 10 124<108.664 433> 295 135<188.491 649> 603 134<188.491 648.407>
VStem: 53 135<430.589 602.308> 649 134<134.491 294.999 430 602.308>
LayerCount: 2
Fore
SplineSet
195 295 m 2,0,1
 165 295 165 295 139.5 306 c 128,-1,2
 114 317 114 317 95 336 c 128,-1,3
 76 355 76 355 64.5 381 c 128,-1,4
 53 407 53 407 53 436 c 2,5,-1
 53 596 l 2,6,7
 53 625 53 625 64.5 651 c 128,-1,8
 76 677 76 677 95 696 c 128,-1,9
 114 715 114 715 139.5 726 c 128,-1,10
 165 737 165 737 195 737 c 2,11,-1
 643 737 l 2,12,13
 672 737 672 737 697.5 726 c 128,-1,14
 723 715 723 715 742.5 696 c 128,-1,15
 762 677 762 677 772.5 651 c 128,-1,16
 783 625 783 625 783 596 c 2,17,-1
 783 141 l 2,18,19
 783 111 783 111 772.5 85.5 c 128,-1,20
 762 60 762 60 742.5 41.5 c 128,-1,21
 723 23 723 23 697.5 11.5 c 128,-1,22
 672 0 672 0 643 0 c 2,23,-1
 195 0 l 2,24,25
 168 0 168 0 144.5 10 c 128,-1,26
 121 20 121 20 102 38 c 128,-1,27
 83 56 83 56 70 80.5 c 128,-1,28
 57 105 57 105 52 134 c 1,29,-1
 643 134 l 2,30,31
 649 134 649 134 649 141 c 2,32,-1
 649 289 l 2,33,34
 649 295 649 295 643 295 c 2,35,-1
 195 295 l 2,0,1
188 436 m 2,36,37
 188 430 188 430 195 430 c 2,38,-1
 649 430 l 1,39,-1
 649 596 l 2,40,41
 649 603 649 603 643 603 c 2,42,-1
 195 603 l 2,43,44
 189 603 189 603 188 596 c 2,45,-1
 188 436 l 2,36,37
EndSplineSet
Substitution2: "'ss03' Style Set 3 in Latin lookup 6 subtable" nine.alt
Substitution2: "'aalt' Access All Alternates in Latin lookup 0 subtable" nine.alt
EndChar

StartChar: nine.alt
Encoding: 57347 57347 172
Width: 802
Flags: W
HStem: 0 21G<608 742> 294 134<147.491 607.999> 601 134<147.491 607.407>
VStem: 12 135<428.419 600.308> 608 134<0 293.998 428 600.308>
LayerCount: 2
Fore
SplineSet
602 735 m 2,0,1
 631 735 631 735 656.5 724 c 128,-1,2
 682 713 682 713 701.5 694 c 128,-1,3
 721 675 721 675 731.5 649 c 128,-1,4
 742 623 742 623 742 594 c 2,5,-1
 742 0 l 1,6,-1
 608 0 l 1,7,-1
 608 287 l 2,8,9
 608 294 608 294 602 294 c 2,10,-1
 154 294 l 2,11,12
 124 294 124 294 98.5 304.5 c 128,-1,13
 73 315 73 315 54 334.5 c 128,-1,14
 35 354 35 354 23.5 379 c 128,-1,15
 12 404 12 404 12 434 c 2,16,-1
 12 594 l 2,17,18
 12 623 12 623 23.5 649 c 128,-1,19
 35 675 35 675 54 694 c 128,-1,20
 73 713 73 713 98.5 724 c 128,-1,21
 124 735 124 735 154 735 c 2,22,-1
 602 735 l 2,0,1
608 594 m 2,23,24
 608 601 608 601 602 601 c 2,25,-1
 154 601 l 2,26,27
 148 601 148 601 147 594 c 2,28,-1
 147 434 l 2,29,30
 147 428 147 428 154 428 c 2,31,-1
 608 428 l 1,32,-1
 608 594 l 2,23,24
EndSplineSet
EndChar

StartChar: numbersign
Encoding: 35 35 174
Width: 816
Flags: W
HStem: 0 21G<68 208.5 382 522.5> 164 134<33 118 294 432 608 745> 445 135<62 206 384 520 698 775> 717 20G<293.503 437 608.376 752>
LayerCount: 2
Fore
SplineSet
775 445 m 1,0,-1
 655 445 l 1,1,-1
 608 298 l 1,2,-1
 745 298 l 1,3,-1
 745 164 l 1,4,-1
 566 164 l 1,5,6
 555 125 555 125 541.5 81 c 128,-1,7
 528 37 528 37 517 0 c 1,8,-1
 382 0 l 1,9,-1
 432 164 l 1,10,-1
 252 164 l 1,11,12
 241 125 241 125 227.5 81 c 128,-1,13
 214 37 214 37 203 0 c 1,14,-1
 68 0 l 1,15,-1
 118 164 l 1,16,-1
 33 164 l 1,17,-1
 33 298 l 1,18,-1
 159 298 l 1,19,-1
 206 445 l 1,20,-1
 62 445 l 1,21,-1
 62 580 l 1,22,-1
 249 580 l 1,23,-1
 300 737 l 1,24,-1
 437 737 l 1,25,-1
 384 580 l 1,26,-1
 563 580 l 1,27,-1
 615 737 l 1,28,-1
 752 737 l 1,29,-1
 698 580 l 1,30,-1
 775 580 l 1,31,-1
 775 445 l 1,0,-1
473 298 m 1,32,-1
 520 445 l 1,33,-1
 341 445 l 1,34,-1
 294 298 l 1,35,-1
 473 298 l 1,32,-1
EndSplineSet
EndChar

StartChar: o
Encoding: 111 111 175
Width: 708
Flags: W
HStem: 0 134<186.57 520.308> 460 134<186.57 520.308>
VStem: 52 134<134.692 459.308> 521 134<134.491 459.977>
LayerCount: 2
Fore
SplineSet
514 594 m 2,0,1
 543 594 543 594 569 582.5 c 128,-1,2
 595 571 595 571 614 552.5 c 128,-1,3
 633 534 633 534 644 507.5 c 128,-1,4
 655 481 655 481 655 453 c 2,5,-1
 655 141 l 2,6,7
 655 111 655 111 644 85.5 c 128,-1,8
 633 60 633 60 614 41.5 c 128,-1,9
 595 23 595 23 569 11.5 c 128,-1,10
 543 0 543 0 514 0 c 2,11,-1
 194 0 l 2,12,13
 164 0 164 0 138.5 11.5 c 128,-1,14
 113 23 113 23 94 41.5 c 128,-1,15
 75 60 75 60 63.5 86 c 128,-1,16
 52 112 52 112 52 141 c 2,17,-1
 52 453 l 2,18,19
 52 482 52 482 63.5 508 c 128,-1,20
 75 534 75 534 94 552.5 c 128,-1,21
 113 571 113 571 138.5 582.5 c 128,-1,22
 164 594 164 594 194 594 c 2,23,-1
 514 594 l 2,0,1
194 460 m 2,24,25
 187 460 187 460 186 453 c 2,26,-1
 186 141 l 2,27,28
 186 134 186 134 194 134 c 2,29,-1
 514 134 l 2,30,31
 521 134 521 134 521 141 c 2,32,-1
 521 453 l 2,33,34
 521 460 521 460 514 460 c 2,35,-1
 194 460 l 2,24,25
EndSplineSet
Substitution2: "'smcp' Lowercase to Small Capitals in Latin lookup 3 subtable" o.sc
Substitution2: "'aalt' Access All Alternates in Latin lookup 0 subtable" o.sc
EndChar

StartChar: o.sc
Encoding: 65575 -1 176
Width: 708
Flags: W
HStem: 0 134<186.57 520.308> 460 134<186.57 520.308>
VStem: 52 134<134.692 459.308> 521 134<134.491 459.977>
LayerCount: 2
Fore
SplineSet
514 594 m 2,0,1
 543 594 543 594 569 582.5 c 128,-1,2
 595 571 595 571 614 552.5 c 128,-1,3
 633 534 633 534 644 507.5 c 128,-1,4
 655 481 655 481 655 453 c 2,5,-1
 655 141 l 2,6,7
 655 111 655 111 644 85.5 c 128,-1,8
 633 60 633 60 614 41.5 c 128,-1,9
 595 23 595 23 569 11.5 c 128,-1,10
 543 0 543 0 514 0 c 2,11,-1
 194 0 l 2,12,13
 164 0 164 0 138.5 11.5 c 128,-1,14
 113 23 113 23 94 41.5 c 128,-1,15
 75 60 75 60 63.5 86 c 128,-1,16
 52 112 52 112 52 141 c 2,17,-1
 52 453 l 2,18,19
 52 482 52 482 63.5 508 c 128,-1,20
 75 534 75 534 94 552.5 c 128,-1,21
 113 571 113 571 138.5 582.5 c 128,-1,22
 164 594 164 594 194 594 c 2,23,-1
 514 594 l 2,0,1
514 134 m 2,24,25
 521 134 521 134 521 141 c 2,26,-1
 521 453 l 2,27,28
 521 460 521 460 514 460 c 2,29,-1
 194 460 l 2,30,31
 187 460 187 460 186 453 c 2,32,-1
 186 141 l 2,33,34
 186 134 186 134 194 134 c 2,35,-1
 514 134 l 2,24,25
EndSplineSet
EndChar

StartChar: oe
Encoding: 339 339 180
Width: 1205
Flags: W
HStem: 0 134<187.57 522 656 1125> 229 136<656 991> 460 134<187.57 522 656.033 990.407>
VStem: 53 134<134.692 459.308> 522 134<134 229 365 460> 991 134<365 459.977>
CounterMasks: 1 fc
LayerCount: 2
Fore
SplineSet
656 229 m 1,0,-1
 656 141 l 2,1,2
 656 134 656 134 664 134 c 2,3,-1
 1125 134 l 1,4,-1
 1125 0 l 1,5,-1
 195 0 l 2,6,7
 165 0 165 0 139.5 11.5 c 128,-1,8
 114 23 114 23 94.5 41.5 c 128,-1,9
 75 60 75 60 64 86 c 128,-1,10
 53 112 53 112 53 141 c 2,11,-1
 53 453 l 2,12,13
 53 482 53 482 64 508 c 128,-1,14
 75 534 75 534 94.5 552.5 c 128,-1,15
 114 571 114 571 139.5 582.5 c 128,-1,16
 165 594 165 594 195 594 c 2,17,-1
 985 594 l 2,18,19
 1014 594 1014 594 1039.5 582.5 c 128,-1,20
 1065 571 1065 571 1084.5 552.5 c 128,-1,21
 1104 534 1104 534 1114.5 507.5 c 128,-1,22
 1125 481 1125 481 1125 453 c 2,23,-1
 1125 229 l 1,24,-1
 656 229 l 1,0,-1
664 460 m 2,25,26
 657 460 657 460 656 453 c 2,27,-1
 656 365 l 1,28,-1
 991 365 l 1,29,-1
 991 453 l 2,30,31
 991 460 991 460 985 460 c 2,32,-1
 664 460 l 2,25,26
515 134 m 2,33,34
 522 134 522 134 522 141 c 2,35,-1
 522 453 l 2,36,37
 522 460 522 460 515 460 c 2,38,-1
 195 460 l 2,39,40
 188 460 188 460 187 453 c 2,41,-1
 187 141 l 2,42,43
 187 134 187 134 195 134 c 2,44,-1
 515 134 l 2,33,34
EndSplineSet
EndChar

StartChar: one
Encoding: 49 49 182
Width: 400
Flags: W
HStem: 0 21G<238 372> 717 20G<206.245 372>
VStem: 238 134<0 542>
LayerCount: 2
Fore
SplineSet
223 737 m 1,0,-1
 372 737 l 1,1,-1
 372 0 l 1,2,-1
 238 0 l 1,3,-1
 238 542 l 1,4,5
 223 524 223 524 208 506.5 c 128,-1,6
 193 489 193 489 178 472 c 1,7,-1
 1 472 l 1,8,-1
 223 737 l 1,0,-1
EndSplineSet
EndChar

StartChar: p
Encoding: 112 112 184
Width: 679
Flags: W
HStem: -236 21G<55 189> 0 134<189.002 523.308> 460 134<189.033 523.308>
VStem: 55 134<-236 0 134 460> 524 134<134.491 459.977>
LayerCount: 2
Fore
SplineSet
517 594 m 2,0,1
 546 594 546 594 572 582.5 c 128,-1,2
 598 571 598 571 617 552.5 c 128,-1,3
 636 534 636 534 647 507.5 c 128,-1,4
 658 481 658 481 658 453 c 2,5,-1
 658 141 l 2,6,7
 658 111 658 111 647 85.5 c 128,-1,8
 636 60 636 60 617 41.5 c 128,-1,9
 598 23 598 23 572 11.5 c 128,-1,10
 546 0 546 0 517 0 c 2,11,-1
 189 0 l 1,12,-1
 189 -236 l 1,13,-1
 55 -236 l 1,14,-1
 55 594 l 1,15,-1
 517 594 l 2,0,1
524 453 m 2,16,17
 524 460 524 460 517 460 c 2,18,-1
 197 460 l 2,19,20
 190 460 190 460 189 453 c 2,21,-1
 189 141 l 2,22,23
 189 134 189 134 197 134 c 2,24,-1
 517 134 l 2,25,26
 524 134 524 134 524 141 c 2,27,-1
 524 453 l 2,16,17
EndSplineSet
Substitution2: "'smcp' Lowercase to Small Capitals in Latin lookup 3 subtable" p.sc
Substitution2: "'aalt' Access All Alternates in Latin lookup 0 subtable" p.sc
EndChar

StartChar: p.sc
Encoding: 65576 -1 185
Width: 675
Flags: W
HStem: 0 21G<55 189> 190 137<189.002 523.308> 460 134<189.033 523.308>
VStem: 55 134<0 191 327 460> 524 134<327.593 459.961>
LayerCount: 2
Fore
SplineSet
517 594 m 2,0,1
 546 594 546 594 572 582.5 c 128,-1,2
 598 571 598 571 617 551.5 c 128,-1,3
 636 532 636 532 647 506.5 c 128,-1,4
 658 481 658 481 658 453 c 2,5,-1
 658 333 l 2,6,7
 658 304 658 304 647 278.5 c 128,-1,8
 636 253 636 253 617 233.5 c 128,-1,9
 598 214 598 214 572 202.5 c 128,-1,10
 546 191 546 191 517 191 c 2,11,-1
 193 190 l 1,12,-1
 189 191 l 1,13,-1
 189 0 l 1,14,-1
 55 0 l 1,15,-1
 55 594 l 1,16,-1
 517 594 l 2,0,1
524 453 m 2,17,18
 524 460 524 460 517 460 c 2,19,-1
 197 460 l 2,20,21
 190 460 190 460 189 453 c 2,22,-1
 189 333 l 2,23,24
 189 327 189 327 197 327 c 2,25,-1
 517 327 l 2,26,27
 524 327 524 327 524 333 c 2,28,-1
 524 453 l 2,17,18
EndSplineSet
EndChar

StartChar: paragraph
Encoding: 182 182 186
Width: 852
Flags: W
HStem: 0 21G<439 574 653 787> 250 135<191.57 439 574 653> 595 134<191.57 439 574 653>
VStem: 57 134<385.593 594.302> 439 135<0 250 385 595> 653 134<0 250 385 595>
LayerCount: 2
Fore
SplineSet
57 588 m 2,0,1
 57 617 57 617 68.5 642.5 c 128,-1,2
 80 668 80 668 99 687.5 c 128,-1,3
 118 707 118 707 143.5 718 c 128,-1,4
 169 729 169 729 199 729 c 2,5,-1
 787 729 l 1,6,-1
 787 0 l 1,7,-1
 653 0 l 1,8,-1
 653 250 l 1,9,-1
 574 250 l 1,10,-1
 574 0 l 1,11,-1
 439 0 l 1,12,-1
 439 250 l 1,13,-1
 199 250 l 2,14,15
 169 250 169 250 143.5 261 c 128,-1,16
 118 272 118 272 99 291.5 c 128,-1,17
 80 311 80 311 68.5 336.5 c 128,-1,18
 57 362 57 362 57 391 c 2,19,-1
 57 588 l 2,0,1
574 385 m 1,20,-1
 653 385 l 1,21,-1
 653 595 l 1,22,-1
 574 595 l 1,23,-1
 574 385 l 1,20,-1
191 391 m 2,24,25
 191 385 191 385 199 385 c 2,26,-1
 439 385 l 1,27,-1
 439 595 l 1,28,-1
 199 595 l 2,29,30
 192 595 192 595 191 588 c 2,31,-1
 191 391 l 2,24,25
EndSplineSet
EndChar

StartChar: parenleft
Encoding: 40 40 187
Width: 283
Flags: W
HStem: 0 134<187.497 250> 603 134<187.497 250>
VStem: 53 134<134.692 602.308>
LayerCount: 2
Fore
SplineSet
250 134 m 1,0,-1
 250 0 l 1,1,-1
 194 0 l 2,2,3
 164 0 164 0 139 11.5 c 128,-1,4
 114 23 114 23 94.5 41.5 c 128,-1,5
 75 60 75 60 64 86 c 128,-1,6
 53 112 53 112 53 141 c 2,7,-1
 53 596 l 2,8,9
 53 625 53 625 64 651 c 128,-1,10
 75 677 75 677 94.5 696 c 128,-1,11
 114 715 114 715 139 726 c 128,-1,12
 164 737 164 737 194 737 c 2,13,-1
 250 737 l 1,14,-1
 250 603 l 1,15,-1
 194 603 l 2,16,17
 188 603 188 603 187 596 c 2,18,-1
 187 141 l 2,19,20
 187 134 187 134 194 134 c 2,21,-1
 250 134 l 1,0,-1
EndSplineSet
EndChar

StartChar: parenright
Encoding: 41 41 188
Width: 284
Flags: W
HStem: 0 134<57 119.232> 603 134<57 119.407>
VStem: 120 135<134.491 602.308>
LayerCount: 2
Fore
SplineSet
57 134 m 1,0,-1
 114 134 l 2,1,2
 120 134 120 134 120 141 c 2,3,-1
 120 596 l 2,4,5
 120 603 120 603 114 603 c 2,6,-1
 57 603 l 1,7,-1
 57 737 l 1,8,-1
 114 737 l 2,9,10
 143 737 143 737 168.5 726 c 128,-1,11
 194 715 194 715 213 696 c 128,-1,12
 232 677 232 677 243.5 651 c 128,-1,13
 255 625 255 625 255 596 c 2,14,-1
 255 141 l 2,15,16
 255 111 255 111 243.5 85.5 c 128,-1,17
 232 60 232 60 213 41.5 c 128,-1,18
 194 23 194 23 168 11.5 c 128,-1,19
 142 0 142 0 114 0 c 2,20,-1
 57 0 l 1,21,-1
 57 134 l 1,0,-1
EndSplineSet
EndChar

StartChar: percent
Encoding: 37 37 189
Width: 989
Flags: W
HStem: -1 115<669.611 808.528> 245 114<669.335 808.528> 370 115<164.707 303.964> 615 115<164.437 303.705>
VStem: 49 115<485.611 614.665> 304 116<485.611 614.92> 554 115<114.335 244.528> 809 115<114.611 244.528>
LayerCount: 2
Fore
SplineSet
861 737 m 1,0,-1
 861 591 l 1,1,-1
 165 0 l 1,2,-1
 131 0 l 1,3,-1
 131 146 l 1,4,-1
 827 737 l 1,5,-1
 861 737 l 1,0,-1
279 730 m 2,6,7
 308 730 308 730 333.5 719 c 128,-1,8
 359 708 359 708 378 689 c 128,-1,9
 397 670 397 670 408.5 643.5 c 128,-1,10
 420 617 420 617 420 589 c 2,11,-1
 420 511 l 2,12,13
 420 481 420 481 408.5 455.5 c 128,-1,14
 397 430 397 430 378 411 c 128,-1,15
 359 392 359 392 333 381 c 128,-1,16
 307 370 307 370 279 370 c 2,17,-1
 190 370 l 2,18,19
 160 370 160 370 135 381 c 128,-1,20
 110 392 110 392 91 411 c 128,-1,21
 72 430 72 430 60.5 455.5 c 128,-1,22
 49 481 49 481 49 511 c 2,23,-1
 49 589 l 2,24,25
 49 618 49 618 60.5 644 c 128,-1,26
 72 670 72 670 91 689 c 128,-1,27
 110 708 110 708 135.5 719 c 128,-1,28
 161 730 161 730 190 730 c 2,29,-1
 279 730 l 2,6,7
298 485 m 2,30,31
 304 485 304 485 304 492 c 2,32,-1
 304 608 l 2,33,34
 304 615 304 615 298 615 c 2,35,-1
 171 615 l 2,36,37
 164 615 164 615 164 608 c 2,38,-1
 164 492 l 2,39,40
 164 486 164 486 171 485 c 2,41,-1
 298 485 l 2,30,31
782 359 m 2,42,43
 811 359 811 359 837 348 c 128,-1,44
 863 337 863 337 882 318 c 128,-1,45
 901 299 901 299 912.5 273 c 128,-1,46
 924 247 924 247 924 218 c 2,47,-1
 924 140 l 2,48,49
 924 110 924 110 912.5 84.5 c 128,-1,50
 901 59 901 59 882 40.5 c 128,-1,51
 863 22 863 22 837 10.5 c 128,-1,52
 811 -1 811 -1 782 -1 c 2,53,-1
 695 -1 l 2,54,55
 665 -1 665 -1 639.5 10.5 c 128,-1,56
 614 22 614 22 595.5 40.5 c 128,-1,57
 577 59 577 59 565.5 85 c 128,-1,58
 554 111 554 111 554 140 c 2,59,-1
 554 218 l 2,60,61
 554 247 554 247 565.5 273 c 128,-1,62
 577 299 577 299 595.5 318 c 128,-1,63
 614 337 614 337 640 348 c 128,-1,64
 666 359 666 359 695 359 c 2,65,-1
 782 359 l 2,42,43
802 114 m 2,66,67
 809 114 809 114 809 121 c 2,68,-1
 809 238 l 2,69,70
 809 245 809 245 802 245 c 2,71,-1
 676 245 l 2,72,73
 669 245 669 245 669 238 c 2,74,-1
 669 121 l 2,75,76
 669 114 669 114 676 114 c 2,77,-1
 802 114 l 2,66,67
EndSplineSet
EndChar

StartChar: period
Encoding: 46 46 190
Width: 219
Flags: W
HStem: 0 134<55 189>
VStem: 55 134<0 134>
LayerCount: 2
Fore
SplineSet
189 0 m 1,0,-1
 55 0 l 1,1,-1
 55 134 l 1,2,-1
 189 134 l 1,3,-1
 189 0 l 1,0,-1
EndSplineSet
EndChar

StartChar: plus
Encoding: 43 43 191
Width: 443
Flags: W
HStem: 236 134<17 158 292 436>
VStem: 158 134<92 236 370 511>
LayerCount: 2
Fore
SplineSet
292 511 m 1,0,-1
 292 370 l 1,1,-1
 436 370 l 1,2,-1
 436 236 l 1,3,-1
 292 236 l 1,4,-1
 292 92 l 1,5,-1
 158 92 l 1,6,-1
 158 236 l 1,7,-1
 17 236 l 1,8,-1
 17 370 l 1,9,-1
 158 370 l 1,10,-1
 158 511 l 1,11,-1
 292 511 l 1,0,-1
EndSplineSet
EndChar

StartChar: q
Encoding: 113 113 192
Width: 679
Flags: W
HStem: -236 21G<490 625> 0 134<156.415 489.998> 460 134<156.415 489.998>
VStem: 20 136<134.692 459.308> 490 135<-236 0 134 460>
LayerCount: 2
Fore
SplineSet
20 453 m 2,0,1
 20 482 20 482 31.5 508 c 128,-1,2
 43 534 43 534 62 552.5 c 128,-1,3
 81 571 81 571 106.5 582.5 c 128,-1,4
 132 594 132 594 162 594 c 2,5,-1
 625 594 l 1,6,-1
 625 -236 l 1,7,-1
 490 -236 l 1,8,-1
 490 0 l 1,9,-1
 162 0 l 2,10,11
 132 0 132 0 106.5 11.5 c 128,-1,12
 81 23 81 23 62 41.5 c 128,-1,13
 43 60 43 60 31.5 86 c 128,-1,14
 20 112 20 112 20 141 c 2,15,-1
 20 453 l 2,0,1
156 141 m 2,16,17
 156 134 156 134 162 134 c 2,18,-1
 483 134 l 2,19,20
 490 134 490 134 490 141 c 2,21,-1
 490 453 l 2,22,23
 490 460 490 460 483 460 c 2,24,-1
 162 460 l 2,25,26
 156 460 156 460 156 453 c 2,27,-1
 156 141 l 2,16,17
EndSplineSet
Substitution2: "'smcp' Lowercase to Small Capitals in Latin lookup 3 subtable" q.sc
Substitution2: "'aalt' Access All Alternates in Latin lookup 0 subtable" q.sc
EndChar

StartChar: q.sc
Encoding: 65577 -1 193
Width: 788
Flags: W
HStem: 0 134<187.57 522 656 744> 460 134<187.57 521.509>
VStem: 53 134<134.692 459.308> 522 134<134 459.977>
LayerCount: 2
Fore
SplineSet
744 134 m 1,0,-1
 744 0 l 1,1,-1
 195 0 l 2,2,3
 165 0 165 0 139.5 11.5 c 128,-1,4
 114 23 114 23 95 41.5 c 128,-1,5
 76 60 76 60 64.5 86 c 128,-1,6
 53 112 53 112 53 141 c 2,7,-1
 53 453 l 2,8,9
 53 482 53 482 64.5 508 c 128,-1,10
 76 534 76 534 95 552.5 c 128,-1,11
 114 571 114 571 139.5 582.5 c 128,-1,12
 165 594 165 594 195 594 c 2,13,-1
 515 594 l 2,14,15
 545 594 545 594 570.5 582.5 c 128,-1,16
 596 571 596 571 615.5 552.5 c 128,-1,17
 635 534 635 534 645.5 507.5 c 128,-1,18
 656 481 656 481 656 453 c 2,19,-1
 656 134 l 1,20,-1
 744 134 l 1,0,-1
515 134 m 2,21,22
 522 134 522 134 522 141 c 2,23,-1
 522 453 l 2,24,25
 522 460 522 460 515 460 c 2,26,-1
 195 460 l 2,27,28
 188 460 188 460 187 453 c 2,29,-1
 187 141 l 2,30,31
 187 134 187 134 195 134 c 2,32,-1
 515 134 l 2,21,22
EndSplineSet
EndChar

StartChar: question
Encoding: 63 63 194
Width: 694
Flags: W
HStem: 0 134<136 271> 275 136<271.491 536.43> 603 134<32 536.43>
VStem: 136 135<0 134 201 274.411> 537 134<411.415 602.308>
LayerCount: 2
Fore
SplineSet
529 737 m 2,0,1
 559 737 559 737 584.5 726 c 128,-1,2
 610 715 610 715 629.5 696 c 128,-1,3
 649 677 649 677 660 651 c 128,-1,4
 671 625 671 625 671 596 c 2,5,-1
 671 417 l 2,6,7
 671 387 671 387 660 361.5 c 128,-1,8
 649 336 649 336 629.5 317 c 128,-1,9
 610 298 610 298 584.5 286.5 c 128,-1,10
 559 275 559 275 529 275 c 2,11,-1
 278 275 l 2,12,13
 272 275 272 275 271 269 c 2,14,-1
 271 201 l 1,15,-1
 136 201 l 1,16,-1
 136 269 l 2,17,18
 136 298 136 298 147.5 324 c 128,-1,19
 159 350 159 350 178 369 c 128,-1,20
 197 388 197 388 222.5 399.5 c 128,-1,21
 248 411 248 411 278 411 c 2,22,-1
 529 411 l 2,23,24
 536 411 536 411 537 417 c 2,25,-1
 537 596 l 2,26,27
 537 603 537 603 529 603 c 2,28,-1
 32 603 l 1,29,-1
 32 737 l 1,30,-1
 529 737 l 2,0,1
136 0 m 1,31,-1
 136 134 l 1,32,-1
 271 134 l 1,33,-1
 271 0 l 1,34,-1
 136 0 l 1,31,-1
EndSplineSet
Substitution2: "'salt' Stylistic Alternatives in Latin lookup 2 subtable" question.alt
Substitution2: "'aalt' Access All Alternates in Latin lookup 0 subtable" question.alt
EndChar

StartChar: question.alt
Encoding: 57350 57350 195
Width: 683
Flags: W
HStem: 0 134<190 326> 275 136<326.415 523.308> 603 134<162.803 523.308>
VStem: 28 134<498 603> 190 136<0 134 165 274.411> 524 134<411.415 602.308>
LayerCount: 2
Fore
SplineSet
517 737 m 2,0,1
 546 737 546 737 572 726 c 128,-1,2
 598 715 598 715 617 696 c 128,-1,3
 636 677 636 677 647 651 c 128,-1,4
 658 625 658 625 658 596 c 2,5,-1
 658 417 l 2,6,7
 658 387 658 387 647 361.5 c 128,-1,8
 636 336 636 336 617 317 c 128,-1,9
 598 298 598 298 572 286.5 c 128,-1,10
 546 275 546 275 517 275 c 2,11,-1
 332 275 l 2,12,13
 326 275 326 275 326 269 c 2,14,-1
 326 165 l 1,15,-1
 190 165 l 1,16,-1
 190 269 l 2,17,18
 190 298 190 298 201.5 324 c 128,-1,19
 213 350 213 350 232 369 c 128,-1,20
 251 388 251 388 276.5 399.5 c 128,-1,21
 302 411 302 411 332 411 c 2,22,-1
 517 411 l 2,23,24
 524 411 524 411 524 417 c 2,25,-1
 524 596 l 2,26,27
 524 603 524 603 517 603 c 2,28,-1
 162 603 l 1,29,-1
 162 498 l 1,30,-1
 28 498 l 1,31,-1
 28 620 l 1,32,33
 32 645 32 645 44 666 c 128,-1,34
 56 687 56 687 74.5 703 c 128,-1,35
 93 719 93 719 116.5 728 c 128,-1,36
 140 737 140 737 167 737 c 2,37,-1
 517 737 l 2,0,1
190 0 m 1,38,-1
 190 134 l 1,39,-1
 326 134 l 1,40,-1
 326 0 l 1,41,-1
 190 0 l 1,38,-1
EndSplineSet
EndChar

StartChar: questiondown
Encoding: 191 191 196
Width: 691
Flags: W
HStem: 0 134<154.491 659> 327 135<154.491 419.977> 603 134<420 554>
VStem: 19 135<134.692 326.407> 420 134<462.415 543 603 737>
LayerCount: 2
Fore
SplineSet
161 0 m 2,0,1
 131 0 131 0 105.5 11.5 c 128,-1,2
 80 23 80 23 61 41.5 c 128,-1,3
 42 60 42 60 30.5 86 c 128,-1,4
 19 112 19 112 19 141 c 2,5,-1
 19 321 l 2,6,7
 19 350 19 350 30.5 375.5 c 128,-1,8
 42 401 42 401 61 420 c 128,-1,9
 80 439 80 439 105.5 450.5 c 128,-1,10
 131 462 131 462 161 462 c 2,11,-1
 413 462 l 2,12,13
 420 462 420 462 420 468 c 2,14,-1
 420 543 l 1,15,-1
 554 543 l 1,16,-1
 554 468 l 2,17,18
 554 438 554 438 542.5 412.5 c 128,-1,19
 531 387 531 387 512.5 368 c 128,-1,20
 494 349 494 349 467.5 338 c 128,-1,21
 441 327 441 327 413 327 c 2,22,-1
 161 327 l 2,23,24
 154 327 154 327 154 321 c 2,25,-1
 154 141 l 2,26,27
 154 134 154 134 161 134 c 2,28,-1
 659 134 l 1,29,-1
 659 0 l 1,30,-1
 161 0 l 2,0,1
554 603 m 1,31,-1
 420 603 l 1,32,-1
 420 737 l 1,33,-1
 554 737 l 1,34,-1
 554 603 l 1,31,-1
EndSplineSet
EndChar

StartChar: quotedbl
Encoding: 34 34 197
Width: 380
Flags: W
HStem: 550 186<60 196 224 358>
VStem: 60 136<550 736> 224 134<550 736>
LayerCount: 2
Fore
SplineSet
196 550 m 1,0,-1
 60 550 l 1,1,-1
 60 736 l 1,2,-1
 196 736 l 1,3,-1
 196 550 l 1,0,-1
358 550 m 1,4,-1
 224 550 l 1,5,-1
 224 736 l 1,6,-1
 358 736 l 1,7,-1
 358 550 l 1,4,-1
EndSplineSet
EndChar

StartChar: quotedblleft
Encoding: 8220 8220 198
Width: 411
Flags: W
HStem: 478 262<117.153 180 294.815 357>
VStem: 46 134<478 671.077> 223 134<478 671.077>
LayerCount: 2
Fore
SplineSet
46 478 m 1,0,-1
 46 598 l 2,1,2
 46 625 46 625 56.5 649 c 128,-1,3
 67 673 67 673 84.5 692 c 128,-1,4
 102 711 102 711 127 723 c 128,-1,5
 152 735 152 735 180 740 c 1,6,-1
 180 478 l 1,7,-1
 46 478 l 1,0,-1
223 478 m 1,8,-1
 223 598 l 2,9,10
 223 625 223 625 233.5 649 c 128,-1,11
 244 673 244 673 262 692 c 128,-1,12
 280 711 280 711 304.5 723 c 128,-1,13
 329 735 329 735 357 740 c 1,14,-1
 357 478 l 1,15,-1
 223 478 l 1,8,-1
EndSplineSet
EndChar

StartChar: quotedblright
Encoding: 8221 8221 199
Width: 410
Flags: W
HStem: 475 262<55 115.998 231 292.01>
VStem: 55 134<544.345 737> 55 124<531.649 735.125> 231 136<546.316 737>
LayerCount: 2
Fore
SplineSet
367 737 m 1,0,-1
 367 617 l 2,1,2
 367 590 367 590 356.5 567 c 128,-1,3
 346 544 346 544 327.5 525 c 128,-1,4
 309 506 309 506 284.5 493 c 128,-1,5
 260 480 260 480 231 475 c 1,6,-1
 231 737 l 1,7,-1
 367 737 l 1,0,-1
189 737 m 1,8,-1
 189 617 l 2,9,10
 189 590 189 590 179 567 c 128,-1,11
 169 544 169 544 151 525 c 128,-1,12
 133 506 133 506 108.5 493 c 128,-1,13
 84 480 84 480 55 475 c 1,14,-1
 55 737 l 1,15,-1
 189 737 l 1,8,-1
EndSplineSet
EndChar

StartChar: quoteleft
Encoding: 8216 8216 200
Width: 222
Flags: W
HStem: 478 262<105.815 169>
VStem: 35 134<478 672.421> 45 124<479.875 685.321>
LayerCount: 2
Fore
SplineSet
35 478 m 1,0,-1
 35 598 l 2,1,2
 35 625 35 625 45 649 c 128,-1,3
 55 673 55 673 73 692 c 128,-1,4
 91 711 91 711 115.5 723 c 128,-1,5
 140 735 140 735 169 740 c 1,6,-1
 169 478 l 1,7,-1
 35 478 l 1,0,-1
EndSplineSet
EndChar

StartChar: quoteright
Encoding: 8217 8217 201
Width: 221
Flags: W
HStem: 475 262<55 115.998>
VStem: 55 134<544.345 737> 55 124<531.649 735.125>
LayerCount: 2
Fore
SplineSet
189 737 m 1,0,-1
 189 617 l 2,1,2
 189 590 189 590 179 567 c 128,-1,3
 169 544 169 544 151 525 c 128,-1,4
 133 506 133 506 108.5 493 c 128,-1,5
 84 480 84 480 55 475 c 1,6,-1
 55 737 l 1,7,-1
 189 737 l 1,0,-1
EndSplineSet
EndChar

StartChar: quotesingle
Encoding: 39 39 202
Width: 229
Flags: W
HStem: 550 186<60 195>
VStem: 60 135<550 736>
LayerCount: 2
Fore
SplineSet
195 550 m 1,0,-1
 60 550 l 1,1,-1
 60 736 l 1,2,-1
 195 736 l 1,3,-1
 195 550 l 1,0,-1
EndSplineSet
EndChar

StartChar: r
Encoding: 114 114 203
Width: 540
Flags: W
HStem: 0 21G<53 187> 460 134<187.57 524>
VStem: 53 134<0 459.308>
LayerCount: 2
Fore
SplineSet
524 594 m 1,0,-1
 524 460 l 1,1,-1
 195 460 l 2,2,3
 188 460 188 460 187 453 c 2,4,-1
 187 0 l 1,5,-1
 53 0 l 1,6,-1
 53 453 l 2,7,8
 53 482 53 482 64.5 508 c 128,-1,9
 76 534 76 534 95 552.5 c 128,-1,10
 114 571 114 571 139.5 582.5 c 128,-1,11
 165 594 165 594 195 594 c 2,12,-1
 524 594 l 1,0,-1
EndSplineSet
Substitution2: "'smcp' Lowercase to Small Capitals in Latin lookup 3 subtable" r.sc
Substitution2: "'aalt' Access All Alternates in Latin lookup 0 subtable" r.sc
EndChar

StartChar: r.sc
Encoding: 65578 -1 204
Width: 716
Flags: W
HStem: 0 21G<55 189 501.01 669> 191 136<189.002 313 494 523.308> 460 134<189.033 523.308>
VStem: 55 134<0 191 327 460> 524 134<327.593 459.961>
LayerCount: 2
Fore
SplineSet
658 333 m 2,0,1
 658 304 658 304 647 278.5 c 128,-1,2
 636 253 636 253 617 233.5 c 128,-1,3
 598 214 598 214 572 202.5 c 128,-1,4
 546 191 546 191 517 191 c 2,5,-1
 494 191 l 1,6,-1
 669 36 l 1,7,-1
 669 0 l 1,8,-1
 523 0 l 1,9,-1
 313 191 l 1,10,-1
 189 191 l 1,11,-1
 189 0 l 1,12,-1
 55 0 l 1,13,-1
 55 594 l 1,14,-1
 517 594 l 2,15,16
 546 594 546 594 572 582.5 c 128,-1,17
 598 571 598 571 617 551.5 c 128,-1,18
 636 532 636 532 647 506.5 c 128,-1,19
 658 481 658 481 658 453 c 2,20,-1
 658 333 l 2,0,1
517 327 m 2,21,22
 524 327 524 327 524 333 c 2,23,-1
 524 453 l 2,24,25
 524 460 524 460 517 460 c 2,26,-1
 197 460 l 2,27,28
 190 460 190 460 189 453 c 2,29,-1
 189 333 l 2,30,31
 189 327 189 327 197 327 c 2,32,-1
 517 327 l 2,21,22
EndSplineSet
EndChar

StartChar: ring
Encoding: 730 730 205
Width: 238
Flags: W
HStem: 806 68<90 143> 923 68<90 143>
VStem: 23 67<874 923> 143 68<874 923>
LayerCount: 2
Fore
SplineSet
144 991 m 2,0,1
 172 991 172 991 191.5 971 c 128,-1,2
 211 951 211 951 211 925 c 2,3,-1
 211 872 l 2,4,5
 211 845 211 845 191.5 825.5 c 128,-1,6
 172 806 172 806 144 806 c 2,7,-1
 89 806 l 2,8,9
 61 806 61 806 42 826 c 128,-1,10
 23 846 23 846 23 872 c 2,11,-1
 23 925 l 2,12,13
 23 952 23 952 42 971.5 c 128,-1,14
 61 991 61 991 89 991 c 2,15,-1
 144 991 l 2,0,1
90 874 m 1,16,-1
 143 874 l 1,17,-1
 143 923 l 1,18,-1
 90 923 l 1,19,-1
 90 874 l 1,16,-1
EndSplineSet
EndChar

StartChar: s
Encoding: 115 115 206
Width: 702
Flags: W
HStem: 0 134<183.497 517.509> 229 136<183.497 517.509> 460 134<183.698 517.509>
VStem: 49 134<134.692 167 365.415 459.308> 518 134<134.491 228.411 427 459.977>
CounterMasks: 1 e0
LayerCount: 2
Fore
SplineSet
652 427 m 1,0,-1
 518 427 l 1,1,-1
 518 453 l 2,2,3
 518 460 518 460 511 460 c 2,4,-1
 190 460 l 2,5,6
 183 460 183 460 183 453 c 2,7,-1
 183 371 l 2,8,9
 183 365 183 365 190 365 c 2,10,-1
 511 365 l 2,11,12
 541 365 541 365 566.5 353.5 c 128,-1,13
 592 342 592 342 611.5 323 c 128,-1,14
 631 304 631 304 641.5 278 c 128,-1,15
 652 252 652 252 652 223 c 2,16,-1
 652 141 l 2,17,18
 652 111 652 111 641.5 85.5 c 128,-1,19
 631 60 631 60 611.5 41.5 c 128,-1,20
 592 23 592 23 566.5 11.5 c 128,-1,21
 541 0 541 0 511 0 c 2,22,-1
 190 0 l 2,23,24
 160 0 160 0 135 11.5 c 128,-1,25
 110 23 110 23 91 41.5 c 128,-1,26
 72 60 72 60 60.5 86 c 128,-1,27
 49 112 49 112 49 141 c 2,28,-1
 49 167 l 1,29,-1
 183 167 l 1,30,-1
 183 141 l 2,31,32
 183 134 183 134 190 134 c 2,33,-1
 511 134 l 2,34,35
 518 134 518 134 518 141 c 2,36,-1
 518 223 l 2,37,38
 518 229 518 229 511 229 c 2,39,-1
 190 229 l 2,40,41
 160 229 160 229 135 240.5 c 128,-1,42
 110 252 110 252 91 271 c 128,-1,43
 72 290 72 290 60.5 315.5 c 128,-1,44
 49 341 49 341 49 371 c 2,45,-1
 49 453 l 2,46,47
 49 482 49 482 60.5 508 c 128,-1,48
 72 534 72 534 91 552.5 c 128,-1,49
 110 571 110 571 135.5 582.5 c 128,-1,50
 161 594 161 594 190 594 c 2,51,-1
 511 594 l 2,52,53
 541 594 541 594 566.5 582.5 c 128,-1,54
 592 571 592 571 611.5 552.5 c 128,-1,55
 631 534 631 534 641.5 507.5 c 128,-1,56
 652 481 652 481 652 453 c 2,57,-1
 652 427 l 1,0,-1
EndSplineSet
Substitution2: "'smcp' Lowercase to Small Capitals in Latin lookup 3 subtable" s.sc
Substitution2: "'aalt' Access All Alternates in Latin lookup 0 subtable" s.sc
EndChar

StartChar: s.sc
Encoding: 65579 -1 207
Width: 703
Flags: W
HStem: 0 134<184.497 518.308> 229 136<184.497 518.308> 460 134<184.698 518.308>
VStem: 50 134<134.692 177 365.415 459.308> 519 134<134.491 228.411 417 459.977>
CounterMasks: 1 e0
LayerCount: 2
Fore
SplineSet
653 417 m 1,0,-1
 519 417 l 1,1,-1
 519 453 l 2,2,3
 519 460 519 460 512 460 c 2,4,-1
 191 460 l 2,5,6
 184 460 184 460 184 453 c 2,7,-1
 184 371 l 2,8,9
 184 365 184 365 191 365 c 2,10,-1
 512 365 l 2,11,12
 541 365 541 365 567 353.5 c 128,-1,13
 593 342 593 342 612 323 c 128,-1,14
 631 304 631 304 642 278 c 128,-1,15
 653 252 653 252 653 223 c 2,16,-1
 653 141 l 2,17,18
 653 111 653 111 642 85.5 c 128,-1,19
 631 60 631 60 612 41.5 c 128,-1,20
 593 23 593 23 567 11.5 c 128,-1,21
 541 0 541 0 512 0 c 2,22,-1
 191 0 l 2,23,24
 161 0 161 0 136 11.5 c 128,-1,25
 111 23 111 23 92 41.5 c 128,-1,26
 73 60 73 60 61.5 86 c 128,-1,27
 50 112 50 112 50 141 c 2,28,-1
 50 177 l 1,29,-1
 184 177 l 1,30,-1
 184 141 l 2,31,32
 184 134 184 134 191 134 c 2,33,-1
 512 134 l 2,34,35
 519 134 519 134 519 141 c 2,36,-1
 519 223 l 2,37,38
 519 229 519 229 512 229 c 2,39,-1
 191 229 l 2,40,41
 161 229 161 229 136 240.5 c 128,-1,42
 111 252 111 252 92 271 c 128,-1,43
 73 290 73 290 61.5 315.5 c 128,-1,44
 50 341 50 341 50 371 c 2,45,-1
 50 453 l 2,46,47
 50 482 50 482 61.5 508 c 128,-1,48
 73 534 73 534 92 552.5 c 128,-1,49
 111 571 111 571 136.5 582.5 c 128,-1,50
 162 594 162 594 191 594 c 2,51,-1
 512 594 l 2,52,53
 541 594 541 594 567 582.5 c 128,-1,54
 593 571 593 571 612 552.5 c 128,-1,55
 631 534 631 534 642 507.5 c 128,-1,56
 653 481 653 481 653 453 c 2,57,-1
 653 417 l 1,0,-1
EndSplineSet
EndChar

StartChar: semicolon
Encoding: 59 59 209
Width: 222
Flags: W
HStem: 467 135<52 186>
VStem: 52 134<-71.538 122 467 602> 52 124<-84.3358 120.125>
LayerCount: 2
Fore
SplineSet
186 467 m 1,0,-1
 52 467 l 1,1,-1
 52 602 l 1,2,-1
 186 602 l 1,3,-1
 186 467 l 1,0,-1
186 122 m 1,4,-1
 186 2 l 2,5,6
 186 -25 186 -25 176 -48.5 c 128,-1,7
 166 -72 166 -72 148 -91 c 128,-1,8
 130 -110 130 -110 105.5 -122.5 c 128,-1,9
 81 -135 81 -135 52 -140 c 1,10,-1
 52 122 l 1,11,-1
 186 122 l 1,4,-1
EndSplineSet
EndChar

StartChar: seven
Encoding: 55 55 210
Width: 675
Flags: W
HStem: 0 21G<482 616> 603 134<3 481.308>
VStem: 482 134<0 602.308>
LayerCount: 2
Fore
SplineSet
475 737 m 2,0,1
 504 737 504 737 530 726 c 128,-1,2
 556 715 556 715 575 696 c 128,-1,3
 594 677 594 677 605 651 c 128,-1,4
 616 625 616 625 616 596 c 2,5,-1
 616 0 l 1,6,-1
 482 0 l 1,7,-1
 482 596 l 2,8,9
 482 603 482 603 475 603 c 2,10,-1
 3 603 l 1,11,-1
 3 737 l 1,12,-1
 475 737 l 2,0,1
EndSplineSet
Substitution2: "'ss03' Style Set 3 in Latin lookup 6 subtable" seven.alt
Substitution2: "'aalt' Access All Alternates in Latin lookup 0 subtable" seven.alt
EndChar

StartChar: seven.alt
Encoding: 57346 57346 211
Width: 789
Flags: W
HStem: 0 21G<47 210.615> 603 134<47 519>
LayerCount: 2
Fore
SplineSet
778 737 m 1,0,-1
 778 703 l 1,1,-1
 194 0 l 1,2,-1
 47 0 l 1,3,-1
 47 34 l 1,4,-1
 519 603 l 1,5,-1
 47 603 l 1,6,-1
 47 737 l 1,7,-1
 778 737 l 1,0,-1
EndSplineSet
EndChar

StartChar: six
Encoding: 54 54 212
Width: 839
Flags: W
HStem: 0 134<193.491 653.308> 310 135<193 653.308> 603 134<193.491 672>
VStem: 58 135<134.692 310 445.032 602.308> 654 134<134.491 309.411>
LayerCount: 2
Fore
SplineSet
647 445 m 2,0,1
 676 445 676 445 702 434 c 128,-1,2
 728 423 728 423 747 404 c 128,-1,3
 766 385 766 385 777 359 c 128,-1,4
 788 333 788 333 788 304 c 2,5,-1
 788 141 l 2,6,7
 788 111 788 111 777 85.5 c 128,-1,8
 766 60 766 60 747 41.5 c 128,-1,9
 728 23 728 23 702 11.5 c 128,-1,10
 676 0 676 0 647 0 c 2,11,-1
 200 0 l 2,12,13
 170 0 170 0 144.5 11.5 c 128,-1,14
 119 23 119 23 100 41.5 c 128,-1,15
 81 60 81 60 69.5 86 c 128,-1,16
 58 112 58 112 58 141 c 2,17,-1
 58 596 l 2,18,19
 58 625 58 625 69.5 651 c 128,-1,20
 81 677 81 677 100 696 c 128,-1,21
 119 715 119 715 144.5 726 c 128,-1,22
 170 737 170 737 200 737 c 2,23,-1
 672 737 l 1,24,-1
 672 603 l 1,25,-1
 200 603 l 2,26,27
 193 603 193 603 193 596 c 2,28,-1
 193 452 l 2,29,30
 193 446 193 446 200 445 c 2,31,-1
 647 445 l 2,0,1
654 304 m 2,32,33
 654 310 654 310 647 310 c 2,34,-1
 193 310 l 1,35,-1
 193 141 l 2,36,37
 193 134 193 134 200 134 c 2,38,-1
 647 134 l 2,39,40
 654 134 654 134 654 141 c 2,41,-1
 654 304 l 2,32,33
EndSplineSet
EndChar

StartChar: slash
Encoding: 47 47 213
Width: 533
Flags: W
HStem: 0 21G<6 58.4924> 717 20G<479.446 531>
LayerCount: 2
Fore
SplineSet
496 737 m 1,0,-1
 531 737 l 1,1,-1
 531 593 l 1,2,-1
 42 0 l 1,3,-1
 6 0 l 1,4,-1
 6 145 l 1,5,-1
 496 737 l 1,0,-1
EndSplineSet
EndChar

StartChar: A.alt2
Encoding: 57356 57356 214
Width: 792
Flags: W
HStem: 0 21G<55 189 623.102 785> 187 135<189 370> 717 20G<55 218.586>
VStem: 55 134<0 187 322 534>
LayerCount: 2
Fore
SplineSet
202 737 m 1,0,-1
 785 34 l 1,1,-1
 785 0 l 1,2,-1
 640 0 l 1,3,-1
 482 187 l 1,4,-1
 189 187 l 1,5,-1
 189 0 l 1,6,-1
 55 0 l 1,7,-1
 55 737 l 1,8,-1
 202 737 l 1,0,-1
189 322 m 1,9,-1
 370 322 l 1,10,11
 346 351 346 351 324.5 375.5 c 128,-1,12
 303 400 303 400 281.5 425.5 c 128,-1,13
 260 451 260 451 237.5 477 c 128,-1,14
 215 503 215 503 189 534 c 1,15,-1
 189 322 l 1,9,-1
EndSplineSet
EndChar

StartChar: sterling
Encoding: 163 163 215
Width: 751
Flags: W
HStem: 0 134<40 137 271 699> 298 134<40 137 271 597> 603 134<271.57 564.407>
VStem: 137 134<134 298 432 602.308>
LayerCount: 2
Fore
SplineSet
565 552 m 1,0,-1
 565 596 l 2,1,2
 565 603 565 603 559 603 c 2,3,-1
 279 603 l 2,4,5
 272 603 272 603 271 596 c 2,6,-1
 271 432 l 1,7,-1
 597 432 l 1,8,-1
 597 298 l 1,9,-1
 271 298 l 1,10,-1
 271 134 l 1,11,-1
 699 134 l 1,12,-1
 699 0 l 1,13,-1
 40 0 l 1,14,-1
 40 134 l 1,15,-1
 137 134 l 1,16,-1
 137 298 l 1,17,-1
 40 298 l 1,18,-1
 40 432 l 1,19,-1
 137 432 l 1,20,-1
 137 596 l 2,21,22
 137 625 137 625 148.5 651 c 128,-1,23
 160 677 160 677 179 696 c 128,-1,24
 198 715 198 715 223.5 726 c 128,-1,25
 249 737 249 737 279 737 c 2,26,-1
 559 737 l 2,27,28
 588 737 588 737 613.5 726 c 128,-1,29
 639 715 639 715 658.5 696 c 128,-1,30
 678 677 678 677 688.5 651 c 128,-1,31
 699 625 699 625 699 596 c 2,32,-1
 699 552 l 1,33,-1
 565 552 l 1,0,-1
EndSplineSet
EndChar

StartChar: t
Encoding: 116 116 216
Width: 447
Flags: W
HStem: 0 134<188.57 420> 460 134<188 420> 768 20G<54 188>
VStem: 54 134<134.692 460 594 788>
LayerCount: 2
Fore
SplineSet
188 460 m 1,0,-1
 188 141 l 2,1,2
 188 134 188 134 196 134 c 2,3,-1
 420 134 l 1,4,-1
 420 0 l 1,5,-1
 196 0 l 2,6,7
 166 0 166 0 140.5 11.5 c 128,-1,8
 115 23 115 23 95.5 41.5 c 128,-1,9
 76 60 76 60 65 86 c 128,-1,10
 54 112 54 112 54 141 c 2,11,-1
 54 788 l 1,12,-1
 188 788 l 1,13,-1
 188 594 l 1,14,-1
 420 594 l 1,15,-1
 420 460 l 1,16,-1
 188 460 l 1,0,-1
EndSplineSet
Substitution2: "'smcp' Lowercase to Small Capitals in Latin lookup 3 subtable" t.sc
Substitution2: "'aalt' Access All Alternates in Latin lookup 0 subtable" t.sc
EndChar

StartChar: t.sc
Encoding: 65580 -1 217
Width: 659
Flags: W
HStem: 0 21G<261 396> 460 134<23 261 396 636>
VStem: 261 135<0 460>
LayerCount: 2
Fore
SplineSet
636 594 m 1,0,-1
 636 460 l 1,1,-1
 396 460 l 1,2,-1
 396 0 l 1,3,-1
 261 0 l 1,4,-1
 261 460 l 1,5,-1
 23 460 l 1,6,-1
 23 594 l 1,7,-1
 636 594 l 1,0,-1
EndSplineSet
EndChar

StartChar: three
Encoding: 51 51 218
Width: 845
Flags: W
HStem: 0 134<188.57 649.407> 308 134<181 621.967> 603 134<188.57 621.203>
VStem: 54 134<134.692 185 543 602.308> 622 134<442.533 602.308> 650 134<134.491 307.953>
LayerCount: 2
Fore
SplineSet
756 449 m 2,0,1
 756 419 756 419 745 397 c 1,2,3
 762 379 762 379 773 354 c 128,-1,4
 784 329 784 329 784 301 c 2,5,-1
 784 141 l 2,6,7
 784 111 784 111 773.5 85.5 c 128,-1,8
 763 60 763 60 743.5 41.5 c 128,-1,9
 724 23 724 23 698.5 11.5 c 128,-1,10
 673 0 673 0 644 0 c 2,11,-1
 196 0 l 2,12,13
 166 0 166 0 140.5 11.5 c 128,-1,14
 115 23 115 23 96 41.5 c 128,-1,15
 77 60 77 60 65.5 86 c 128,-1,16
 54 112 54 112 54 141 c 2,17,-1
 54 185 l 1,18,-1
 188 185 l 1,19,-1
 188 141 l 2,20,21
 188 134 188 134 196 134 c 2,22,-1
 644 134 l 2,23,24
 650 134 650 134 650 141 c 2,25,-1
 650 301 l 2,26,27
 650 308 650 308 644 308 c 2,28,-1
 181 308 l 1,29,-1
 181 442 l 1,30,-1
 614 442 l 2,31,32
 621 442 621 442 622 449 c 2,33,-1
 622 596 l 2,34,35
 622 603 622 603 614 603 c 2,36,-1
 196 603 l 2,37,38
 189 603 189 603 188 596 c 2,39,-1
 188 543 l 1,40,-1
 54 543 l 1,41,-1
 54 596 l 2,42,43
 54 625 54 625 65.5 651 c 128,-1,44
 77 677 77 677 96 696 c 128,-1,45
 115 715 115 715 140.5 726 c 128,-1,46
 166 737 166 737 196 737 c 2,47,-1
 614 737 l 2,48,49
 643 737 643 737 669 726 c 128,-1,50
 695 715 695 715 714 696 c 128,-1,51
 733 677 733 677 744.5 651 c 128,-1,52
 756 625 756 625 756 596 c 2,53,-1
 756 449 l 2,0,1
EndSplineSet
EndChar

StartChar: tilde
Encoding: 732 732 219
Width: 412
Flags: W
HStem: 809 93<239.717 387.626> 876 93<39.3015 185.148>
LayerCount: 2
Fore
SplineSet
307 902 m 1,0,1
 326 902 326 902 348.5 907 c 128,-1,2
 371 912 371 912 396 930 c 1,3,-1
 396 831 l 1,4,5
 376 823 376 823 353.5 816 c 128,-1,6
 331 809 331 809 305 809 c 0,7,8
 277 809 277 809 253.5 819 c 128,-1,9
 230 829 230 829 207 842 c 128,-1,10
 184 855 184 855 160.5 865.5 c 128,-1,11
 137 876 137 876 111 876 c 2,12,-1
 98 876 l 2,13,14
 84 876 84 876 64 869.5 c 128,-1,15
 44 863 44 863 24 837 c 1,16,-1
 24 950 l 1,17,18
 43 958 43 958 65 963.5 c 128,-1,19
 87 969 87 969 111 969 c 0,20,21
 139 969 139 969 162.5 959.5 c 128,-1,22
 186 950 186 950 209 939 c 128,-1,23
 232 928 232 928 256 916.5 c 128,-1,24
 280 905 280 905 307 902 c 1,0,1
EndSplineSet
EndChar

StartChar: two
Encoding: 50 50 220
Width: 849
Flags: W
HStem: 0 134<193 788> 291 135<193.491 653.308> 603 134<193.491 653.308>
VStem: 58 135<134 290.411 541 602.308> 654 134<426.415 602.308>
LayerCount: 2
Fore
SplineSet
647 737 m 2,0,1
 676 737 676 737 702 726 c 128,-1,2
 728 715 728 715 747 696 c 128,-1,3
 766 677 766 677 777 651 c 128,-1,4
 788 625 788 625 788 596 c 2,5,-1
 788 432 l 2,6,7
 788 402 788 402 777 376.5 c 128,-1,8
 766 351 766 351 747 332 c 128,-1,9
 728 313 728 313 702 302 c 128,-1,10
 676 291 676 291 647 291 c 2,11,-1
 200 291 l 2,12,13
 193 291 193 291 193 285 c 2,14,-1
 193 141 l 2,15,16
 193 134 193 134 200 134 c 2,17,-1
 788 134 l 1,18,-1
 788 0 l 1,19,-1
 58 0 l 1,20,-1
 58 285 l 2,21,22
 58 314 58 314 69.5 340 c 128,-1,23
 81 366 81 366 100 384.5 c 128,-1,24
 119 403 119 403 144.5 414.5 c 128,-1,25
 170 426 170 426 200 426 c 2,26,-1
 647 426 l 2,27,28
 654 426 654 426 654 432 c 2,29,-1
 654 596 l 2,30,31
 654 603 654 603 647 603 c 2,32,-1
 200 603 l 2,33,34
 193 603 193 603 193 596 c 2,35,-1
 193 541 l 1,36,-1
 58 541 l 1,37,-1
 58 596 l 2,38,39
 58 625 58 625 69.5 651 c 128,-1,40
 81 677 81 677 100 696 c 128,-1,41
 119 715 119 715 144.5 726 c 128,-1,42
 170 737 170 737 200 737 c 2,43,-1
 647 737 l 2,0,1
EndSplineSet
Substitution2: "'ss03' Style Set 3 in Latin lookup 6 subtable" two.alt
Substitution2: "'aalt' Access All Alternates in Latin lookup 0 subtable" two.alt
EndChar

StartChar: two.alt
Encoding: 57349 57349 221
Width: 834
Flags: W
HStem: 0 134<185.112 779> 603 134<185.593 643.24>
VStem: 50 135<134 160 528 602.308>
LayerCount: 2
Fore
SplineSet
666 417 m 1,0,-1
 185 160 l 1,1,-1
 185 134 l 1,2,-1
 779 134 l 1,3,-1
 779 0 l 1,4,-1
 189 0 l 2,5,6
 164 0 164 0 142 8.5 c 128,-1,7
 120 17 120 17 101.5 32 c 128,-1,8
 83 47 83 47 70 67 c 128,-1,9
 57 87 57 87 51 111 c 1,10,-1
 50 242 l 1,11,-1
 644 557 l 1,12,-1
 644 603 l 1,13,-1
 191 603 l 2,14,15
 185 603 185 603 185 596 c 2,16,-1
 185 528 l 1,17,-1
 50 528 l 1,18,-1
 50 596 l 2,19,20
 50 625 50 625 61.5 651 c 128,-1,21
 73 677 73 677 92 696 c 128,-1,22
 111 715 111 715 136.5 726 c 128,-1,23
 162 737 162 737 191 737 c 2,24,-1
 640 737 l 2,25,26
 666 737 666 737 689.5 728.5 c 128,-1,27
 713 720 713 720 731.5 704 c 128,-1,28
 750 688 750 688 762 666.5 c 128,-1,29
 774 645 774 645 779 621 c 1,30,-1
 779 475 l 1,31,-1
 666 417 l 1,0,-1
EndSplineSet
EndChar

StartChar: u
Encoding: 117 117 222
Width: 711
Flags: W
HStem: 0 134<188.57 522.308> 574 20G<54 188 523 657>
VStem: 54 134<134.692 594> 523 134<134.491 594>
LayerCount: 2
Fore
SplineSet
657 594 m 1,0,-1
 657 141 l 2,1,2
 657 111 657 111 646 85.5 c 128,-1,3
 635 60 635 60 616 41.5 c 128,-1,4
 597 23 597 23 571 11.5 c 128,-1,5
 545 0 545 0 516 0 c 2,6,-1
 196 0 l 2,7,8
 166 0 166 0 140.5 11.5 c 128,-1,9
 115 23 115 23 95.5 41.5 c 128,-1,10
 76 60 76 60 65 86 c 128,-1,11
 54 112 54 112 54 141 c 2,12,-1
 54 594 l 1,13,-1
 188 594 l 1,14,-1
 188 141 l 2,15,16
 188 134 188 134 196 134 c 2,17,-1
 516 134 l 2,18,19
 523 134 523 134 523 141 c 2,20,-1
 523 594 l 1,21,-1
 657 594 l 1,0,-1
EndSplineSet
Substitution2: "'smcp' Lowercase to Small Capitals in Latin lookup 3 subtable" u.sc
Substitution2: "'aalt' Access All Alternates in Latin lookup 0 subtable" u.sc
EndChar

StartChar: u.sc
Encoding: 65581 -1 223
Width: 711
Flags: W
HStem: 0 134<188.57 522.308> 574 20G<54 188 523 657>
VStem: 54 134<134.692 594> 523 134<134.491 594>
LayerCount: 2
Fore
SplineSet
523 594 m 1,0,-1
 657 594 l 1,1,-1
 657 141 l 2,2,3
 657 111 657 111 646 85.5 c 128,-1,4
 635 60 635 60 616 41.5 c 128,-1,5
 597 23 597 23 571 11.5 c 128,-1,6
 545 0 545 0 516 0 c 2,7,-1
 196 0 l 2,8,9
 166 0 166 0 140.5 11.5 c 128,-1,10
 115 23 115 23 95.5 41.5 c 128,-1,11
 76 60 76 60 65 86 c 128,-1,12
 54 112 54 112 54 141 c 2,13,-1
 54 594 l 1,14,-1
 188 594 l 1,15,-1
 188 141 l 2,16,17
 188 134 188 134 196 134 c 2,18,-1
 516 134 l 2,19,20
 523 134 523 134 523 141 c 2,21,-1
 523 594 l 1,0,-1
EndSplineSet
EndChar

StartChar: underscore
Encoding: 95 95 228
Width: 847
Flags: W
HStem: -134 134<55 785>
LayerCount: 2
Fore
SplineSet
785 -134 m 1,0,-1
 55 -134 l 1,1,-1
 55 0 l 1,2,-1
 785 0 l 1,3,-1
 785 -134 l 1,0,-1
EndSplineSet
EndChar

StartChar: v
Encoding: 118 118 230
Width: 808
Flags: W
HStem: 0 21G<337.024 482.044> 574 20G<22 186.858 633.142 799>
LayerCount: 2
Fore
SplineSet
799 594 m 1,0,-1
 471 0 l 1,1,-1
 348 0 l 1,2,-1
 22 594 l 1,3,-1
 176 594 l 1,4,-1
 410 163 l 1,5,-1
 644 594 l 1,6,-1
 799 594 l 1,0,-1
EndSplineSet
Substitution2: "'smcp' Lowercase to Small Capitals in Latin lookup 3 subtable" v.sc
Substitution2: "'salt' Stylistic Alternatives in Latin lookup 2 subtable" v.alt
AlternateSubs2: "'aalt' Access All Alternates in Latin lookup 1 subtable" v.sc v.alt
EndChar

StartChar: v.alt
Encoding: 65582 -1 231
Width: 713
Flags: W
HStem: 0 134<188.57 523> 574 20G<54 188 523 657>
VStem: 54 134<134.692 594> 523 134<134 594>
LayerCount: 2
Fore
SplineSet
657 594 m 1,0,-1
 657 0 l 1,1,-1
 196 0 l 2,2,3
 166 0 166 0 140.5 11.5 c 128,-1,4
 115 23 115 23 95.5 41.5 c 128,-1,5
 76 60 76 60 65 86 c 128,-1,6
 54 112 54 112 54 141 c 2,7,-1
 54 594 l 1,8,-1
 188 594 l 1,9,-1
 188 141 l 2,10,11
 188 134 188 134 196 134 c 2,12,-1
 523 134 l 1,13,-1
 523 594 l 1,14,-1
 657 594 l 1,0,-1
EndSplineSet
EndChar

StartChar: v.sc
Encoding: 65583 -1 232
Width: 820
Flags: W
HStem: 0 21G<342.822 488.178> 574 20G<22 187.137 643.909 809>
LayerCount: 2
Fore
SplineSet
655 594 m 1,0,-1
 809 594 l 1,1,-1
 477 0 l 1,2,-1
 354 0 l 1,3,-1
 22 594 l 1,4,-1
 176 594 l 1,5,-1
 416 163 l 1,6,-1
 655 594 l 1,0,-1
EndSplineSet
EndChar

StartChar: w
Encoding: 119 119 233
Width: 1081
Flags: W
HStem: 0 21G<261.155 381.665 714.982 835.542> 574 20G<36 186.229 455.5 622.205 893 1052>
LayerCount: 2
Fore
SplineSet
1052 594 m 1,0,-1
 828 0 l 1,1,-1
 724 0 l 1,2,-1
 545 397 l 1,3,-1
 373 0 l 1,4,-1
 269 0 l 1,5,-1
 36 594 l 1,6,-1
 178 594 l 1,7,-1
 322 244 l 1,8,9
 360 331 360 331 398.5 419 c 128,-1,10
 437 507 437 507 474 594 c 1,11,-1
 613 594 l 1,12,-1
 775 242 l 1,13,14
 809 329 809 329 843 418 c 128,-1,15
 877 507 877 507 909 594 c 1,16,-1
 1052 594 l 1,0,-1
EndSplineSet
Substitution2: "'smcp' Lowercase to Small Capitals in Latin lookup 3 subtable" w.sc
Substitution2: "'salt' Stylistic Alternatives in Latin lookup 2 subtable" w.alt
AlternateSubs2: "'aalt' Access All Alternates in Latin lookup 1 subtable" w.sc w.alt
EndChar

StartChar: w.alt
Encoding: 65584 -1 234
Width: 1001
Flags: W
HStem: 0 134<187.651 425 560 798> 574 20G<54 187 425 560 798 932>
VStem: 54 133<134.692 594> 425 135<134 594> 798 134<134 594>
LayerCount: 2
Fore
SplineSet
196 0 m 2,0,1
 166 0 166 0 140.5 11.5 c 128,-1,2
 115 23 115 23 96 41.5 c 128,-1,3
 77 60 77 60 65.5 86 c 128,-1,4
 54 112 54 112 54 141 c 2,5,-1
 54 594 l 1,6,-1
 187 594 l 1,7,-1
 187 141 l 2,8,9
 187 134 187 134 196 134 c 2,10,-1
 419 134 l 2,11,12
 425 134 425 134 425 141 c 2,13,-1
 425 594 l 1,14,-1
 560 594 l 1,15,-1
 560 141 l 2,16,17
 560 134 560 134 566 134 c 2,18,-1
 791 134 l 2,19,20
 798 134 798 134 798 141 c 2,21,-1
 798 594 l 1,22,-1
 932 594 l 1,23,-1
 932 0 l 1,24,-1
 196 0 l 2,0,1
EndSplineSet
EndChar

StartChar: w.sc
Encoding: 65585 -1 235
Width: 1103
Flags: W
HStem: 0 21G<264.02 384.866 717.773 838.71> 574 20G<35 185.466 472.193 621.432 908.159 1060>
LayerCount: 2
Fore
SplineSet
1060 594 m 1,0,-1
 831 0 l 1,1,-1
 727 0 l 1,2,-1
 548 388 l 1,3,-1
 376 0 l 1,4,-1
 272 0 l 1,5,-1
 35 594 l 1,6,-1
 177 594 l 1,7,-1
 326 242 l 1,8,-1
 481 594 l 1,9,-1
 612 594 l 1,10,-1
 778 242 l 1,11,-1
 916 594 l 1,12,-1
 1060 594 l 1,0,-1
EndSplineSet
EndChar

StartChar: x
Encoding: 120 120 236
Width: 708
Flags: W
HStem: 0 21G<47 210.142 497.655 660> 574 20G<47 210.915 495 660>
LayerCount: 2
Fore
SplineSet
660 594 m 1,0,-1
 660 560 l 1,1,-1
 440 302 l 1,2,3
 494 234 494 234 550 167 c 128,-1,4
 606 100 606 100 660 34 c 1,5,-1
 660 0 l 1,6,-1
 514 0 l 1,7,-1
 353 197 l 1,8,-1
 194 0 l 1,9,-1
 47 0 l 1,10,-1
 47 34 l 1,11,-1
 266 302 l 1,12,-1
 47 560 l 1,13,-1
 47 594 l 1,14,-1
 194 594 l 1,15,-1
 353 406 l 1,16,17
 392 452 392 452 434 500 c 128,-1,18
 476 548 476 548 514 594 c 1,19,-1
 660 594 l 1,0,-1
EndSplineSet
Substitution2: "'smcp' Lowercase to Small Capitals in Latin lookup 3 subtable" x.sc
Substitution2: "'salt' Stylistic Alternatives in Latin lookup 2 subtable" x.alt
AlternateSubs2: "'aalt' Access All Alternates in Latin lookup 1 subtable" x.sc x.alt
EndChar

StartChar: x.alt
Encoding: 65586 -1 237
Width: 714
Flags: W
HStem: 0 21G<55 189 524 658> 229 136<189.033 523.998> 574 20G<55 189 524 658>
VStem: 55 134<0 228.094 365.906 594> 524 134<0 228.094 365.906 594>
LayerCount: 2
Fore
SplineSet
658 371 m 2,0,1
 658 330 658 330 638 297 c 1,2,3
 658 264 658 264 658 223 c 2,4,-1
 658 0 l 1,5,-1
 524 0 l 1,6,-1
 524 223 l 2,7,8
 524 229 524 229 517 229 c 2,9,-1
 197 229 l 2,10,11
 190 229 190 229 189 223 c 2,12,-1
 189 0 l 1,13,-1
 55 0 l 1,14,-1
 55 223 l 2,15,16
 55 264 55 264 76 297 c 1,17,18
 56 330 56 330 55 371 c 2,19,-1
 55 594 l 1,20,-1
 189 594 l 1,21,-1
 189 371 l 2,22,23
 189 365 189 365 197 365 c 2,24,-1
 517 365 l 2,25,26
 524 365 524 365 524 371 c 2,27,-1
 524 594 l 1,28,-1
 658 594 l 1,29,-1
 658 371 l 2,0,1
EndSplineSet
EndChar

StartChar: x.sc
Encoding: 65587 -1 238
Width: 708
Flags: W
HStem: 0 21G<47 210.061 497.737 660> 574 20G<47 210.915 496.872 660>
LayerCount: 2
Fore
SplineSet
660 594 m 1,0,-1
 660 560 l 1,1,-1
 440 303 l 1,2,-1
 660 34 l 1,3,-1
 660 0 l 1,4,-1
 514 0 l 1,5,-1
 353 198 l 1,6,-1
 194 0 l 1,7,-1
 47 0 l 1,8,-1
 47 34 l 1,9,-1
 265 303 l 1,10,11
 213 365 213 365 156 432 c 128,-1,12
 99 499 99 499 47 560 c 1,13,-1
 47 594 l 1,14,-1
 194 594 l 1,15,-1
 353 406 l 1,16,-1
 514 594 l 1,17,-1
 660 594 l 1,0,-1
EndSplineSet
EndChar

StartChar: y
Encoding: 121 121 239
Width: 701
Flags: W
HStem: -236 136<142 511.407> 0 134<177.491 512> 572 20G<43 177 512 646>
VStem: 43 134<134.692 592> 512 134<-99.5854 0 134 592>
LayerCount: 2
Fore
SplineSet
646 -94 m 2,0,1
 646 -124 646 -124 635.5 -149.5 c 128,-1,2
 625 -175 625 -175 605.5 -194 c 128,-1,3
 586 -213 586 -213 560.5 -224.5 c 128,-1,4
 535 -236 535 -236 506 -236 c 2,5,-1
 142 -236 l 1,6,-1
 142 -100 l 1,7,-1
 506 -100 l 2,8,9
 512 -100 512 -100 512 -94 c 2,10,-1
 512 0 l 1,11,-1
 184 0 l 2,12,13
 154 0 154 0 128.5 11.5 c 128,-1,14
 103 23 103 23 84.5 41.5 c 128,-1,15
 66 60 66 60 54.5 86 c 128,-1,16
 43 112 43 112 43 141 c 2,17,-1
 43 592 l 1,18,-1
 177 592 l 1,19,-1
 177 141 l 2,20,21
 177 134 177 134 184 134 c 2,22,-1
 506 134 l 2,23,24
 512 134 512 134 512 141 c 2,25,-1
 512 592 l 1,26,-1
 646 592 l 1,27,-1
 646 -94 l 2,0,1
EndSplineSet
Substitution2: "'smcp' Lowercase to Small Capitals in Latin lookup 3 subtable" y.sc
Substitution2: "'aalt' Access All Alternates in Latin lookup 0 subtable" y.sc
EndChar

StartChar: y.sc
Encoding: 65588 -1 240
Width: 704
Flags: W
HStem: 0 21G<297 431> 574 20G<18 192.537 534.711 710>
VStem: 297 134<0 205>
LayerCount: 2
Fore
SplineSet
710 594 m 1,0,-1
 431 205 l 1,1,-1
 431 0 l 1,2,-1
 297 0 l 1,3,-1
 297 205 l 1,4,-1
 18 594 l 1,5,-1
 177 594 l 1,6,-1
 365 352 l 1,7,-1
 550 594 l 1,8,-1
 710 594 l 1,0,-1
EndSplineSet
EndChar

StartChar: z
Encoding: 122 122 243
Width: 714
Flags: W
HStem: 0 134<253 658> 460 134<55 461>
LayerCount: 2
Fore
SplineSet
55 594 m 1,0,-1
 658 594 l 1,1,-1
 658 447 l 1,2,-1
 253 134 l 1,3,-1
 658 134 l 1,4,-1
 658 0 l 1,5,-1
 55 0 l 1,6,-1
 55 146 l 1,7,-1
 461 460 l 1,8,-1
 55 460 l 1,9,-1
 55 594 l 1,0,-1
EndSplineSet
Substitution2: "'smcp' Lowercase to Small Capitals in Latin lookup 3 subtable" z.sc
Substitution2: "'salt' Stylistic Alternatives in Latin lookup 2 subtable" z.alt
AlternateSubs2: "'aalt' Access All Alternates in Latin lookup 1 subtable" z.sc z.alt
EndChar

StartChar: z.alt
Encoding: 65589 -1 244
Width: 708
Flags: W
HStem: 0 134<186.57 655> 229 136<186.57 520.308> 460 134<52 520.308>
VStem: 52 134<134.692 228.411> 521 134<365.415 459.977>
CounterMasks: 1 e0
LayerCount: 2
Fore
SplineSet
194 229 m 2,0,1
 187 229 187 229 186 223 c 2,2,-1
 186 141 l 2,3,4
 186 134 186 134 194 134 c 2,5,-1
 655 134 l 1,6,-1
 655 0 l 1,7,-1
 194 0 l 2,8,9
 164 0 164 0 138.5 11.5 c 128,-1,10
 113 23 113 23 94 41.5 c 128,-1,11
 75 60 75 60 63.5 86 c 128,-1,12
 52 112 52 112 52 141 c 2,13,-1
 52 223 l 2,14,15
 52 252 52 252 63.5 278 c 128,-1,16
 75 304 75 304 94 323 c 128,-1,17
 113 342 113 342 138.5 353.5 c 128,-1,18
 164 365 164 365 194 365 c 2,19,-1
 514 365 l 2,20,21
 521 365 521 365 521 371 c 2,22,-1
 521 453 l 2,23,24
 521 460 521 460 514 460 c 2,25,-1
 52 460 l 1,26,-1
 52 594 l 1,27,-1
 514 594 l 2,28,29
 543 594 543 594 569 582.5 c 128,-1,30
 595 571 595 571 614 552.5 c 128,-1,31
 633 534 633 534 644 507.5 c 128,-1,32
 655 481 655 481 655 453 c 2,33,-1
 655 371 l 2,34,35
 655 341 655 341 644 315.5 c 128,-1,36
 633 290 633 290 614 271 c 128,-1,37
 595 252 595 252 569 240.5 c 128,-1,38
 543 229 543 229 514 229 c 2,39,-1
 194 229 l 2,0,1
EndSplineSet
EndChar

StartChar: z.sc
Encoding: 65590 -1 245
Width: 714
Flags: W
HStem: 0 134<253 658> 460 134<55 461>
LayerCount: 2
Fore
SplineSet
55 594 m 1,0,-1
 658 594 l 1,1,-1
 658 447 l 1,2,-1
 253 134 l 1,3,-1
 658 134 l 1,4,-1
 658 0 l 1,5,-1
 55 0 l 1,6,-1
 55 146 l 1,7,-1
 461 460 l 1,8,-1
 55 460 l 1,9,-1
 55 594 l 1,0,-1
EndSplineSet
EndChar

StartChar: zero
Encoding: 48 48 247
Width: 854
Flags: W
HStem: 0 138<253 653.308> 600 137<193.491 594>
VStem: 58 135<263 599.314> 654 134<138.485 475>
LayerCount: 2
Fore
SplineSet
647 737 m 2,0,1
 676 737 676 737 702 725.5 c 128,-1,2
 728 714 728 714 747 694.5 c 128,-1,3
 766 675 766 675 777 648.5 c 128,-1,4
 788 622 788 622 788 593 c 2,5,-1
 788 145 l 2,6,7
 788 115 788 115 777 89 c 128,-1,8
 766 63 766 63 747 43.5 c 128,-1,9
 728 24 728 24 702 12 c 128,-1,10
 676 0 676 0 647 0 c 2,11,-1
 200 0 l 2,12,13
 170 0 170 0 144.5 12 c 128,-1,14
 119 24 119 24 100 43.5 c 128,-1,15
 81 63 81 63 69.5 89.5 c 128,-1,16
 58 116 58 116 58 145 c 2,17,-1
 58 593 l 2,18,19
 58 622 58 622 69.5 648.5 c 128,-1,20
 81 675 81 675 100 694.5 c 128,-1,21
 119 714 119 714 144.5 725.5 c 128,-1,22
 170 737 170 737 200 737 c 2,23,-1
 647 737 l 2,0,1
200 600 m 2,24,25
 193 600 193 600 193 593 c 2,26,-1
 193 263 l 1,27,-1
 594 600 l 1,28,-1
 200 600 l 2,24,25
647 138 m 2,29,30
 654 138 654 138 654 145 c 2,31,-1
 654 475 l 1,32,-1
 253 138 l 1,33,-1
 647 138 l 2,29,30
EndSplineSet
EndChar

StartChar: A
Encoding: 65 65 248
Width: 856
Flags: W
HStem: 0 21G<59 195 660 797> 248 135<195 660> 602 135<195.485 659.515>
VStem: 59 136<0 248 383 601.515> 660 137<0 248 383 601.515>
LayerCount: 2
Fore
SplineSet
653 737 m 2,0,1
 683 737 683 737 709 726 c 128,-1,2
 735 715 735 715 754.5 696 c 128,-1,3
 774 677 774 677 785.5 651 c 128,-1,4
 797 625 797 625 797 595 c 2,5,-1
 797 0 l 1,6,-1
 660 0 l 1,7,-1
 660 248 l 1,8,-1
 195 248 l 1,9,-1
 195 0 l 1,10,-1
 59 0 l 1,11,-1
 59 595 l 2,12,13
 59 625 59 625 70.5 651 c 128,-1,14
 82 677 82 677 101 696 c 128,-1,15
 120 715 120 715 146 726 c 128,-1,16
 172 737 172 737 202 737 c 2,17,-1
 653 737 l 2,0,1
660 383 m 1,18,-1
 660 595 l 2,19,20
 660 602 660 602 653 602 c 2,21,-1
 202 602 l 2,22,23
 195 602 195 602 195 595 c 2,24,-1
 195 383 l 1,25,-1
 660 383 l 1,18,-1
EndSplineSet
Substitution2: "'ss02' Style Set 2 in Latin lookup 5 subtable" A.alt2
Substitution2: "'ss01' Style Set 1 in Latin lookup 4 subtable" A.alt
AlternateSubs2: "'aalt' Access All Alternates in Latin lookup 1 subtable" A.alt A.alt2
EndChar
